<?xml version="1.0" encoding="utf-8" standalone="no"?>
<!DOCTYPE svg PUBLIC "-//W3C//DTD SVG 1.1//EN"
  "http://www.w3.org/Graphics/SVG/1.1/DTD/svg11.dtd">
<svg xmlns:xlink="http://www.w3.org/1999/xlink" width="928.46125pt" height="355.59625pt" viewBox="0 0 928.46125 355.59625" xmlns="http://www.w3.org/2000/svg" version="1.1">
 <metadata>
  <rdf:RDF xmlns:dc="http://purl.org/dc/elements/1.1/" xmlns:cc="http://creativecommons.org/ns#" xmlns:rdf="http://www.w3.org/1999/02/22-rdf-syntax-ns#">
   <cc:Work>
    <dc:type rdf:resource="http://purl.org/dc/dcmitype/StillImage"/>
    <dc:date>2026-07-01T02:51:25.934426</dc:date>
    <dc:format>image/svg+xml</dc:format>
    <dc:creator>
     <cc:Agent>
      <dc:title>Matplotlib v3.10.9, https://matplotlib.org/</dc:title>
     </cc:Agent>
    </dc:creator>
   </cc:Work>
  </rdf:RDF>
 </metadata>
 <defs>
  <style type="text/css">*{stroke-linejoin: round; stroke-linecap: butt}</style>
 </defs>
 <g id="figure_1">
  <g id="patch_1">
   <path d="M 0 355.59625 
L 928.46125 355.59625 
L 928.46125 0 
L 0 0 
z
" style="fill: #ffffff"/>
  </g>
  <g id="axes_1">
   <g id="patch_2">
    <path d="M 43.78125 318.04 
L 458.66125 318.04 
L 458.66125 50.64 
L 43.78125 50.64 
z
" style="fill: #ffffff"/>
   </g>
   <g id="matplotlib.axis_1">
    <g id="xtick_1">
     <g id="line2d_1">
      <path d="M 60.108132 318.04 
L 60.108132 50.64 
" clip-path="url(#pc20917ab4d)" style="fill: none; stroke: #b0b0b0; stroke-opacity: 0.3; stroke-width: 0.8; stroke-linecap: square"/>
     </g>
     <g id="line2d_2">
      <defs>
       <path id="macdddcf290" d="M 0 0 
L 0 3.5 
" style="stroke: #000000; stroke-width: 0.8"/>
      </defs>
      <g>
       <use xlink:href="#macdddcf290" x="60.108132" y="318.04" style="stroke: #000000; stroke-width: 0.8"/>
      </g>
     </g>
     <g id="text_1">
      <!-- 0 -->
      <g transform="translate(56.926882 332.638437) scale(0.1 -0.1)">
       <defs>
        <path id="DejaVuSans-30" d="M 2034 4250 
Q 1547 4250 1301 3770 
Q 1056 3291 1056 2328 
Q 1056 1369 1301 889 
Q 1547 409 2034 409 
Q 2525 409 2770 889 
Q 3016 1369 3016 2328 
Q 3016 3291 2770 3770 
Q 2525 4250 2034 4250 
z
M 2034 4750 
Q 2819 4750 3233 4129 
Q 3647 3509 3647 2328 
Q 3647 1150 3233 529 
Q 2819 -91 2034 -91 
Q 1250 -91 836 529 
Q 422 1150 422 2328 
Q 422 3509 836 4129 
Q 1250 4750 2034 4750 
z
" transform="scale(0.015625)"/>
       </defs>
       <use xlink:href="#DejaVuSans-30"/>
      </g>
     </g>
    </g>
    <g id="xtick_2">
     <g id="line2d_3">
      <path d="M 110.734124 318.04 
L 110.734124 50.64 
" clip-path="url(#pc20917ab4d)" style="fill: none; stroke: #b0b0b0; stroke-opacity: 0.3; stroke-width: 0.8; stroke-linecap: square"/>
     </g>
     <g id="line2d_4">
      <g>
       <use xlink:href="#macdddcf290" x="110.734124" y="318.04" style="stroke: #000000; stroke-width: 0.8"/>
      </g>
     </g>
     <g id="text_2">
      <!-- 20 -->
      <g transform="translate(104.371624 332.638437) scale(0.1 -0.1)">
       <defs>
        <path id="DejaVuSans-32" d="M 1228 531 
L 3431 531 
L 3431 0 
L 469 0 
L 469 531 
Q 828 903 1448 1529 
Q 2069 2156 2228 2338 
Q 2531 2678 2651 2914 
Q 2772 3150 2772 3378 
Q 2772 3750 2511 3984 
Q 2250 4219 1831 4219 
Q 1534 4219 1204 4116 
Q 875 4013 500 3803 
L 500 4441 
Q 881 4594 1212 4672 
Q 1544 4750 1819 4750 
Q 2544 4750 2975 4387 
Q 3406 4025 3406 3419 
Q 3406 3131 3298 2873 
Q 3191 2616 2906 2266 
Q 2828 2175 2409 1742 
Q 1991 1309 1228 531 
z
" transform="scale(0.015625)"/>
       </defs>
       <use xlink:href="#DejaVuSans-32"/>
       <use xlink:href="#DejaVuSans-30" transform="translate(63.623047 0)"/>
      </g>
     </g>
    </g>
    <g id="xtick_3">
     <g id="line2d_5">
      <path d="M 161.360115 318.04 
L 161.360115 50.64 
" clip-path="url(#pc20917ab4d)" style="fill: none; stroke: #b0b0b0; stroke-opacity: 0.3; stroke-width: 0.8; stroke-linecap: square"/>
     </g>
     <g id="line2d_6">
      <g>
       <use xlink:href="#macdddcf290" x="161.360115" y="318.04" style="stroke: #000000; stroke-width: 0.8"/>
      </g>
     </g>
     <g id="text_3">
      <!-- 40 -->
      <g transform="translate(154.997615 332.638437) scale(0.1 -0.1)">
       <defs>
        <path id="DejaVuSans-34" d="M 2419 4116 
L 825 1625 
L 2419 1625 
L 2419 4116 
z
M 2253 4666 
L 3047 4666 
L 3047 1625 
L 3713 1625 
L 3713 1100 
L 3047 1100 
L 3047 0 
L 2419 0 
L 2419 1100 
L 313 1100 
L 313 1709 
L 2253 4666 
z
" transform="scale(0.015625)"/>
       </defs>
       <use xlink:href="#DejaVuSans-34"/>
       <use xlink:href="#DejaVuSans-30" transform="translate(63.623047 0)"/>
      </g>
     </g>
    </g>
    <g id="xtick_4">
     <g id="line2d_7">
      <path d="M 211.986107 318.04 
L 211.986107 50.64 
" clip-path="url(#pc20917ab4d)" style="fill: none; stroke: #b0b0b0; stroke-opacity: 0.3; stroke-width: 0.8; stroke-linecap: square"/>
     </g>
     <g id="line2d_8">
      <g>
       <use xlink:href="#macdddcf290" x="211.986107" y="318.04" style="stroke: #000000; stroke-width: 0.8"/>
      </g>
     </g>
     <g id="text_4">
      <!-- 60 -->
      <g transform="translate(205.623607 332.638437) scale(0.1 -0.1)">
       <defs>
        <path id="DejaVuSans-36" d="M 2113 2584 
Q 1688 2584 1439 2293 
Q 1191 2003 1191 1497 
Q 1191 994 1439 701 
Q 1688 409 2113 409 
Q 2538 409 2786 701 
Q 3034 994 3034 1497 
Q 3034 2003 2786 2293 
Q 2538 2584 2113 2584 
z
M 3366 4563 
L 3366 3988 
Q 3128 4100 2886 4159 
Q 2644 4219 2406 4219 
Q 1781 4219 1451 3797 
Q 1122 3375 1075 2522 
Q 1259 2794 1537 2939 
Q 1816 3084 2150 3084 
Q 2853 3084 3261 2657 
Q 3669 2231 3669 1497 
Q 3669 778 3244 343 
Q 2819 -91 2113 -91 
Q 1303 -91 875 529 
Q 447 1150 447 2328 
Q 447 3434 972 4092 
Q 1497 4750 2381 4750 
Q 2619 4750 2861 4703 
Q 3103 4656 3366 4563 
z
" transform="scale(0.015625)"/>
       </defs>
       <use xlink:href="#DejaVuSans-36"/>
       <use xlink:href="#DejaVuSans-30" transform="translate(63.623047 0)"/>
      </g>
     </g>
    </g>
    <g id="xtick_5">
     <g id="line2d_9">
      <path d="M 262.612098 318.04 
L 262.612098 50.64 
" clip-path="url(#pc20917ab4d)" style="fill: none; stroke: #b0b0b0; stroke-opacity: 0.3; stroke-width: 0.8; stroke-linecap: square"/>
     </g>
     <g id="line2d_10">
      <g>
       <use xlink:href="#macdddcf290" x="262.612098" y="318.04" style="stroke: #000000; stroke-width: 0.8"/>
      </g>
     </g>
     <g id="text_5">
      <!-- 80 -->
      <g transform="translate(256.249598 332.638437) scale(0.1 -0.1)">
       <defs>
        <path id="DejaVuSans-38" d="M 2034 2216 
Q 1584 2216 1326 1975 
Q 1069 1734 1069 1313 
Q 1069 891 1326 650 
Q 1584 409 2034 409 
Q 2484 409 2743 651 
Q 3003 894 3003 1313 
Q 3003 1734 2745 1975 
Q 2488 2216 2034 2216 
z
M 1403 2484 
Q 997 2584 770 2862 
Q 544 3141 544 3541 
Q 544 4100 942 4425 
Q 1341 4750 2034 4750 
Q 2731 4750 3128 4425 
Q 3525 4100 3525 3541 
Q 3525 3141 3298 2862 
Q 3072 2584 2669 2484 
Q 3125 2378 3379 2068 
Q 3634 1759 3634 1313 
Q 3634 634 3220 271 
Q 2806 -91 2034 -91 
Q 1263 -91 848 271 
Q 434 634 434 1313 
Q 434 1759 690 2068 
Q 947 2378 1403 2484 
z
M 1172 3481 
Q 1172 3119 1398 2916 
Q 1625 2713 2034 2713 
Q 2441 2713 2670 2916 
Q 2900 3119 2900 3481 
Q 2900 3844 2670 4047 
Q 2441 4250 2034 4250 
Q 1625 4250 1398 4047 
Q 1172 3844 1172 3481 
z
" transform="scale(0.015625)"/>
       </defs>
       <use xlink:href="#DejaVuSans-38"/>
       <use xlink:href="#DejaVuSans-30" transform="translate(63.623047 0)"/>
      </g>
     </g>
    </g>
    <g id="xtick_6">
     <g id="line2d_11">
      <path d="M 313.23809 318.04 
L 313.23809 50.64 
" clip-path="url(#pc20917ab4d)" style="fill: none; stroke: #b0b0b0; stroke-opacity: 0.3; stroke-width: 0.8; stroke-linecap: square"/>
     </g>
     <g id="line2d_12">
      <g>
       <use xlink:href="#macdddcf290" x="313.23809" y="318.04" style="stroke: #000000; stroke-width: 0.8"/>
      </g>
     </g>
     <g id="text_6">
      <!-- 100 -->
      <g transform="translate(303.69434 332.638437) scale(0.1 -0.1)">
       <defs>
        <path id="DejaVuSans-31" d="M 794 531 
L 1825 531 
L 1825 4091 
L 703 3866 
L 703 4441 
L 1819 4666 
L 2450 4666 
L 2450 531 
L 3481 531 
L 3481 0 
L 794 0 
L 794 531 
z
" transform="scale(0.015625)"/>
       </defs>
       <use xlink:href="#DejaVuSans-31"/>
       <use xlink:href="#DejaVuSans-30" transform="translate(63.623047 0)"/>
       <use xlink:href="#DejaVuSans-30" transform="translate(127.246094 0)"/>
      </g>
     </g>
    </g>
    <g id="xtick_7">
     <g id="line2d_13">
      <path d="M 363.864081 318.04 
L 363.864081 50.64 
" clip-path="url(#pc20917ab4d)" style="fill: none; stroke: #b0b0b0; stroke-opacity: 0.3; stroke-width: 0.8; stroke-linecap: square"/>
     </g>
     <g id="line2d_14">
      <g>
       <use xlink:href="#macdddcf290" x="363.864081" y="318.04" style="stroke: #000000; stroke-width: 0.8"/>
      </g>
     </g>
     <g id="text_7">
      <!-- 120 -->
      <g transform="translate(354.320331 332.638437) scale(0.1 -0.1)">
       <use xlink:href="#DejaVuSans-31"/>
       <use xlink:href="#DejaVuSans-32" transform="translate(63.623047 0)"/>
       <use xlink:href="#DejaVuSans-30" transform="translate(127.246094 0)"/>
      </g>
     </g>
    </g>
    <g id="xtick_8">
     <g id="line2d_15">
      <path d="M 414.490072 318.04 
L 414.490072 50.64 
" clip-path="url(#pc20917ab4d)" style="fill: none; stroke: #b0b0b0; stroke-opacity: 0.3; stroke-width: 0.8; stroke-linecap: square"/>
     </g>
     <g id="line2d_16">
      <g>
       <use xlink:href="#macdddcf290" x="414.490072" y="318.04" style="stroke: #000000; stroke-width: 0.8"/>
      </g>
     </g>
     <g id="text_8">
      <!-- 140 -->
      <g transform="translate(404.946322 332.638437) scale(0.1 -0.1)">
       <use xlink:href="#DejaVuSans-31"/>
       <use xlink:href="#DejaVuSans-34" transform="translate(63.623047 0)"/>
       <use xlink:href="#DejaVuSans-30" transform="translate(127.246094 0)"/>
      </g>
     </g>
    </g>
    <g id="text_9">
     <!-- Epoch -->
     <g transform="translate(235.910313 346.316562) scale(0.1 -0.1)">
      <defs>
       <path id="DejaVuSans-45" d="M 628 4666 
L 3578 4666 
L 3578 4134 
L 1259 4134 
L 1259 2753 
L 3481 2753 
L 3481 2222 
L 1259 2222 
L 1259 531 
L 3634 531 
L 3634 0 
L 628 0 
L 628 4666 
z
" transform="scale(0.015625)"/>
       <path id="DejaVuSans-70" d="M 1159 525 
L 1159 -1331 
L 581 -1331 
L 581 3500 
L 1159 3500 
L 1159 2969 
Q 1341 3281 1617 3432 
Q 1894 3584 2278 3584 
Q 2916 3584 3314 3078 
Q 3713 2572 3713 1747 
Q 3713 922 3314 415 
Q 2916 -91 2278 -91 
Q 1894 -91 1617 61 
Q 1341 213 1159 525 
z
M 3116 1747 
Q 3116 2381 2855 2742 
Q 2594 3103 2138 3103 
Q 1681 3103 1420 2742 
Q 1159 2381 1159 1747 
Q 1159 1113 1420 752 
Q 1681 391 2138 391 
Q 2594 391 2855 752 
Q 3116 1113 3116 1747 
z
" transform="scale(0.015625)"/>
       <path id="DejaVuSans-6f" d="M 1959 3097 
Q 1497 3097 1228 2736 
Q 959 2375 959 1747 
Q 959 1119 1226 758 
Q 1494 397 1959 397 
Q 2419 397 2687 759 
Q 2956 1122 2956 1747 
Q 2956 2369 2687 2733 
Q 2419 3097 1959 3097 
z
M 1959 3584 
Q 2709 3584 3137 3096 
Q 3566 2609 3566 1747 
Q 3566 888 3137 398 
Q 2709 -91 1959 -91 
Q 1206 -91 779 398 
Q 353 888 353 1747 
Q 353 2609 779 3096 
Q 1206 3584 1959 3584 
z
" transform="scale(0.015625)"/>
       <path id="DejaVuSans-63" d="M 3122 3366 
L 3122 2828 
Q 2878 2963 2633 3030 
Q 2388 3097 2138 3097 
Q 1578 3097 1268 2742 
Q 959 2388 959 1747 
Q 959 1106 1268 751 
Q 1578 397 2138 397 
Q 2388 397 2633 464 
Q 2878 531 3122 666 
L 3122 134 
Q 2881 22 2623 -34 
Q 2366 -91 2075 -91 
Q 1284 -91 818 406 
Q 353 903 353 1747 
Q 353 2603 823 3093 
Q 1294 3584 2113 3584 
Q 2378 3584 2631 3529 
Q 2884 3475 3122 3366 
z
" transform="scale(0.015625)"/>
       <path id="DejaVuSans-68" d="M 3513 2113 
L 3513 0 
L 2938 0 
L 2938 2094 
Q 2938 2591 2744 2837 
Q 2550 3084 2163 3084 
Q 1697 3084 1428 2787 
Q 1159 2491 1159 1978 
L 1159 0 
L 581 0 
L 581 4863 
L 1159 4863 
L 1159 2956 
Q 1366 3272 1645 3428 
Q 1925 3584 2291 3584 
Q 2894 3584 3203 3211 
Q 3513 2838 3513 2113 
z
" transform="scale(0.015625)"/>
      </defs>
      <use xlink:href="#DejaVuSans-45"/>
      <use xlink:href="#DejaVuSans-70" transform="translate(63.183594 0)"/>
      <use xlink:href="#DejaVuSans-6f" transform="translate(126.660156 0)"/>
      <use xlink:href="#DejaVuSans-63" transform="translate(187.841797 0)"/>
      <use xlink:href="#DejaVuSans-68" transform="translate(242.822266 0)"/>
     </g>
    </g>
   </g>
   <g id="matplotlib.axis_2">
    <g id="ytick_1">
     <g id="line2d_17">
      <path d="M 43.78125 306.495907 
L 458.66125 306.495907 
" clip-path="url(#pc20917ab4d)" style="fill: none; stroke: #b0b0b0; stroke-opacity: 0.3; stroke-width: 0.8; stroke-linecap: square"/>
     </g>
     <g id="line2d_18">
      <defs>
       <path id="m9445e480f7" d="M 0 0 
L -3.5 0 
" style="stroke: #000000; stroke-width: 0.8"/>
      </defs>
      <g>
       <use xlink:href="#m9445e480f7" x="43.78125" y="306.495907" style="stroke: #000000; stroke-width: 0.8"/>
      </g>
     </g>
     <g id="text_10">
      <!-- 0.0 -->
      <g transform="translate(20.878125 310.295126) scale(0.1 -0.1)">
       <defs>
        <path id="DejaVuSans-2e" d="M 684 794 
L 1344 794 
L 1344 0 
L 684 0 
L 684 794 
z
" transform="scale(0.015625)"/>
       </defs>
       <use xlink:href="#DejaVuSans-30"/>
       <use xlink:href="#DejaVuSans-2e" transform="translate(63.623047 0)"/>
       <use xlink:href="#DejaVuSans-30" transform="translate(95.410156 0)"/>
      </g>
     </g>
    </g>
    <g id="ytick_2">
     <g id="line2d_19">
      <path d="M 43.78125 262.892157 
L 458.66125 262.892157 
" clip-path="url(#pc20917ab4d)" style="fill: none; stroke: #b0b0b0; stroke-opacity: 0.3; stroke-width: 0.8; stroke-linecap: square"/>
     </g>
     <g id="line2d_20">
      <g>
       <use xlink:href="#m9445e480f7" x="43.78125" y="262.892157" style="stroke: #000000; stroke-width: 0.8"/>
      </g>
     </g>
     <g id="text_11">
      <!-- 0.1 -->
      <g transform="translate(20.878125 266.691375) scale(0.1 -0.1)">
       <use xlink:href="#DejaVuSans-30"/>
       <use xlink:href="#DejaVuSans-2e" transform="translate(63.623047 0)"/>
       <use xlink:href="#DejaVuSans-31" transform="translate(95.410156 0)"/>
      </g>
     </g>
    </g>
    <g id="ytick_3">
     <g id="line2d_21">
      <path d="M 43.78125 219.288406 
L 458.66125 219.288406 
" clip-path="url(#pc20917ab4d)" style="fill: none; stroke: #b0b0b0; stroke-opacity: 0.3; stroke-width: 0.8; stroke-linecap: square"/>
     </g>
     <g id="line2d_22">
      <g>
       <use xlink:href="#m9445e480f7" x="43.78125" y="219.288406" style="stroke: #000000; stroke-width: 0.8"/>
      </g>
     </g>
     <g id="text_12">
      <!-- 0.2 -->
      <g transform="translate(20.878125 223.087625) scale(0.1 -0.1)">
       <use xlink:href="#DejaVuSans-30"/>
       <use xlink:href="#DejaVuSans-2e" transform="translate(63.623047 0)"/>
       <use xlink:href="#DejaVuSans-32" transform="translate(95.410156 0)"/>
      </g>
     </g>
    </g>
    <g id="ytick_4">
     <g id="line2d_23">
      <path d="M 43.78125 175.684656 
L 458.66125 175.684656 
" clip-path="url(#pc20917ab4d)" style="fill: none; stroke: #b0b0b0; stroke-opacity: 0.3; stroke-width: 0.8; stroke-linecap: square"/>
     </g>
     <g id="line2d_24">
      <g>
       <use xlink:href="#m9445e480f7" x="43.78125" y="175.684656" style="stroke: #000000; stroke-width: 0.8"/>
      </g>
     </g>
     <g id="text_13">
      <!-- 0.3 -->
      <g transform="translate(20.878125 179.483874) scale(0.1 -0.1)">
       <defs>
        <path id="DejaVuSans-33" d="M 2597 2516 
Q 3050 2419 3304 2112 
Q 3559 1806 3559 1356 
Q 3559 666 3084 287 
Q 2609 -91 1734 -91 
Q 1441 -91 1130 -33 
Q 819 25 488 141 
L 488 750 
Q 750 597 1062 519 
Q 1375 441 1716 441 
Q 2309 441 2620 675 
Q 2931 909 2931 1356 
Q 2931 1769 2642 2001 
Q 2353 2234 1838 2234 
L 1294 2234 
L 1294 2753 
L 1863 2753 
Q 2328 2753 2575 2939 
Q 2822 3125 2822 3475 
Q 2822 3834 2567 4026 
Q 2313 4219 1838 4219 
Q 1578 4219 1281 4162 
Q 984 4106 628 3988 
L 628 4550 
Q 988 4650 1302 4700 
Q 1616 4750 1894 4750 
Q 2613 4750 3031 4423 
Q 3450 4097 3450 3541 
Q 3450 3153 3228 2886 
Q 3006 2619 2597 2516 
z
" transform="scale(0.015625)"/>
       </defs>
       <use xlink:href="#DejaVuSans-30"/>
       <use xlink:href="#DejaVuSans-2e" transform="translate(63.623047 0)"/>
       <use xlink:href="#DejaVuSans-33" transform="translate(95.410156 0)"/>
      </g>
     </g>
    </g>
    <g id="ytick_5">
     <g id="line2d_25">
      <path d="M 43.78125 132.080905 
L 458.66125 132.080905 
" clip-path="url(#pc20917ab4d)" style="fill: none; stroke: #b0b0b0; stroke-opacity: 0.3; stroke-width: 0.8; stroke-linecap: square"/>
     </g>
     <g id="line2d_26">
      <g>
       <use xlink:href="#m9445e480f7" x="43.78125" y="132.080905" style="stroke: #000000; stroke-width: 0.8"/>
      </g>
     </g>
     <g id="text_14">
      <!-- 0.4 -->
      <g transform="translate(20.878125 135.880124) scale(0.1 -0.1)">
       <use xlink:href="#DejaVuSans-30"/>
       <use xlink:href="#DejaVuSans-2e" transform="translate(63.623047 0)"/>
       <use xlink:href="#DejaVuSans-34" transform="translate(95.410156 0)"/>
      </g>
     </g>
    </g>
    <g id="ytick_6">
     <g id="line2d_27">
      <path d="M 43.78125 88.477155 
L 458.66125 88.477155 
" clip-path="url(#pc20917ab4d)" style="fill: none; stroke: #b0b0b0; stroke-opacity: 0.3; stroke-width: 0.8; stroke-linecap: square"/>
     </g>
     <g id="line2d_28">
      <g>
       <use xlink:href="#m9445e480f7" x="43.78125" y="88.477155" style="stroke: #000000; stroke-width: 0.8"/>
      </g>
     </g>
     <g id="text_15">
      <!-- 0.5 -->
      <g transform="translate(20.878125 92.276373) scale(0.1 -0.1)">
       <defs>
        <path id="DejaVuSans-35" d="M 691 4666 
L 3169 4666 
L 3169 4134 
L 1269 4134 
L 1269 2991 
Q 1406 3038 1543 3061 
Q 1681 3084 1819 3084 
Q 2600 3084 3056 2656 
Q 3513 2228 3513 1497 
Q 3513 744 3044 326 
Q 2575 -91 1722 -91 
Q 1428 -91 1123 -41 
Q 819 9 494 109 
L 494 744 
Q 775 591 1075 516 
Q 1375 441 1709 441 
Q 2250 441 2565 725 
Q 2881 1009 2881 1497 
Q 2881 1984 2565 2268 
Q 2250 2553 1709 2553 
Q 1456 2553 1204 2497 
Q 953 2441 691 2322 
L 691 4666 
z
" transform="scale(0.015625)"/>
       </defs>
       <use xlink:href="#DejaVuSans-30"/>
       <use xlink:href="#DejaVuSans-2e" transform="translate(63.623047 0)"/>
       <use xlink:href="#DejaVuSans-35" transform="translate(95.410156 0)"/>
      </g>
     </g>
    </g>
    <g id="text_16">
     <!-- Loss -->
     <g transform="translate(14.798438 195.307187) rotate(-90) scale(0.1 -0.1)">
      <defs>
       <path id="DejaVuSans-4c" d="M 628 4666 
L 1259 4666 
L 1259 531 
L 3531 531 
L 3531 0 
L 628 0 
L 628 4666 
z
" transform="scale(0.015625)"/>
       <path id="DejaVuSans-73" d="M 2834 3397 
L 2834 2853 
Q 2591 2978 2328 3040 
Q 2066 3103 1784 3103 
Q 1356 3103 1142 2972 
Q 928 2841 928 2578 
Q 928 2378 1081 2264 
Q 1234 2150 1697 2047 
L 1894 2003 
Q 2506 1872 2764 1633 
Q 3022 1394 3022 966 
Q 3022 478 2636 193 
Q 2250 -91 1575 -91 
Q 1294 -91 989 -36 
Q 684 19 347 128 
L 347 722 
Q 666 556 975 473 
Q 1284 391 1588 391 
Q 1994 391 2212 530 
Q 2431 669 2431 922 
Q 2431 1156 2273 1281 
Q 2116 1406 1581 1522 
L 1381 1569 
Q 847 1681 609 1914 
Q 372 2147 372 2553 
Q 372 3047 722 3315 
Q 1072 3584 1716 3584 
Q 2034 3584 2315 3537 
Q 2597 3491 2834 3397 
z
" transform="scale(0.015625)"/>
      </defs>
      <use xlink:href="#DejaVuSans-4c"/>
      <use xlink:href="#DejaVuSans-6f" transform="translate(53.962891 0)"/>
      <use xlink:href="#DejaVuSans-73" transform="translate(115.144531 0)"/>
      <use xlink:href="#DejaVuSans-73" transform="translate(167.244141 0)"/>
     </g>
    </g>
   </g>
   <g id="line2d_29">
    <path d="M 62.639432 62.794545 
L 65.170731 151.7898 
L 67.702031 167.443547 
L 70.233331 174.202128 
L 72.76463 156.935043 
L 75.29593 212.835051 
L 77.827229 222.602291 
L 80.358529 212.224598 
L 82.889828 187.675687 
L 85.421128 206.381696 
L 87.952428 201.672491 
L 90.483727 215.625691 
L 93.015027 194.347061 
L 98.077626 218.067501 
L 100.608925 229.840514 
L 103.140225 210.654863 
L 105.671525 245.189034 
L 108.202824 225.436535 
L 110.734124 235.247379 
L 113.265423 249.462201 
L 115.796723 219.855255 
L 118.328022 235.770624 
L 120.859322 278.022658 
L 123.390622 237.994415 
L 128.453221 247.020391 
L 130.98452 253.081313 
L 133.51582 269.432719 
L 136.047119 219.811651 
L 138.578419 251.816804 
L 141.109719 260.406743 
L 143.641018 234.375304 
L 146.172318 250.203465 
L 148.703617 286.874219 
L 151.234917 244.273355 
L 153.766216 259.665479 
L 156.297516 270.26119 
L 158.828816 267.732173 
L 161.360115 269.476323 
L 163.891415 281.423751 
L 166.422714 259.970705 
L 168.954014 255.435915 
L 171.485313 302.745985 
L 174.016613 303.138418 
L 176.547913 227.180685 
L 179.079212 270.043172 
L 181.610512 252.034823 
L 184.141811 261.584044 
L 186.673111 276.496527 
L 189.20441 219.070387 
L 191.73571 242.485601 
L 194.26701 258.924215 
L 196.798309 285.173673 
L 199.329609 291.103783 
L 201.860908 296.379837 
L 204.392208 278.327884 
L 206.923507 277.499413 
L 209.454807 254.694651 
L 211.986107 292.847933 
L 214.517406 247.630844 
L 217.048706 281.641769 
L 219.580005 262.848553 
L 222.111305 271.30768 
L 224.642604 211.65775 
L 227.173904 280.02843 
L 229.705204 280.900506 
L 232.236503 258.313763 
L 234.767803 271.525699 
L 237.299102 277.324998 
L 239.830402 294.766498 
L 242.361701 275.798867 
L 244.893001 276.758149 
L 247.424301 295.638573 
L 249.9556 278.851129 
L 252.4869 287.528276 
L 255.018199 279.025544 
L 257.549499 294.679291 
L 260.080799 288.618369 
L 262.612098 287.441068 
L 265.143398 288.879992 
L 267.674697 258.793404 
L 270.205997 305.885455 
L 272.737296 263.764232 
L 275.268596 294.286857 
L 277.799896 294.068838 
L 280.331195 247.369221 
L 282.862495 291.627028 
L 285.393794 296.859478 
L 287.925094 278.98194 
L 290.456393 272.572189 
L 292.987693 300.042552 
L 295.518993 239.607754 
L 298.050292 278.938337 
L 300.581592 302.135532 
L 303.112891 281.380147 
L 305.644191 253.342935 
L 308.17549 260.668365 
L 310.70679 256.046368 
L 313.23809 266.467664 
L 315.769389 278.938337 
L 318.300689 266.336853 
L 320.831988 250.116258 
L 323.363288 255.697538 
L 325.894587 288.661973 
L 328.425887 297.382723 
L 330.957187 187.021631 
L 333.488486 283.473127 
L 336.019786 277.368602 
L 338.551085 260.188724 
L 341.082385 281.554562 
L 343.613684 274.752377 
L 346.144984 281.946996 
L 348.676284 265.639193 
L 351.207583 297.251912 
L 353.738883 272.703 
L 356.270182 267.906588 
L 358.801482 281.074921 
L 361.332781 285.173673 
L 363.864081 286.045748 
L 366.395381 298.952458 
L 368.92668 299.432099 
L 371.45798 296.423441 
L 373.989279 288.182332 
L 376.520579 253.953388 
L 379.051878 290.275312 
L 381.583178 288.531162 
L 384.114478 246.627958 
L 386.645777 261.584044 
L 389.177077 282.034203 
L 391.708376 301.437872 
L 394.239676 292.324688 
L 396.770975 284.301598 
L 399.302275 279.592393 
L 401.833575 269.868757 
L 404.364874 258.575385 
L 406.896174 217.369841 
L 409.427473 262.58693 
L 411.958773 263.63342 
L 414.490072 285.348088 
L 417.021372 290.667746 
L 419.552672 284.955654 
L 422.083971 304.969776 
L 424.615271 287.441068 
L 427.14657 266.77289 
L 429.67787 277.673828 
L 432.209169 255.828349 
L 434.740469 253.037709 
L 437.271769 233.764851 
L 439.803068 285.217277 
L 439.803068 285.217277 
" clip-path="url(#pc20917ab4d)" style="fill: none; stroke: #4682b4; stroke-opacity: 0.7; stroke-linecap: square"/>
   </g>
   <g id="line2d_30">
    <path d="M 72.76463 142.633013 
L 75.29593 172.641114 
L 77.827229 186.803612 
L 80.358529 195.759822 
L 82.889828 198.454534 
L 85.421128 208.343865 
L 87.952428 206.111353 
L 90.483727 204.716033 
L 93.015027 201.140525 
L 95.546326 204.890448 
L 98.077626 207.227609 
L 100.608925 212.861213 
L 103.140225 211.867048 
L 105.671525 222.035442 
L 108.202824 225.837689 
L 110.734124 229.273665 
L 113.265423 233.198002 
L 115.796723 235.038081 
L 118.328022 233.154399 
L 120.859322 243.671623 
L 123.390622 244.221031 
L 125.921921 242.81699 
L 128.453221 248.250017 
L 130.98452 251.712155 
L 133.51582 249.994167 
L 136.047119 246.357614 
L 138.578419 248.232576 
L 141.109719 250.909846 
L 146.172318 243.322793 
L 148.703617 256.735307 
L 151.234917 255.226617 
L 153.766216 255.078364 
L 156.297516 262.255542 
L 158.828816 265.761283 
L 161.360115 262.281704 
L 163.891415 269.711783 
L 166.422714 269.772828 
L 168.954014 266.807773 
L 174.016613 280.542955 
L 176.547913 269.694342 
L 179.079212 271.708835 
L 181.610512 271.028616 
L 184.141811 262.796228 
L 186.673111 257.46785 
L 189.20441 255.84579 
L 191.73571 250.334276 
L 194.26701 251.712155 
L 196.798309 256.430081 
L 199.329609 259.351532 
L 201.860908 274.813422 
L 204.392208 281.981879 
L 206.923507 285.696918 
L 209.454807 279.601114 
L 211.986107 279.949944 
L 214.517406 270.200145 
L 217.048706 270.862922 
L 219.580005 267.93275 
L 222.111305 271.255356 
L 224.642604 255.017319 
L 227.173904 261.496837 
L 229.705204 261.348584 
L 232.236503 260.441626 
L 234.767803 260.48523 
L 237.299102 273.618679 
L 239.830402 276.566293 
L 242.361701 275.545965 
L 244.893001 279.234842 
L 247.424301 284.057417 
L 249.9556 284.362643 
L 252.4869 282.914999 
L 255.018199 283.560334 
L 257.549499 287.144563 
L 260.080799 285.740522 
L 262.612098 287.45851 
L 265.143398 287.728853 
L 267.674697 283.682425 
L 270.205997 285.923658 
L 272.737296 280.95283 
L 275.268596 282.321988 
L 277.799896 283.359757 
L 280.331195 281.074921 
L 282.862495 278.223235 
L 285.393794 284.842285 
L 287.925094 281.781301 
L 290.456393 277.481971 
L 292.987693 288.016638 
L 295.518993 277.612783 
L 298.050292 274.028554 
L 300.581592 278.659273 
L 303.112891 280.420864 
L 305.644191 271.080941 
L 308.17549 275.293063 
L 310.70679 270.714669 
L 313.23809 263.581096 
L 315.769389 263.092734 
L 318.300689 265.691517 
L 320.831988 263.581096 
L 323.363288 263.51133 
L 325.894587 267.950192 
L 328.425887 271.639069 
L 330.957187 255.776024 
L 333.488486 262.447398 
L 336.019786 266.781611 
L 338.551085 261.086961 
L 341.082385 257.921329 
L 343.613684 275.467478 
L 346.144984 275.162252 
L 348.676284 272.81637 
L 351.207583 280.229008 
L 353.738883 278.458695 
L 356.270182 277.089538 
L 358.801482 276.915123 
L 361.332781 280.822019 
L 363.864081 278.580786 
L 366.395381 283.830678 
L 368.92668 290.13578 
L 371.45798 293.205484 
L 373.989279 293.807216 
L 376.520579 287.388744 
L 379.051878 285.653314 
L 381.583178 283.473127 
L 384.114478 273.51403 
L 386.645777 268.194373 
L 389.177077 273.810536 
L 391.708376 276.043048 
L 394.239676 276.801753 
L 396.770975 284.336481 
L 399.302275 287.938151 
L 401.833575 285.505062 
L 404.364874 276.932564 
L 406.896174 261.941595 
L 409.427473 257.598661 
L 411.958773 254.406867 
L 414.490072 257.502733 
L 417.021372 263.921205 
L 419.552672 277.438368 
L 422.083971 285.914937 
L 424.615271 290.676466 
L 427.14657 286.961427 
L 429.67787 284.362643 
L 432.209169 278.537182 
L 437.271769 257.415525 
L 439.803068 261.104403 
L 439.803068 261.104403 
" clip-path="url(#pc20917ab4d)" style="fill: none; stroke: #000080; stroke-width: 2; stroke-linecap: square"/>
   </g>
   <g id="patch_3">
    <path d="M 43.78125 318.04 
L 43.78125 50.64 
" style="fill: none; stroke: #000000; stroke-width: 0.8; stroke-linejoin: miter; stroke-linecap: square"/>
   </g>
   <g id="patch_4">
    <path d="M 458.66125 318.04 
L 458.66125 50.64 
" style="fill: none; stroke: #000000; stroke-width: 0.8; stroke-linejoin: miter; stroke-linecap: square"/>
   </g>
   <g id="patch_5">
    <path d="M 43.78125 318.04 
L 458.66125 318.04 
" style="fill: none; stroke: #000000; stroke-width: 0.8; stroke-linejoin: miter; stroke-linecap: square"/>
   </g>
   <g id="patch_6">
    <path d="M 43.78125 50.64 
L 458.66125 50.64 
" style="fill: none; stroke: #000000; stroke-width: 0.8; stroke-linejoin: miter; stroke-linecap: square"/>
   </g>
   <g id="text_17">
    <!-- Training Loss -->
    <g transform="translate(212.482813 44.64) scale(0.12 -0.12)">
     <defs>
      <path id="DejaVuSans-54" d="M -19 4666 
L 3928 4666 
L 3928 4134 
L 2272 4134 
L 2272 0 
L 1638 0 
L 1638 4134 
L -19 4134 
L -19 4666 
z
" transform="scale(0.015625)"/>
      <path id="DejaVuSans-72" d="M 2631 2963 
Q 2534 3019 2420 3045 
Q 2306 3072 2169 3072 
Q 1681 3072 1420 2755 
Q 1159 2438 1159 1844 
L 1159 0 
L 581 0 
L 581 3500 
L 1159 3500 
L 1159 2956 
Q 1341 3275 1631 3429 
Q 1922 3584 2338 3584 
Q 2397 3584 2469 3576 
Q 2541 3569 2628 3553 
L 2631 2963 
z
" transform="scale(0.015625)"/>
      <path id="DejaVuSans-61" d="M 2194 1759 
Q 1497 1759 1228 1600 
Q 959 1441 959 1056 
Q 959 750 1161 570 
Q 1363 391 1709 391 
Q 2188 391 2477 730 
Q 2766 1069 2766 1631 
L 2766 1759 
L 2194 1759 
z
M 3341 1997 
L 3341 0 
L 2766 0 
L 2766 531 
Q 2569 213 2275 61 
Q 1981 -91 1556 -91 
Q 1019 -91 701 211 
Q 384 513 384 1019 
Q 384 1609 779 1909 
Q 1175 2209 1959 2209 
L 2766 2209 
L 2766 2266 
Q 2766 2663 2505 2880 
Q 2244 3097 1772 3097 
Q 1472 3097 1187 3025 
Q 903 2953 641 2809 
L 641 3341 
Q 956 3463 1253 3523 
Q 1550 3584 1831 3584 
Q 2591 3584 2966 3190 
Q 3341 2797 3341 1997 
z
" transform="scale(0.015625)"/>
      <path id="DejaVuSans-69" d="M 603 3500 
L 1178 3500 
L 1178 0 
L 603 0 
L 603 3500 
z
M 603 4863 
L 1178 4863 
L 1178 4134 
L 603 4134 
L 603 4863 
z
" transform="scale(0.015625)"/>
      <path id="DejaVuSans-6e" d="M 3513 2113 
L 3513 0 
L 2938 0 
L 2938 2094 
Q 2938 2591 2744 2837 
Q 2550 3084 2163 3084 
Q 1697 3084 1428 2787 
Q 1159 2491 1159 1978 
L 1159 0 
L 581 0 
L 581 3500 
L 1159 3500 
L 1159 2956 
Q 1366 3272 1645 3428 
Q 1925 3584 2291 3584 
Q 2894 3584 3203 3211 
Q 3513 2838 3513 2113 
z
" transform="scale(0.015625)"/>
      <path id="DejaVuSans-67" d="M 2906 1791 
Q 2906 2416 2648 2759 
Q 2391 3103 1925 3103 
Q 1463 3103 1205 2759 
Q 947 2416 947 1791 
Q 947 1169 1205 825 
Q 1463 481 1925 481 
Q 2391 481 2648 825 
Q 2906 1169 2906 1791 
z
M 3481 434 
Q 3481 -459 3084 -895 
Q 2688 -1331 1869 -1331 
Q 1566 -1331 1297 -1286 
Q 1028 -1241 775 -1147 
L 775 -588 
Q 1028 -725 1275 -790 
Q 1522 -856 1778 -856 
Q 2344 -856 2625 -561 
Q 2906 -266 2906 331 
L 2906 616 
Q 2728 306 2450 153 
Q 2172 0 1784 0 
Q 1141 0 747 490 
Q 353 981 353 1791 
Q 353 2603 747 3093 
Q 1141 3584 1784 3584 
Q 2172 3584 2450 3431 
Q 2728 3278 2906 2969 
L 2906 3500 
L 3481 3500 
L 3481 434 
z
" transform="scale(0.015625)"/>
      <path id="DejaVuSans-20" transform="scale(0.015625)"/>
     </defs>
     <use xlink:href="#DejaVuSans-54"/>
     <use xlink:href="#DejaVuSans-72" transform="translate(46.333984 0)"/>
     <use xlink:href="#DejaVuSans-61" transform="translate(87.447266 0)"/>
     <use xlink:href="#DejaVuSans-69" transform="translate(148.726562 0)"/>
     <use xlink:href="#DejaVuSans-6e" transform="translate(176.509766 0)"/>
     <use xlink:href="#DejaVuSans-69" transform="translate(239.888672 0)"/>
     <use xlink:href="#DejaVuSans-6e" transform="translate(267.671875 0)"/>
     <use xlink:href="#DejaVuSans-67" transform="translate(331.050781 0)"/>
     <use xlink:href="#DejaVuSans-20" transform="translate(394.527344 0)"/>
     <use xlink:href="#DejaVuSans-4c" transform="translate(426.314453 0)"/>
     <use xlink:href="#DejaVuSans-6f" transform="translate(480.277344 0)"/>
     <use xlink:href="#DejaVuSans-73" transform="translate(541.458984 0)"/>
     <use xlink:href="#DejaVuSans-73" transform="translate(593.558594 0)"/>
    </g>
   </g>
   <g id="legend_1">
    <g id="patch_7">
     <path d="M 365.651875 87.99625 
L 451.66125 87.99625 
Q 453.66125 87.99625 453.66125 85.99625 
L 453.66125 57.64 
Q 453.66125 55.64 451.66125 55.64 
L 365.651875 55.64 
Q 363.651875 55.64 363.651875 57.64 
L 363.651875 85.99625 
Q 363.651875 87.99625 365.651875 87.99625 
z
" style="fill: #ffffff; opacity: 0.8; stroke: #cccccc; stroke-linejoin: miter"/>
    </g>
    <g id="line2d_31">
     <path d="M 367.651875 63.738437 
L 377.651875 63.738437 
L 387.651875 63.738437 
" style="fill: none; stroke: #4682b4; stroke-opacity: 0.7; stroke-linecap: square"/>
    </g>
    <g id="text_18">
     <!-- Train loss -->
     <g transform="translate(395.651875 67.238437) scale(0.1 -0.1)">
      <defs>
       <path id="DejaVuSans-6c" d="M 603 4863 
L 1178 4863 
L 1178 0 
L 603 0 
L 603 4863 
z
" transform="scale(0.015625)"/>
      </defs>
      <use xlink:href="#DejaVuSans-54"/>
      <use xlink:href="#DejaVuSans-72" transform="translate(46.333984 0)"/>
      <use xlink:href="#DejaVuSans-61" transform="translate(87.447266 0)"/>
      <use xlink:href="#DejaVuSans-69" transform="translate(148.726562 0)"/>
      <use xlink:href="#DejaVuSans-6e" transform="translate(176.509766 0)"/>
      <use xlink:href="#DejaVuSans-20" transform="translate(239.888672 0)"/>
      <use xlink:href="#DejaVuSans-6c" transform="translate(271.675781 0)"/>
      <use xlink:href="#DejaVuSans-6f" transform="translate(299.458984 0)"/>
      <use xlink:href="#DejaVuSans-73" transform="translate(360.640625 0)"/>
      <use xlink:href="#DejaVuSans-73" transform="translate(412.740234 0)"/>
     </g>
    </g>
    <g id="line2d_32">
     <path d="M 367.651875 78.416562 
L 377.651875 78.416562 
L 387.651875 78.416562 
" style="fill: none; stroke: #000080; stroke-width: 2; stroke-linecap: square"/>
    </g>
    <g id="text_19">
     <!-- 5-ep mean -->
     <g transform="translate(395.651875 81.916562) scale(0.1 -0.1)">
      <defs>
       <path id="DejaVuSans-2d" d="M 313 2009 
L 1997 2009 
L 1997 1497 
L 313 1497 
L 313 2009 
z
" transform="scale(0.015625)"/>
       <path id="DejaVuSans-65" d="M 3597 1894 
L 3597 1613 
L 953 1613 
Q 991 1019 1311 708 
Q 1631 397 2203 397 
Q 2534 397 2845 478 
Q 3156 559 3463 722 
L 3463 178 
Q 3153 47 2828 -22 
Q 2503 -91 2169 -91 
Q 1331 -91 842 396 
Q 353 884 353 1716 
Q 353 2575 817 3079 
Q 1281 3584 2069 3584 
Q 2775 3584 3186 3129 
Q 3597 2675 3597 1894 
z
M 3022 2063 
Q 3016 2534 2758 2815 
Q 2500 3097 2075 3097 
Q 1594 3097 1305 2825 
Q 1016 2553 972 2059 
L 3022 2063 
z
" transform="scale(0.015625)"/>
       <path id="DejaVuSans-6d" d="M 3328 2828 
Q 3544 3216 3844 3400 
Q 4144 3584 4550 3584 
Q 5097 3584 5394 3201 
Q 5691 2819 5691 2113 
L 5691 0 
L 5113 0 
L 5113 2094 
Q 5113 2597 4934 2840 
Q 4756 3084 4391 3084 
Q 3944 3084 3684 2787 
Q 3425 2491 3425 1978 
L 3425 0 
L 2847 0 
L 2847 2094 
Q 2847 2600 2669 2842 
Q 2491 3084 2119 3084 
Q 1678 3084 1418 2786 
Q 1159 2488 1159 1978 
L 1159 0 
L 581 0 
L 581 3500 
L 1159 3500 
L 1159 2956 
Q 1356 3278 1631 3431 
Q 1906 3584 2284 3584 
Q 2666 3584 2933 3390 
Q 3200 3197 3328 2828 
z
" transform="scale(0.015625)"/>
      </defs>
      <use xlink:href="#DejaVuSans-35"/>
      <use xlink:href="#DejaVuSans-2d" transform="translate(63.623047 0)"/>
      <use xlink:href="#DejaVuSans-65" transform="translate(99.707031 0)"/>
      <use xlink:href="#DejaVuSans-70" transform="translate(161.230469 0)"/>
      <use xlink:href="#DejaVuSans-20" transform="translate(224.707031 0)"/>
      <use xlink:href="#DejaVuSans-6d" transform="translate(256.494141 0)"/>
      <use xlink:href="#DejaVuSans-65" transform="translate(353.90625 0)"/>
      <use xlink:href="#DejaVuSans-61" transform="translate(415.429688 0)"/>
      <use xlink:href="#DejaVuSans-6e" transform="translate(476.708984 0)"/>
     </g>
    </g>
   </g>
  </g>
  <g id="axes_2">
   <g id="patch_8">
    <path d="M 506.38125 318.04 
L 921.26125 318.04 
L 921.26125 50.64 
L 506.38125 50.64 
z
" style="fill: #ffffff"/>
   </g>
   <g id="matplotlib.axis_3">
    <g id="xtick_9">
     <g id="line2d_33">
      <path d="M 522.708132 318.04 
L 522.708132 50.64 
" clip-path="url(#pf1b929ba1c)" style="fill: none; stroke: #b0b0b0; stroke-opacity: 0.3; stroke-width: 0.8; stroke-linecap: square"/>
     </g>
     <g id="line2d_34">
      <g>
       <use xlink:href="#macdddcf290" x="522.708132" y="318.04" style="stroke: #000000; stroke-width: 0.8"/>
      </g>
     </g>
     <g id="text_20">
      <!-- 0 -->
      <g transform="translate(519.526882 332.638437) scale(0.1 -0.1)">
       <use xlink:href="#DejaVuSans-30"/>
      </g>
     </g>
    </g>
    <g id="xtick_10">
     <g id="line2d_35">
      <path d="M 573.334124 318.04 
L 573.334124 50.64 
" clip-path="url(#pf1b929ba1c)" style="fill: none; stroke: #b0b0b0; stroke-opacity: 0.3; stroke-width: 0.8; stroke-linecap: square"/>
     </g>
     <g id="line2d_36">
      <g>
       <use xlink:href="#macdddcf290" x="573.334124" y="318.04" style="stroke: #000000; stroke-width: 0.8"/>
      </g>
     </g>
     <g id="text_21">
      <!-- 20 -->
      <g transform="translate(566.971624 332.638437) scale(0.1 -0.1)">
       <use xlink:href="#DejaVuSans-32"/>
       <use xlink:href="#DejaVuSans-30" transform="translate(63.623047 0)"/>
      </g>
     </g>
    </g>
    <g id="xtick_11">
     <g id="line2d_37">
      <path d="M 623.960115 318.04 
L 623.960115 50.64 
" clip-path="url(#pf1b929ba1c)" style="fill: none; stroke: #b0b0b0; stroke-opacity: 0.3; stroke-width: 0.8; stroke-linecap: square"/>
     </g>
     <g id="line2d_38">
      <g>
       <use xlink:href="#macdddcf290" x="623.960115" y="318.04" style="stroke: #000000; stroke-width: 0.8"/>
      </g>
     </g>
     <g id="text_22">
      <!-- 40 -->
      <g transform="translate(617.597615 332.638437) scale(0.1 -0.1)">
       <use xlink:href="#DejaVuSans-34"/>
       <use xlink:href="#DejaVuSans-30" transform="translate(63.623047 0)"/>
      </g>
     </g>
    </g>
    <g id="xtick_12">
     <g id="line2d_39">
      <path d="M 674.586107 318.04 
L 674.586107 50.64 
" clip-path="url(#pf1b929ba1c)" style="fill: none; stroke: #b0b0b0; stroke-opacity: 0.3; stroke-width: 0.8; stroke-linecap: square"/>
     </g>
     <g id="line2d_40">
      <g>
       <use xlink:href="#macdddcf290" x="674.586107" y="318.04" style="stroke: #000000; stroke-width: 0.8"/>
      </g>
     </g>
     <g id="text_23">
      <!-- 60 -->
      <g transform="translate(668.223607 332.638437) scale(0.1 -0.1)">
       <use xlink:href="#DejaVuSans-36"/>
       <use xlink:href="#DejaVuSans-30" transform="translate(63.623047 0)"/>
      </g>
     </g>
    </g>
    <g id="xtick_13">
     <g id="line2d_41">
      <path d="M 725.212098 318.04 
L 725.212098 50.64 
" clip-path="url(#pf1b929ba1c)" style="fill: none; stroke: #b0b0b0; stroke-opacity: 0.3; stroke-width: 0.8; stroke-linecap: square"/>
     </g>
     <g id="line2d_42">
      <g>
       <use xlink:href="#macdddcf290" x="725.212098" y="318.04" style="stroke: #000000; stroke-width: 0.8"/>
      </g>
     </g>
     <g id="text_24">
      <!-- 80 -->
      <g transform="translate(718.849598 332.638437) scale(0.1 -0.1)">
       <use xlink:href="#DejaVuSans-38"/>
       <use xlink:href="#DejaVuSans-30" transform="translate(63.623047 0)"/>
      </g>
     </g>
    </g>
    <g id="xtick_14">
     <g id="line2d_43">
      <path d="M 775.83809 318.04 
L 775.83809 50.64 
" clip-path="url(#pf1b929ba1c)" style="fill: none; stroke: #b0b0b0; stroke-opacity: 0.3; stroke-width: 0.8; stroke-linecap: square"/>
     </g>
     <g id="line2d_44">
      <g>
       <use xlink:href="#macdddcf290" x="775.83809" y="318.04" style="stroke: #000000; stroke-width: 0.8"/>
      </g>
     </g>
     <g id="text_25">
      <!-- 100 -->
      <g transform="translate(766.29434 332.638437) scale(0.1 -0.1)">
       <use xlink:href="#DejaVuSans-31"/>
       <use xlink:href="#DejaVuSans-30" transform="translate(63.623047 0)"/>
       <use xlink:href="#DejaVuSans-30" transform="translate(127.246094 0)"/>
      </g>
     </g>
    </g>
    <g id="xtick_15">
     <g id="line2d_45">
      <path d="M 826.464081 318.04 
L 826.464081 50.64 
" clip-path="url(#pf1b929ba1c)" style="fill: none; stroke: #b0b0b0; stroke-opacity: 0.3; stroke-width: 0.8; stroke-linecap: square"/>
     </g>
     <g id="line2d_46">
      <g>
       <use xlink:href="#macdddcf290" x="826.464081" y="318.04" style="stroke: #000000; stroke-width: 0.8"/>
      </g>
     </g>
     <g id="text_26">
      <!-- 120 -->
      <g transform="translate(816.920331 332.638437) scale(0.1 -0.1)">
       <use xlink:href="#DejaVuSans-31"/>
       <use xlink:href="#DejaVuSans-32" transform="translate(63.623047 0)"/>
       <use xlink:href="#DejaVuSans-30" transform="translate(127.246094 0)"/>
      </g>
     </g>
    </g>
    <g id="xtick_16">
     <g id="line2d_47">
      <path d="M 877.090072 318.04 
L 877.090072 50.64 
" clip-path="url(#pf1b929ba1c)" style="fill: none; stroke: #b0b0b0; stroke-opacity: 0.3; stroke-width: 0.8; stroke-linecap: square"/>
     </g>
     <g id="line2d_48">
      <g>
       <use xlink:href="#macdddcf290" x="877.090072" y="318.04" style="stroke: #000000; stroke-width: 0.8"/>
      </g>
     </g>
     <g id="text_27">
      <!-- 140 -->
      <g transform="translate(867.546322 332.638437) scale(0.1 -0.1)">
       <use xlink:href="#DejaVuSans-31"/>
       <use xlink:href="#DejaVuSans-34" transform="translate(63.623047 0)"/>
       <use xlink:href="#DejaVuSans-30" transform="translate(127.246094 0)"/>
      </g>
     </g>
    </g>
    <g id="text_28">
     <!-- Epoch -->
     <g transform="translate(698.510313 346.316562) scale(0.1 -0.1)">
      <use xlink:href="#DejaVuSans-45"/>
      <use xlink:href="#DejaVuSans-70" transform="translate(63.183594 0)"/>
      <use xlink:href="#DejaVuSans-6f" transform="translate(126.660156 0)"/>
      <use xlink:href="#DejaVuSans-63" transform="translate(187.841797 0)"/>
      <use xlink:href="#DejaVuSans-68" transform="translate(242.822266 0)"/>
     </g>
    </g>
   </g>
   <g id="matplotlib.axis_4">
    <g id="ytick_7">
     <g id="line2d_49">
      <path d="M 506.38125 318.04 
L 921.26125 318.04 
" clip-path="url(#pf1b929ba1c)" style="fill: none; stroke: #b0b0b0; stroke-opacity: 0.3; stroke-width: 0.8; stroke-linecap: square"/>
     </g>
     <g id="line2d_50">
      <g>
       <use xlink:href="#m9445e480f7" x="506.38125" y="318.04" style="stroke: #000000; stroke-width: 0.8"/>
      </g>
     </g>
     <g id="text_29">
      <!-- 0.5 -->
      <g transform="translate(483.478125 321.839219) scale(0.1 -0.1)">
       <use xlink:href="#DejaVuSans-30"/>
       <use xlink:href="#DejaVuSans-2e" transform="translate(63.623047 0)"/>
       <use xlink:href="#DejaVuSans-35" transform="translate(95.410156 0)"/>
      </g>
     </g>
    </g>
    <g id="ytick_8">
     <g id="line2d_51">
      <path d="M 506.38125 264.56 
L 921.26125 264.56 
" clip-path="url(#pf1b929ba1c)" style="fill: none; stroke: #b0b0b0; stroke-opacity: 0.3; stroke-width: 0.8; stroke-linecap: square"/>
     </g>
     <g id="line2d_52">
      <g>
       <use xlink:href="#m9445e480f7" x="506.38125" y="264.56" style="stroke: #000000; stroke-width: 0.8"/>
      </g>
     </g>
     <g id="text_30">
      <!-- 0.6 -->
      <g transform="translate(483.478125 268.359219) scale(0.1 -0.1)">
       <use xlink:href="#DejaVuSans-30"/>
       <use xlink:href="#DejaVuSans-2e" transform="translate(63.623047 0)"/>
       <use xlink:href="#DejaVuSans-36" transform="translate(95.410156 0)"/>
      </g>
     </g>
    </g>
    <g id="ytick_9">
     <g id="line2d_53">
      <path d="M 506.38125 211.08 
L 921.26125 211.08 
" clip-path="url(#pf1b929ba1c)" style="fill: none; stroke: #b0b0b0; stroke-opacity: 0.3; stroke-width: 0.8; stroke-linecap: square"/>
     </g>
     <g id="line2d_54">
      <g>
       <use xlink:href="#m9445e480f7" x="506.38125" y="211.08" style="stroke: #000000; stroke-width: 0.8"/>
      </g>
     </g>
     <g id="text_31">
      <!-- 0.7 -->
      <g transform="translate(483.478125 214.879219) scale(0.1 -0.1)">
       <defs>
        <path id="DejaVuSans-37" d="M 525 4666 
L 3525 4666 
L 3525 4397 
L 1831 0 
L 1172 0 
L 2766 4134 
L 525 4134 
L 525 4666 
z
" transform="scale(0.015625)"/>
       </defs>
       <use xlink:href="#DejaVuSans-30"/>
       <use xlink:href="#DejaVuSans-2e" transform="translate(63.623047 0)"/>
       <use xlink:href="#DejaVuSans-37" transform="translate(95.410156 0)"/>
      </g>
     </g>
    </g>
    <g id="ytick_10">
     <g id="line2d_55">
      <path d="M 506.38125 157.6 
L 921.26125 157.6 
" clip-path="url(#pf1b929ba1c)" style="fill: none; stroke: #b0b0b0; stroke-opacity: 0.3; stroke-width: 0.8; stroke-linecap: square"/>
     </g>
     <g id="line2d_56">
      <g>
       <use xlink:href="#m9445e480f7" x="506.38125" y="157.6" style="stroke: #000000; stroke-width: 0.8"/>
      </g>
     </g>
     <g id="text_32">
      <!-- 0.8 -->
      <g transform="translate(483.478125 161.399219) scale(0.1 -0.1)">
       <use xlink:href="#DejaVuSans-30"/>
       <use xlink:href="#DejaVuSans-2e" transform="translate(63.623047 0)"/>
       <use xlink:href="#DejaVuSans-38" transform="translate(95.410156 0)"/>
      </g>
     </g>
    </g>
    <g id="ytick_11">
     <g id="line2d_57">
      <path d="M 506.38125 104.12 
L 921.26125 104.12 
" clip-path="url(#pf1b929ba1c)" style="fill: none; stroke: #b0b0b0; stroke-opacity: 0.3; stroke-width: 0.8; stroke-linecap: square"/>
     </g>
     <g id="line2d_58">
      <g>
       <use xlink:href="#m9445e480f7" x="506.38125" y="104.12" style="stroke: #000000; stroke-width: 0.8"/>
      </g>
     </g>
     <g id="text_33">
      <!-- 0.9 -->
      <g transform="translate(483.478125 107.919219) scale(0.1 -0.1)">
       <defs>
        <path id="DejaVuSans-39" d="M 703 97 
L 703 672 
Q 941 559 1184 500 
Q 1428 441 1663 441 
Q 2288 441 2617 861 
Q 2947 1281 2994 2138 
Q 2813 1869 2534 1725 
Q 2256 1581 1919 1581 
Q 1219 1581 811 2004 
Q 403 2428 403 3163 
Q 403 3881 828 4315 
Q 1253 4750 1959 4750 
Q 2769 4750 3195 4129 
Q 3622 3509 3622 2328 
Q 3622 1225 3098 567 
Q 2575 -91 1691 -91 
Q 1453 -91 1209 -44 
Q 966 3 703 97 
z
M 1959 2075 
Q 2384 2075 2632 2365 
Q 2881 2656 2881 3163 
Q 2881 3666 2632 3958 
Q 2384 4250 1959 4250 
Q 1534 4250 1286 3958 
Q 1038 3666 1038 3163 
Q 1038 2656 1286 2365 
Q 1534 2075 1959 2075 
z
" transform="scale(0.015625)"/>
       </defs>
       <use xlink:href="#DejaVuSans-30"/>
       <use xlink:href="#DejaVuSans-2e" transform="translate(63.623047 0)"/>
       <use xlink:href="#DejaVuSans-39" transform="translate(95.410156 0)"/>
      </g>
     </g>
    </g>
    <g id="ytick_12">
     <g id="line2d_59">
      <path d="M 506.38125 50.64 
L 921.26125 50.64 
" clip-path="url(#pf1b929ba1c)" style="fill: none; stroke: #b0b0b0; stroke-opacity: 0.3; stroke-width: 0.8; stroke-linecap: square"/>
     </g>
     <g id="line2d_60">
      <g>
       <use xlink:href="#m9445e480f7" x="506.38125" y="50.64" style="stroke: #000000; stroke-width: 0.8"/>
      </g>
     </g>
     <g id="text_34">
      <!-- 1.0 -->
      <g transform="translate(483.478125 54.439219) scale(0.1 -0.1)">
       <use xlink:href="#DejaVuSans-31"/>
       <use xlink:href="#DejaVuSans-2e" transform="translate(63.623047 0)"/>
       <use xlink:href="#DejaVuSans-30" transform="translate(95.410156 0)"/>
      </g>
     </g>
    </g>
    <g id="text_35">
     <!-- AUC-ROC -->
     <g transform="translate(477.398438 207.616562) rotate(-90) scale(0.1 -0.1)">
      <defs>
       <path id="DejaVuSans-41" d="M 2188 4044 
L 1331 1722 
L 3047 1722 
L 2188 4044 
z
M 1831 4666 
L 2547 4666 
L 4325 0 
L 3669 0 
L 3244 1197 
L 1141 1197 
L 716 0 
L 50 0 
L 1831 4666 
z
" transform="scale(0.015625)"/>
       <path id="DejaVuSans-55" d="M 556 4666 
L 1191 4666 
L 1191 1831 
Q 1191 1081 1462 751 
Q 1734 422 2344 422 
Q 2950 422 3222 751 
Q 3494 1081 3494 1831 
L 3494 4666 
L 4128 4666 
L 4128 1753 
Q 4128 841 3676 375 
Q 3225 -91 2344 -91 
Q 1459 -91 1007 375 
Q 556 841 556 1753 
L 556 4666 
z
" transform="scale(0.015625)"/>
       <path id="DejaVuSans-43" d="M 4122 4306 
L 4122 3641 
Q 3803 3938 3442 4084 
Q 3081 4231 2675 4231 
Q 1875 4231 1450 3742 
Q 1025 3253 1025 2328 
Q 1025 1406 1450 917 
Q 1875 428 2675 428 
Q 3081 428 3442 575 
Q 3803 722 4122 1019 
L 4122 359 
Q 3791 134 3420 21 
Q 3050 -91 2638 -91 
Q 1578 -91 968 557 
Q 359 1206 359 2328 
Q 359 3453 968 4101 
Q 1578 4750 2638 4750 
Q 3056 4750 3426 4639 
Q 3797 4528 4122 4306 
z
" transform="scale(0.015625)"/>
       <path id="DejaVuSans-52" d="M 2841 2188 
Q 3044 2119 3236 1894 
Q 3428 1669 3622 1275 
L 4263 0 
L 3584 0 
L 2988 1197 
Q 2756 1666 2539 1819 
Q 2322 1972 1947 1972 
L 1259 1972 
L 1259 0 
L 628 0 
L 628 4666 
L 2053 4666 
Q 2853 4666 3247 4331 
Q 3641 3997 3641 3322 
Q 3641 2881 3436 2590 
Q 3231 2300 2841 2188 
z
M 1259 4147 
L 1259 2491 
L 2053 2491 
Q 2509 2491 2742 2702 
Q 2975 2913 2975 3322 
Q 2975 3731 2742 3939 
Q 2509 4147 2053 4147 
L 1259 4147 
z
" transform="scale(0.015625)"/>
       <path id="DejaVuSans-4f" d="M 2522 4238 
Q 1834 4238 1429 3725 
Q 1025 3213 1025 2328 
Q 1025 1447 1429 934 
Q 1834 422 2522 422 
Q 3209 422 3611 934 
Q 4013 1447 4013 2328 
Q 4013 3213 3611 3725 
Q 3209 4238 2522 4238 
z
M 2522 4750 
Q 3503 4750 4090 4092 
Q 4678 3434 4678 2328 
Q 4678 1225 4090 567 
Q 3503 -91 2522 -91 
Q 1538 -91 948 565 
Q 359 1222 359 2328 
Q 359 3434 948 4092 
Q 1538 4750 2522 4750 
z
" transform="scale(0.015625)"/>
      </defs>
      <use xlink:href="#DejaVuSans-41"/>
      <use xlink:href="#DejaVuSans-55" transform="translate(68.408203 0)"/>
      <use xlink:href="#DejaVuSans-43" transform="translate(141.601562 0)"/>
      <use xlink:href="#DejaVuSans-2d" transform="translate(211.425781 0)"/>
      <use xlink:href="#DejaVuSans-52" transform="translate(247.509766 0)"/>
      <use xlink:href="#DejaVuSans-4f" transform="translate(316.992188 0)"/>
      <use xlink:href="#DejaVuSans-43" transform="translate(395.703125 0)"/>
     </g>
    </g>
   </g>
   <g id="line2d_61">
    <path d="M 525.886843 356.59625 
L 527.770731 307.8788 
L 530.302031 251.67132 
L 532.833331 322.63928 
L 535.36463 211.98916 
L 537.89593 243.32844 
L 540.427229 224.93132 
L 542.958529 259.05156 
L 545.489828 257.17976 
L 548.021128 238.72916 
L 550.552428 236.91084 
L 553.083727 241.51012 
L 555.615027 261.77904 
L 558.146326 249.79952 
L 560.677626 258.08892 
L 563.208925 242.41928 
L 565.740225 294.99012 
L 568.271525 269.15928 
L 570.802824 248.89036 
L 573.334124 260.86988 
L 575.865423 266.37832 
L 578.396723 218.46024 
L 580.928022 292.20916 
L 583.459322 249.79952 
L 585.990622 290.39084 
L 588.521921 304.18868 
L 591.053221 276.53952 
L 593.58452 254.3988 
L 596.11582 260.86988 
L 598.647119 287.60988 
L 601.178419 285.79156 
L 603.709719 266.37832 
L 606.241018 281.1388 
L 608.772318 291.3 
L 611.303617 284.82892 
L 613.834917 275.63036 
L 616.366216 287.60988 
L 618.897516 275.63036 
L 621.428816 267.34096 
L 623.960115 266.37832 
L 626.491415 279.32048 
L 629.022714 294.99012 
L 631.554014 284.82892 
L 634.085313 290.39084 
L 636.616613 270.06844 
L 639.147913 265.46916 
L 641.679212 283.91976 
L 644.210512 306.06048 
L 646.741811 279.32048 
L 649.273111 287.60988 
L 651.80441 299.5894 
L 654.33571 283.0106 
L 656.86701 296.80844 
L 659.398309 295.89928 
L 661.929609 293.11832 
L 664.460908 277.44868 
L 666.992208 298.68024 
L 672.054807 293.11832 
L 674.586107 294.08096 
L 677.117406 288.51904 
L 679.648706 271.03108 
L 682.180005 284.82892 
L 684.711305 269.15928 
L 687.242604 281.1388 
L 689.773904 289.48168 
L 692.305204 292.20916 
L 694.836503 281.1388 
L 697.367803 287.60988 
L 699.899102 283.0106 
L 702.430402 282.10144 
L 704.961701 287.60988 
L 707.493001 278.41132 
L 710.024301 279.32048 
L 712.5556 269.15928 
L 715.0869 273.75856 
L 717.618199 280.22964 
L 720.149499 280.22964 
L 722.680799 269.15928 
L 725.212098 274.7212 
L 727.743398 275.63036 
L 730.274697 267.34096 
L 732.805997 278.41132 
L 735.337296 283.0106 
L 737.868596 274.7212 
L 740.399896 271.94024 
L 742.931195 267.34096 
L 745.462495 280.22964 
L 747.993794 277.44868 
L 750.525094 271.94024 
L 753.056393 281.1388 
L 755.587693 271.94024 
L 758.118993 284.82892 
L 763.181592 271.94024 
L 765.712891 271.94024 
L 768.244191 280.22964 
L 770.77549 271.03108 
L 773.30679 271.94024 
L 775.83809 266.37832 
L 778.369389 278.41132 
L 780.900689 288.51904 
L 783.431988 276.53952 
L 785.963288 279.32048 
L 788.494587 278.41132 
L 791.025887 274.7212 
L 793.557187 283.91976 
L 796.088486 277.44868 
L 798.619786 270.06844 
L 801.151085 271.94024 
L 803.682385 291.3 
L 806.213684 270.06844 
L 808.744984 277.44868 
L 811.276284 271.03108 
L 813.807583 294.99012 
L 816.338883 272.8494 
L 818.870182 282.10144 
L 821.401482 277.44868 
L 823.932781 274.7212 
L 826.464081 273.75856 
L 828.995381 273.75856 
L 831.52668 277.44868 
L 834.05798 276.53952 
L 836.589279 280.22964 
L 839.120579 286.70072 
L 841.651878 272.8494 
L 844.183178 290.39084 
L 846.714478 283.91976 
L 849.245777 271.94024 
L 851.777077 282.10144 
L 854.308376 281.1388 
L 856.839676 283.0106 
L 859.370975 261.77904 
L 861.902275 268.25012 
L 864.433575 277.44868 
L 866.964874 280.22964 
L 869.496174 282.10144 
L 872.027473 277.44868 
L 874.558773 282.10144 
L 877.090072 266.37832 
L 879.621372 282.10144 
L 882.152672 277.44868 
L 884.683971 274.7212 
L 887.215271 277.44868 
L 889.74657 285.79156 
L 892.27787 278.41132 
L 894.809169 282.10144 
L 897.340469 276.53952 
L 899.871769 282.10144 
L 902.403068 283.91976 
L 902.403068 283.91976 
" clip-path="url(#pf1b929ba1c)" style="fill: none; stroke: #ff6347; stroke-opacity: 0.7; stroke-linecap: square"/>
   </g>
   <g id="line2d_62">
    <path d="M 506.38125 211.98916 
L 921.26125 211.98916 
" clip-path="url(#pf1b929ba1c)" style="fill: none; stroke-dasharray: 5.55,2.4; stroke-dashoffset: 0; stroke: #808080; stroke-opacity: 0.5; stroke-width: 1.5"/>
   </g>
   <g id="patch_9">
    <path d="M 506.38125 318.04 
L 506.38125 50.64 
" style="fill: none; stroke: #000000; stroke-width: 0.8; stroke-linejoin: miter; stroke-linecap: square"/>
   </g>
   <g id="patch_10">
    <path d="M 921.26125 318.04 
L 921.26125 50.64 
" style="fill: none; stroke: #000000; stroke-width: 0.8; stroke-linejoin: miter; stroke-linecap: square"/>
   </g>
   <g id="patch_11">
    <path d="M 506.38125 318.04 
L 921.26125 318.04 
" style="fill: none; stroke: #000000; stroke-width: 0.8; stroke-linejoin: miter; stroke-linecap: square"/>
   </g>
   <g id="patch_12">
    <path d="M 506.38125 50.64 
L 921.26125 50.64 
" style="fill: none; stroke: #000000; stroke-width: 0.8; stroke-linejoin: miter; stroke-linecap: square"/>
   </g>
   <g id="text_36">
    <!-- Validation AUC-ROC -->
    <g transform="translate(654.35375 44.64) scale(0.12 -0.12)">
     <defs>
      <path id="DejaVuSans-56" d="M 1831 0 
L 50 4666 
L 709 4666 
L 2188 738 
L 3669 4666 
L 4325 4666 
L 2547 0 
L 1831 0 
z
" transform="scale(0.015625)"/>
      <path id="DejaVuSans-64" d="M 2906 2969 
L 2906 4863 
L 3481 4863 
L 3481 0 
L 2906 0 
L 2906 525 
Q 2725 213 2448 61 
Q 2172 -91 1784 -91 
Q 1150 -91 751 415 
Q 353 922 353 1747 
Q 353 2572 751 3078 
Q 1150 3584 1784 3584 
Q 2172 3584 2448 3432 
Q 2725 3281 2906 2969 
z
M 947 1747 
Q 947 1113 1208 752 
Q 1469 391 1925 391 
Q 2381 391 2643 752 
Q 2906 1113 2906 1747 
Q 2906 2381 2643 2742 
Q 2381 3103 1925 3103 
Q 1469 3103 1208 2742 
Q 947 2381 947 1747 
z
" transform="scale(0.015625)"/>
      <path id="DejaVuSans-74" d="M 1172 4494 
L 1172 3500 
L 2356 3500 
L 2356 3053 
L 1172 3053 
L 1172 1153 
Q 1172 725 1289 603 
Q 1406 481 1766 481 
L 2356 481 
L 2356 0 
L 1766 0 
Q 1100 0 847 248 
Q 594 497 594 1153 
L 594 3053 
L 172 3053 
L 172 3500 
L 594 3500 
L 594 4494 
L 1172 4494 
z
" transform="scale(0.015625)"/>
     </defs>
     <use xlink:href="#DejaVuSans-56"/>
     <use xlink:href="#DejaVuSans-61" transform="translate(60.658203 0)"/>
     <use xlink:href="#DejaVuSans-6c" transform="translate(121.9375 0)"/>
     <use xlink:href="#DejaVuSans-69" transform="translate(149.720703 0)"/>
     <use xlink:href="#DejaVuSans-64" transform="translate(177.503906 0)"/>
     <use xlink:href="#DejaVuSans-61" transform="translate(240.980469 0)"/>
     <use xlink:href="#DejaVuSans-74" transform="translate(302.259766 0)"/>
     <use xlink:href="#DejaVuSans-69" transform="translate(341.46875 0)"/>
     <use xlink:href="#DejaVuSans-6f" transform="translate(369.251953 0)"/>
     <use xlink:href="#DejaVuSans-6e" transform="translate(430.433594 0)"/>
     <use xlink:href="#DejaVuSans-20" transform="translate(493.8125 0)"/>
     <use xlink:href="#DejaVuSans-41" transform="translate(525.599609 0)"/>
     <use xlink:href="#DejaVuSans-55" transform="translate(594.007812 0)"/>
     <use xlink:href="#DejaVuSans-43" transform="translate(667.201172 0)"/>
     <use xlink:href="#DejaVuSans-2d" transform="translate(737.025391 0)"/>
     <use xlink:href="#DejaVuSans-52" transform="translate(773.109375 0)"/>
     <use xlink:href="#DejaVuSans-4f" transform="translate(842.591797 0)"/>
     <use xlink:href="#DejaVuSans-43" transform="translate(921.302734 0)"/>
    </g>
   </g>
   <g id="PathCollection_1">
    <defs>
     <path id="m0f0505dc3d" d="M 0 5 
C 1.326016 5 2.597899 4.473168 3.535534 3.535534 
C 4.473168 2.597899 5 1.326016 5 0 
C 5 -1.326016 4.473168 -2.597899 3.535534 -3.535534 
C 2.597899 -4.473168 1.326016 -5 0 -5 
C -1.326016 -5 -2.597899 -4.473168 -3.535534 -3.535534 
C -4.473168 -2.597899 -5 -1.326016 -5 0 
C -5 1.326016 -4.473168 2.597899 -3.535534 3.535534 
C -2.597899 4.473168 -1.326016 5 0 5 
z
" style="stroke: #ff0000"/>
    </defs>
    <g clip-path="url(#pf1b929ba1c)">
     <use xlink:href="#m0f0505dc3d" x="535.36463" y="211.98916" style="fill: #ff0000; stroke: #ff0000"/>
    </g>
   </g>
   <g id="legend_2">
    <g id="patch_13">
     <path d="M 783.359688 87.99625 
L 914.26125 87.99625 
Q 916.26125 87.99625 916.26125 85.99625 
L 916.26125 57.64 
Q 916.26125 55.64 914.26125 55.64 
L 783.359688 55.64 
Q 781.359688 55.64 781.359688 57.64 
L 781.359688 85.99625 
Q 781.359688 87.99625 783.359688 87.99625 
z
" style="fill: #ffffff; opacity: 0.8; stroke: #cccccc; stroke-linejoin: miter"/>
    </g>
    <g id="line2d_63">
     <path d="M 785.359688 63.738437 
L 795.359688 63.738437 
L 805.359688 63.738437 
" style="fill: none; stroke: #ff6347; stroke-opacity: 0.7; stroke-linecap: square"/>
    </g>
    <g id="text_37">
     <!-- Val AUC-ROC -->
     <g transform="translate(813.359688 67.238437) scale(0.1 -0.1)">
      <use xlink:href="#DejaVuSans-56"/>
      <use xlink:href="#DejaVuSans-61" transform="translate(60.658203 0)"/>
      <use xlink:href="#DejaVuSans-6c" transform="translate(121.9375 0)"/>
      <use xlink:href="#DejaVuSans-20" transform="translate(149.720703 0)"/>
      <use xlink:href="#DejaVuSans-41" transform="translate(181.507812 0)"/>
      <use xlink:href="#DejaVuSans-55" transform="translate(249.916016 0)"/>
      <use xlink:href="#DejaVuSans-43" transform="translate(323.109375 0)"/>
      <use xlink:href="#DejaVuSans-2d" transform="translate(392.933594 0)"/>
      <use xlink:href="#DejaVuSans-52" transform="translate(429.017578 0)"/>
      <use xlink:href="#DejaVuSans-4f" transform="translate(498.5 0)"/>
      <use xlink:href="#DejaVuSans-43" transform="translate(577.210938 0)"/>
     </g>
    </g>
    <g id="PathCollection_2">
     <g>
      <use xlink:href="#m0f0505dc3d" x="795.359688" y="79.291562" style="fill: #ff0000; stroke: #ff0000"/>
     </g>
    </g>
    <g id="text_38">
     <!-- Best: 0.6983 @ ep5 -->
     <g transform="translate(813.359688 81.916562) scale(0.1 -0.1)">
      <defs>
       <path id="DejaVuSans-42" d="M 1259 2228 
L 1259 519 
L 2272 519 
Q 2781 519 3026 730 
Q 3272 941 3272 1375 
Q 3272 1813 3026 2020 
Q 2781 2228 2272 2228 
L 1259 2228 
z
M 1259 4147 
L 1259 2741 
L 2194 2741 
Q 2656 2741 2882 2914 
Q 3109 3088 3109 3444 
Q 3109 3797 2882 3972 
Q 2656 4147 2194 4147 
L 1259 4147 
z
M 628 4666 
L 2241 4666 
Q 2963 4666 3353 4366 
Q 3744 4066 3744 3513 
Q 3744 3084 3544 2831 
Q 3344 2578 2956 2516 
Q 3422 2416 3680 2098 
Q 3938 1781 3938 1306 
Q 3938 681 3513 340 
Q 3088 0 2303 0 
L 628 0 
L 628 4666 
z
" transform="scale(0.015625)"/>
       <path id="DejaVuSans-3a" d="M 750 794 
L 1409 794 
L 1409 0 
L 750 0 
L 750 794 
z
M 750 3309 
L 1409 3309 
L 1409 2516 
L 750 2516 
L 750 3309 
z
" transform="scale(0.015625)"/>
       <path id="DejaVuSans-40" d="M 2381 1678 
Q 2381 1231 2603 976 
Q 2825 722 3213 722 
Q 3597 722 3817 978 
Q 4038 1234 4038 1678 
Q 4038 2116 3813 2373 
Q 3588 2631 3206 2631 
Q 2828 2631 2604 2375 
Q 2381 2119 2381 1678 
z
M 4084 744 
Q 3897 503 3655 389 
Q 3413 275 3091 275 
Q 2553 275 2217 664 
Q 1881 1053 1881 1678 
Q 1881 2303 2218 2693 
Q 2556 3084 3091 3084 
Q 3413 3084 3656 2967 
Q 3900 2850 4084 2613 
L 4084 3022 
L 4531 3022 
L 4531 722 
Q 4988 791 5245 1139 
Q 5503 1488 5503 2041 
Q 5503 2375 5404 2669 
Q 5306 2963 5106 3213 
Q 4781 3622 4314 3839 
Q 3847 4056 3297 4056 
Q 2913 4056 2559 3954 
Q 2206 3853 1906 3653 
Q 1416 3334 1139 2817 
Q 863 2300 863 1697 
Q 863 1200 1042 765 
Q 1222 331 1563 0 
Q 1891 -325 2322 -495 
Q 2753 -666 3244 -666 
Q 3647 -666 4036 -530 
Q 4425 -394 4750 -141 
L 5031 -488 
Q 4641 -791 4180 -952 
Q 3719 -1113 3244 -1113 
Q 2666 -1113 2153 -908 
Q 1641 -703 1241 -313 
Q 841 78 631 592 
Q 422 1106 422 1697 
Q 422 2266 634 2781 
Q 847 3297 1241 3688 
Q 1644 4084 2172 4295 
Q 2700 4506 3291 4506 
Q 3953 4506 4520 4234 
Q 5088 3963 5472 3463 
Q 5706 3156 5829 2797 
Q 5953 2438 5953 2053 
Q 5953 1231 5456 756 
Q 4959 281 4084 263 
L 4084 744 
z
" transform="scale(0.015625)"/>
      </defs>
      <use xlink:href="#DejaVuSans-42"/>
      <use xlink:href="#DejaVuSans-65" transform="translate(68.603516 0)"/>
      <use xlink:href="#DejaVuSans-73" transform="translate(130.126953 0)"/>
      <use xlink:href="#DejaVuSans-74" transform="translate(182.226562 0)"/>
      <use xlink:href="#DejaVuSans-3a" transform="translate(221.435547 0)"/>
      <use xlink:href="#DejaVuSans-20" transform="translate(255.126953 0)"/>
      <use xlink:href="#DejaVuSans-30" transform="translate(286.914062 0)"/>
      <use xlink:href="#DejaVuSans-2e" transform="translate(350.537109 0)"/>
      <use xlink:href="#DejaVuSans-36" transform="translate(382.324219 0)"/>
      <use xlink:href="#DejaVuSans-39" transform="translate(445.947266 0)"/>
      <use xlink:href="#DejaVuSans-38" transform="translate(509.570312 0)"/>
      <use xlink:href="#DejaVuSans-33" transform="translate(573.193359 0)"/>
      <use xlink:href="#DejaVuSans-20" transform="translate(636.816406 0)"/>
      <use xlink:href="#DejaVuSans-40" transform="translate(668.603516 0)"/>
      <use xlink:href="#DejaVuSans-20" transform="translate(768.603516 0)"/>
      <use xlink:href="#DejaVuSans-65" transform="translate(800.390625 0)"/>
      <use xlink:href="#DejaVuSans-70" transform="translate(861.914062 0)"/>
      <use xlink:href="#DejaVuSans-35" transform="translate(925.390625 0)"/>
     </g>
    </g>
   </g>
  </g>
  <g id="text_39">
   <!-- Job 9560072 — Mask-Guided (backbone 1e-5 / head 3e-4) -->
   <g transform="translate(275.135703 17.077969) scale(0.13 -0.13)">
    <defs>
     <path id="DejaVuSans-4a" d="M 628 4666 
L 1259 4666 
L 1259 325 
Q 1259 -519 939 -900 
Q 619 -1281 -91 -1281 
L -331 -1281 
L -331 -750 
L -134 -750 
Q 284 -750 456 -515 
Q 628 -281 628 325 
L 628 4666 
z
" transform="scale(0.015625)"/>
     <path id="DejaVuSans-62" d="M 3116 1747 
Q 3116 2381 2855 2742 
Q 2594 3103 2138 3103 
Q 1681 3103 1420 2742 
Q 1159 2381 1159 1747 
Q 1159 1113 1420 752 
Q 1681 391 2138 391 
Q 2594 391 2855 752 
Q 3116 1113 3116 1747 
z
M 1159 2969 
Q 1341 3281 1617 3432 
Q 1894 3584 2278 3584 
Q 2916 3584 3314 3078 
Q 3713 2572 3713 1747 
Q 3713 922 3314 415 
Q 2916 -91 2278 -91 
Q 1894 -91 1617 61 
Q 1341 213 1159 525 
L 1159 0 
L 581 0 
L 581 4863 
L 1159 4863 
L 1159 2969 
z
" transform="scale(0.015625)"/>
     <path id="DejaVuSans-2014" d="M 313 1978 
L 6088 1978 
L 6088 1528 
L 313 1528 
L 313 1978 
z
" transform="scale(0.015625)"/>
     <path id="DejaVuSans-4d" d="M 628 4666 
L 1569 4666 
L 2759 1491 
L 3956 4666 
L 4897 4666 
L 4897 0 
L 4281 0 
L 4281 4097 
L 3078 897 
L 2444 897 
L 1241 4097 
L 1241 0 
L 628 0 
L 628 4666 
z
" transform="scale(0.015625)"/>
     <path id="DejaVuSans-6b" d="M 581 4863 
L 1159 4863 
L 1159 1991 
L 2875 3500 
L 3609 3500 
L 1753 1863 
L 3688 0 
L 2938 0 
L 1159 1709 
L 1159 0 
L 581 0 
L 581 4863 
z
" transform="scale(0.015625)"/>
     <path id="DejaVuSans-47" d="M 3809 666 
L 3809 1919 
L 2778 1919 
L 2778 2438 
L 4434 2438 
L 4434 434 
Q 4069 175 3628 42 
Q 3188 -91 2688 -91 
Q 1594 -91 976 548 
Q 359 1188 359 2328 
Q 359 3472 976 4111 
Q 1594 4750 2688 4750 
Q 3144 4750 3555 4637 
Q 3966 4525 4313 4306 
L 4313 3634 
Q 3963 3931 3569 4081 
Q 3175 4231 2741 4231 
Q 1884 4231 1454 3753 
Q 1025 3275 1025 2328 
Q 1025 1384 1454 906 
Q 1884 428 2741 428 
Q 3075 428 3337 486 
Q 3600 544 3809 666 
z
" transform="scale(0.015625)"/>
     <path id="DejaVuSans-75" d="M 544 1381 
L 544 3500 
L 1119 3500 
L 1119 1403 
Q 1119 906 1312 657 
Q 1506 409 1894 409 
Q 2359 409 2629 706 
Q 2900 1003 2900 1516 
L 2900 3500 
L 3475 3500 
L 3475 0 
L 2900 0 
L 2900 538 
Q 2691 219 2414 64 
Q 2138 -91 1772 -91 
Q 1169 -91 856 284 
Q 544 659 544 1381 
z
M 1991 3584 
L 1991 3584 
z
" transform="scale(0.015625)"/>
     <path id="DejaVuSans-28" d="M 1984 4856 
Q 1566 4138 1362 3434 
Q 1159 2731 1159 2009 
Q 1159 1288 1364 580 
Q 1569 -128 1984 -844 
L 1484 -844 
Q 1016 -109 783 600 
Q 550 1309 550 2009 
Q 550 2706 781 3412 
Q 1013 4119 1484 4856 
L 1984 4856 
z
" transform="scale(0.015625)"/>
     <path id="DejaVuSans-2f" d="M 1625 4666 
L 2156 4666 
L 531 -594 
L 0 -594 
L 1625 4666 
z
" transform="scale(0.015625)"/>
     <path id="DejaVuSans-29" d="M 513 4856 
L 1013 4856 
Q 1481 4119 1714 3412 
Q 1947 2706 1947 2009 
Q 1947 1309 1714 600 
Q 1481 -109 1013 -844 
L 513 -844 
Q 928 -128 1133 580 
Q 1338 1288 1338 2009 
Q 1338 2731 1133 3434 
Q 928 4138 513 4856 
z
" transform="scale(0.015625)"/>
    </defs>
    <use xlink:href="#DejaVuSans-4a"/>
    <use xlink:href="#DejaVuSans-6f" transform="translate(29.492188 0)"/>
    <use xlink:href="#DejaVuSans-62" transform="translate(90.673828 0)"/>
    <use xlink:href="#DejaVuSans-20" transform="translate(154.150391 0)"/>
    <use xlink:href="#DejaVuSans-39" transform="translate(185.9375 0)"/>
    <use xlink:href="#DejaVuSans-35" transform="translate(249.560547 0)"/>
    <use xlink:href="#DejaVuSans-36" transform="translate(313.183594 0)"/>
    <use xlink:href="#DejaVuSans-30" transform="translate(376.806641 0)"/>
    <use xlink:href="#DejaVuSans-30" transform="translate(440.429688 0)"/>
    <use xlink:href="#DejaVuSans-37" transform="translate(504.052734 0)"/>
    <use xlink:href="#DejaVuSans-32" transform="translate(567.675781 0)"/>
    <use xlink:href="#DejaVuSans-20" transform="translate(631.298828 0)"/>
    <use xlink:href="#DejaVuSans-2014" transform="translate(663.085938 0)"/>
    <use xlink:href="#DejaVuSans-20" transform="translate(763.085938 0)"/>
    <use xlink:href="#DejaVuSans-4d" transform="translate(794.873047 0)"/>
    <use xlink:href="#DejaVuSans-61" transform="translate(881.152344 0)"/>
    <use xlink:href="#DejaVuSans-73" transform="translate(942.431641 0)"/>
    <use xlink:href="#DejaVuSans-6b" transform="translate(994.53125 0)"/>
    <use xlink:href="#DejaVuSans-2d" transform="translate(1052.441406 0)"/>
    <use xlink:href="#DejaVuSans-47" transform="translate(1092.150391 0)"/>
    <use xlink:href="#DejaVuSans-75" transform="translate(1169.640625 0)"/>
    <use xlink:href="#DejaVuSans-69" transform="translate(1233.019531 0)"/>
    <use xlink:href="#DejaVuSans-64" transform="translate(1260.802734 0)"/>
    <use xlink:href="#DejaVuSans-65" transform="translate(1324.279297 0)"/>
    <use xlink:href="#DejaVuSans-64" transform="translate(1385.802734 0)"/>
    <use xlink:href="#DejaVuSans-20" transform="translate(1449.279297 0)"/>
    <use xlink:href="#DejaVuSans-28" transform="translate(1481.066406 0)"/>
    <use xlink:href="#DejaVuSans-62" transform="translate(1520.080078 0)"/>
    <use xlink:href="#DejaVuSans-61" transform="translate(1583.556641 0)"/>
    <use xlink:href="#DejaVuSans-63" transform="translate(1644.835938 0)"/>
    <use xlink:href="#DejaVuSans-6b" transform="translate(1699.816406 0)"/>
    <use xlink:href="#DejaVuSans-62" transform="translate(1757.726562 0)"/>
    <use xlink:href="#DejaVuSans-6f" transform="translate(1821.203125 0)"/>
    <use xlink:href="#DejaVuSans-6e" transform="translate(1882.384766 0)"/>
    <use xlink:href="#DejaVuSans-65" transform="translate(1945.763672 0)"/>
    <use xlink:href="#DejaVuSans-20" transform="translate(2007.287109 0)"/>
    <use xlink:href="#DejaVuSans-31" transform="translate(2039.074219 0)"/>
    <use xlink:href="#DejaVuSans-65" transform="translate(2102.697266 0)"/>
    <use xlink:href="#DejaVuSans-2d" transform="translate(2164.220703 0)"/>
    <use xlink:href="#DejaVuSans-35" transform="translate(2200.304688 0)"/>
    <use xlink:href="#DejaVuSans-20" transform="translate(2263.927734 0)"/>
    <use xlink:href="#DejaVuSans-2f" transform="translate(2295.714844 0)"/>
    <use xlink:href="#DejaVuSans-20" transform="translate(2329.40625 0)"/>
    <use xlink:href="#DejaVuSans-68" transform="translate(2361.193359 0)"/>
    <use xlink:href="#DejaVuSans-65" transform="translate(2424.572266 0)"/>
    <use xlink:href="#DejaVuSans-61" transform="translate(2486.095703 0)"/>
    <use xlink:href="#DejaVuSans-64" transform="translate(2547.375 0)"/>
    <use xlink:href="#DejaVuSans-20" transform="translate(2610.851562 0)"/>
    <use xlink:href="#DejaVuSans-33" transform="translate(2642.638672 0)"/>
    <use xlink:href="#DejaVuSans-65" transform="translate(2706.261719 0)"/>
    <use xlink:href="#DejaVuSans-2d" transform="translate(2767.785156 0)"/>
    <use xlink:href="#DejaVuSans-34" transform="translate(2803.869141 0)"/>
    <use xlink:href="#DejaVuSans-29" transform="translate(2867.492188 0)"/>
   </g>
  </g>
 </g>
 <defs>
  <clipPath id="pc20917ab4d">
   <rect x="43.78125" y="50.64" width="414.88" height="267.4"/>
  </clipPath>
  <clipPath id="pf1b929ba1c">
   <rect x="506.38125" y="50.64" width="414.88" height="267.4"/>
  </clipPath>
 </defs>
</svg>
