<?xml version="1.0" encoding="utf-8" standalone="no"?>
<!DOCTYPE svg PUBLIC "-//W3C//DTD SVG 1.1//EN"
  "http://www.w3.org/Graphics/SVG/1.1/DTD/svg11.dtd">
<svg xmlns:xlink="http://www.w3.org/1999/xlink" width="928.46125pt" height="355.59625pt" viewBox="0 0 928.46125 355.59625" xmlns="http://www.w3.org/2000/svg" version="1.1">
 <metadata>
  <rdf:RDF xmlns:dc="http://purl.org/dc/elements/1.1/" xmlns:cc="http://creativecommons.org/ns#" xmlns:rdf="http://www.w3.org/1999/02/22-rdf-syntax-ns#">
   <cc:Work>
    <dc:type rdf:resource="http://purl.org/dc/dcmitype/StillImage"/>
    <dc:date>2026-06-30T22:17:44.574535</dc:date>
    <dc:format>image/svg+xml</dc:format>
    <dc:creator>
     <cc:Agent>
      <dc:title>Matplotlib v3.10.9, https://matplotlib.org/</dc:title>
     </cc:Agent>
    </dc:creator>
   </cc:Work>
  </rdf:RDF>
 </metadata>
 <defs>
  <style type="text/css">*{stroke-linejoin: round; stroke-linecap: butt}</style>
 </defs>
 <g id="figure_1">
  <g id="patch_1">
   <path d="M 0 355.59625 
L 928.46125 355.59625 
L 928.46125 0 
L 0 0 
z
" style="fill: #ffffff"/>
  </g>
  <g id="axes_1">
   <g id="patch_2">
    <path d="M 43.78125 318.04 
L 458.66125 318.04 
L 458.66125 50.64 
L 43.78125 50.64 
z
" style="fill: #ffffff"/>
   </g>
   <g id="matplotlib.axis_1">
    <g id="xtick_1">
     <g id="line2d_1">
      <path d="M 60.108132 318.04 
L 60.108132 50.64 
" clip-path="url(#pe650dd2d18)" style="fill: none; stroke: #b0b0b0; stroke-opacity: 0.3; stroke-width: 0.8; stroke-linecap: square"/>
     </g>
     <g id="line2d_2">
      <defs>
       <path id="m9d79873a51" d="M 0 0 
L 0 3.5 
" style="stroke: #000000; stroke-width: 0.8"/>
      </defs>
      <g>
       <use xlink:href="#m9d79873a51" x="60.108132" y="318.04" style="stroke: #000000; stroke-width: 0.8"/>
      </g>
     </g>
     <g id="text_1">
      <!-- 0 -->
      <g transform="translate(56.926882 332.638437) scale(0.1 -0.1)">
       <defs>
        <path id="DejaVuSans-30" d="M 2034 4250 
Q 1547 4250 1301 3770 
Q 1056 3291 1056 2328 
Q 1056 1369 1301 889 
Q 1547 409 2034 409 
Q 2525 409 2770 889 
Q 3016 1369 3016 2328 
Q 3016 3291 2770 3770 
Q 2525 4250 2034 4250 
z
M 2034 4750 
Q 2819 4750 3233 4129 
Q 3647 3509 3647 2328 
Q 3647 1150 3233 529 
Q 2819 -91 2034 -91 
Q 1250 -91 836 529 
Q 422 1150 422 2328 
Q 422 3509 836 4129 
Q 1250 4750 2034 4750 
z
" transform="scale(0.015625)"/>
       </defs>
       <use xlink:href="#DejaVuSans-30"/>
      </g>
     </g>
    </g>
    <g id="xtick_2">
     <g id="line2d_3">
      <path d="M 110.734124 318.04 
L 110.734124 50.64 
" clip-path="url(#pe650dd2d18)" style="fill: none; stroke: #b0b0b0; stroke-opacity: 0.3; stroke-width: 0.8; stroke-linecap: square"/>
     </g>
     <g id="line2d_4">
      <g>
       <use xlink:href="#m9d79873a51" x="110.734124" y="318.04" style="stroke: #000000; stroke-width: 0.8"/>
      </g>
     </g>
     <g id="text_2">
      <!-- 20 -->
      <g transform="translate(104.371624 332.638437) scale(0.1 -0.1)">
       <defs>
        <path id="DejaVuSans-32" d="M 1228 531 
L 3431 531 
L 3431 0 
L 469 0 
L 469 531 
Q 828 903 1448 1529 
Q 2069 2156 2228 2338 
Q 2531 2678 2651 2914 
Q 2772 3150 2772 3378 
Q 2772 3750 2511 3984 
Q 2250 4219 1831 4219 
Q 1534 4219 1204 4116 
Q 875 4013 500 3803 
L 500 4441 
Q 881 4594 1212 4672 
Q 1544 4750 1819 4750 
Q 2544 4750 2975 4387 
Q 3406 4025 3406 3419 
Q 3406 3131 3298 2873 
Q 3191 2616 2906 2266 
Q 2828 2175 2409 1742 
Q 1991 1309 1228 531 
z
" transform="scale(0.015625)"/>
       </defs>
       <use xlink:href="#DejaVuSans-32"/>
       <use xlink:href="#DejaVuSans-30" transform="translate(63.623047 0)"/>
      </g>
     </g>
    </g>
    <g id="xtick_3">
     <g id="line2d_5">
      <path d="M 161.360115 318.04 
L 161.360115 50.64 
" clip-path="url(#pe650dd2d18)" style="fill: none; stroke: #b0b0b0; stroke-opacity: 0.3; stroke-width: 0.8; stroke-linecap: square"/>
     </g>
     <g id="line2d_6">
      <g>
       <use xlink:href="#m9d79873a51" x="161.360115" y="318.04" style="stroke: #000000; stroke-width: 0.8"/>
      </g>
     </g>
     <g id="text_3">
      <!-- 40 -->
      <g transform="translate(154.997615 332.638437) scale(0.1 -0.1)">
       <defs>
        <path id="DejaVuSans-34" d="M 2419 4116 
L 825 1625 
L 2419 1625 
L 2419 4116 
z
M 2253 4666 
L 3047 4666 
L 3047 1625 
L 3713 1625 
L 3713 1100 
L 3047 1100 
L 3047 0 
L 2419 0 
L 2419 1100 
L 313 1100 
L 313 1709 
L 2253 4666 
z
" transform="scale(0.015625)"/>
       </defs>
       <use xlink:href="#DejaVuSans-34"/>
       <use xlink:href="#DejaVuSans-30" transform="translate(63.623047 0)"/>
      </g>
     </g>
    </g>
    <g id="xtick_4">
     <g id="line2d_7">
      <path d="M 211.986107 318.04 
L 211.986107 50.64 
" clip-path="url(#pe650dd2d18)" style="fill: none; stroke: #b0b0b0; stroke-opacity: 0.3; stroke-width: 0.8; stroke-linecap: square"/>
     </g>
     <g id="line2d_8">
      <g>
       <use xlink:href="#m9d79873a51" x="211.986107" y="318.04" style="stroke: #000000; stroke-width: 0.8"/>
      </g>
     </g>
     <g id="text_4">
      <!-- 60 -->
      <g transform="translate(205.623607 332.638437) scale(0.1 -0.1)">
       <defs>
        <path id="DejaVuSans-36" d="M 2113 2584 
Q 1688 2584 1439 2293 
Q 1191 2003 1191 1497 
Q 1191 994 1439 701 
Q 1688 409 2113 409 
Q 2538 409 2786 701 
Q 3034 994 3034 1497 
Q 3034 2003 2786 2293 
Q 2538 2584 2113 2584 
z
M 3366 4563 
L 3366 3988 
Q 3128 4100 2886 4159 
Q 2644 4219 2406 4219 
Q 1781 4219 1451 3797 
Q 1122 3375 1075 2522 
Q 1259 2794 1537 2939 
Q 1816 3084 2150 3084 
Q 2853 3084 3261 2657 
Q 3669 2231 3669 1497 
Q 3669 778 3244 343 
Q 2819 -91 2113 -91 
Q 1303 -91 875 529 
Q 447 1150 447 2328 
Q 447 3434 972 4092 
Q 1497 4750 2381 4750 
Q 2619 4750 2861 4703 
Q 3103 4656 3366 4563 
z
" transform="scale(0.015625)"/>
       </defs>
       <use xlink:href="#DejaVuSans-36"/>
       <use xlink:href="#DejaVuSans-30" transform="translate(63.623047 0)"/>
      </g>
     </g>
    </g>
    <g id="xtick_5">
     <g id="line2d_9">
      <path d="M 262.612098 318.04 
L 262.612098 50.64 
" clip-path="url(#pe650dd2d18)" style="fill: none; stroke: #b0b0b0; stroke-opacity: 0.3; stroke-width: 0.8; stroke-linecap: square"/>
     </g>
     <g id="line2d_10">
      <g>
       <use xlink:href="#m9d79873a51" x="262.612098" y="318.04" style="stroke: #000000; stroke-width: 0.8"/>
      </g>
     </g>
     <g id="text_5">
      <!-- 80 -->
      <g transform="translate(256.249598 332.638437) scale(0.1 -0.1)">
       <defs>
        <path id="DejaVuSans-38" d="M 2034 2216 
Q 1584 2216 1326 1975 
Q 1069 1734 1069 1313 
Q 1069 891 1326 650 
Q 1584 409 2034 409 
Q 2484 409 2743 651 
Q 3003 894 3003 1313 
Q 3003 1734 2745 1975 
Q 2488 2216 2034 2216 
z
M 1403 2484 
Q 997 2584 770 2862 
Q 544 3141 544 3541 
Q 544 4100 942 4425 
Q 1341 4750 2034 4750 
Q 2731 4750 3128 4425 
Q 3525 4100 3525 3541 
Q 3525 3141 3298 2862 
Q 3072 2584 2669 2484 
Q 3125 2378 3379 2068 
Q 3634 1759 3634 1313 
Q 3634 634 3220 271 
Q 2806 -91 2034 -91 
Q 1263 -91 848 271 
Q 434 634 434 1313 
Q 434 1759 690 2068 
Q 947 2378 1403 2484 
z
M 1172 3481 
Q 1172 3119 1398 2916 
Q 1625 2713 2034 2713 
Q 2441 2713 2670 2916 
Q 2900 3119 2900 3481 
Q 2900 3844 2670 4047 
Q 2441 4250 2034 4250 
Q 1625 4250 1398 4047 
Q 1172 3844 1172 3481 
z
" transform="scale(0.015625)"/>
       </defs>
       <use xlink:href="#DejaVuSans-38"/>
       <use xlink:href="#DejaVuSans-30" transform="translate(63.623047 0)"/>
      </g>
     </g>
    </g>
    <g id="xtick_6">
     <g id="line2d_11">
      <path d="M 313.23809 318.04 
L 313.23809 50.64 
" clip-path="url(#pe650dd2d18)" style="fill: none; stroke: #b0b0b0; stroke-opacity: 0.3; stroke-width: 0.8; stroke-linecap: square"/>
     </g>
     <g id="line2d_12">
      <g>
       <use xlink:href="#m9d79873a51" x="313.23809" y="318.04" style="stroke: #000000; stroke-width: 0.8"/>
      </g>
     </g>
     <g id="text_6">
      <!-- 100 -->
      <g transform="translate(303.69434 332.638437) scale(0.1 -0.1)">
       <defs>
        <path id="DejaVuSans-31" d="M 794 531 
L 1825 531 
L 1825 4091 
L 703 3866 
L 703 4441 
L 1819 4666 
L 2450 4666 
L 2450 531 
L 3481 531 
L 3481 0 
L 794 0 
L 794 531 
z
" transform="scale(0.015625)"/>
       </defs>
       <use xlink:href="#DejaVuSans-31"/>
       <use xlink:href="#DejaVuSans-30" transform="translate(63.623047 0)"/>
       <use xlink:href="#DejaVuSans-30" transform="translate(127.246094 0)"/>
      </g>
     </g>
    </g>
    <g id="xtick_7">
     <g id="line2d_13">
      <path d="M 363.864081 318.04 
L 363.864081 50.64 
" clip-path="url(#pe650dd2d18)" style="fill: none; stroke: #b0b0b0; stroke-opacity: 0.3; stroke-width: 0.8; stroke-linecap: square"/>
     </g>
     <g id="line2d_14">
      <g>
       <use xlink:href="#m9d79873a51" x="363.864081" y="318.04" style="stroke: #000000; stroke-width: 0.8"/>
      </g>
     </g>
     <g id="text_7">
      <!-- 120 -->
      <g transform="translate(354.320331 332.638437) scale(0.1 -0.1)">
       <use xlink:href="#DejaVuSans-31"/>
       <use xlink:href="#DejaVuSans-32" transform="translate(63.623047 0)"/>
       <use xlink:href="#DejaVuSans-30" transform="translate(127.246094 0)"/>
      </g>
     </g>
    </g>
    <g id="xtick_8">
     <g id="line2d_15">
      <path d="M 414.490072 318.04 
L 414.490072 50.64 
" clip-path="url(#pe650dd2d18)" style="fill: none; stroke: #b0b0b0; stroke-opacity: 0.3; stroke-width: 0.8; stroke-linecap: square"/>
     </g>
     <g id="line2d_16">
      <g>
       <use xlink:href="#m9d79873a51" x="414.490072" y="318.04" style="stroke: #000000; stroke-width: 0.8"/>
      </g>
     </g>
     <g id="text_8">
      <!-- 140 -->
      <g transform="translate(404.946322 332.638437) scale(0.1 -0.1)">
       <use xlink:href="#DejaVuSans-31"/>
       <use xlink:href="#DejaVuSans-34" transform="translate(63.623047 0)"/>
       <use xlink:href="#DejaVuSans-30" transform="translate(127.246094 0)"/>
      </g>
     </g>
    </g>
    <g id="text_9">
     <!-- Epoch -->
     <g transform="translate(235.910313 346.316562) scale(0.1 -0.1)">
      <defs>
       <path id="DejaVuSans-45" d="M 628 4666 
L 3578 4666 
L 3578 4134 
L 1259 4134 
L 1259 2753 
L 3481 2753 
L 3481 2222 
L 1259 2222 
L 1259 531 
L 3634 531 
L 3634 0 
L 628 0 
L 628 4666 
z
" transform="scale(0.015625)"/>
       <path id="DejaVuSans-70" d="M 1159 525 
L 1159 -1331 
L 581 -1331 
L 581 3500 
L 1159 3500 
L 1159 2969 
Q 1341 3281 1617 3432 
Q 1894 3584 2278 3584 
Q 2916 3584 3314 3078 
Q 3713 2572 3713 1747 
Q 3713 922 3314 415 
Q 2916 -91 2278 -91 
Q 1894 -91 1617 61 
Q 1341 213 1159 525 
z
M 3116 1747 
Q 3116 2381 2855 2742 
Q 2594 3103 2138 3103 
Q 1681 3103 1420 2742 
Q 1159 2381 1159 1747 
Q 1159 1113 1420 752 
Q 1681 391 2138 391 
Q 2594 391 2855 752 
Q 3116 1113 3116 1747 
z
" transform="scale(0.015625)"/>
       <path id="DejaVuSans-6f" d="M 1959 3097 
Q 1497 3097 1228 2736 
Q 959 2375 959 1747 
Q 959 1119 1226 758 
Q 1494 397 1959 397 
Q 2419 397 2687 759 
Q 2956 1122 2956 1747 
Q 2956 2369 2687 2733 
Q 2419 3097 1959 3097 
z
M 1959 3584 
Q 2709 3584 3137 3096 
Q 3566 2609 3566 1747 
Q 3566 888 3137 398 
Q 2709 -91 1959 -91 
Q 1206 -91 779 398 
Q 353 888 353 1747 
Q 353 2609 779 3096 
Q 1206 3584 1959 3584 
z
" transform="scale(0.015625)"/>
       <path id="DejaVuSans-63" d="M 3122 3366 
L 3122 2828 
Q 2878 2963 2633 3030 
Q 2388 3097 2138 3097 
Q 1578 3097 1268 2742 
Q 959 2388 959 1747 
Q 959 1106 1268 751 
Q 1578 397 2138 397 
Q 2388 397 2633 464 
Q 2878 531 3122 666 
L 3122 134 
Q 2881 22 2623 -34 
Q 2366 -91 2075 -91 
Q 1284 -91 818 406 
Q 353 903 353 1747 
Q 353 2603 823 3093 
Q 1294 3584 2113 3584 
Q 2378 3584 2631 3529 
Q 2884 3475 3122 3366 
z
" transform="scale(0.015625)"/>
       <path id="DejaVuSans-68" d="M 3513 2113 
L 3513 0 
L 2938 0 
L 2938 2094 
Q 2938 2591 2744 2837 
Q 2550 3084 2163 3084 
Q 1697 3084 1428 2787 
Q 1159 2491 1159 1978 
L 1159 0 
L 581 0 
L 581 4863 
L 1159 4863 
L 1159 2956 
Q 1366 3272 1645 3428 
Q 1925 3584 2291 3584 
Q 2894 3584 3203 3211 
Q 3513 2838 3513 2113 
z
" transform="scale(0.015625)"/>
      </defs>
      <use xlink:href="#DejaVuSans-45"/>
      <use xlink:href="#DejaVuSans-70" transform="translate(63.183594 0)"/>
      <use xlink:href="#DejaVuSans-6f" transform="translate(126.660156 0)"/>
      <use xlink:href="#DejaVuSans-63" transform="translate(187.841797 0)"/>
      <use xlink:href="#DejaVuSans-68" transform="translate(242.822266 0)"/>
     </g>
    </g>
   </g>
   <g id="matplotlib.axis_2">
    <g id="ytick_1">
     <g id="line2d_17">
      <path d="M 43.78125 281.263488 
L 458.66125 281.263488 
" clip-path="url(#pe650dd2d18)" style="fill: none; stroke: #b0b0b0; stroke-opacity: 0.3; stroke-width: 0.8; stroke-linecap: square"/>
     </g>
     <g id="line2d_18">
      <defs>
       <path id="m424aa0b496" d="M 0 0 
L -3.5 0 
" style="stroke: #000000; stroke-width: 0.8"/>
      </defs>
      <g>
       <use xlink:href="#m424aa0b496" x="43.78125" y="281.263488" style="stroke: #000000; stroke-width: 0.8"/>
      </g>
     </g>
     <g id="text_10">
      <!-- 0.1 -->
      <g transform="translate(20.878125 285.062707) scale(0.1 -0.1)">
       <defs>
        <path id="DejaVuSans-2e" d="M 684 794 
L 1344 794 
L 1344 0 
L 684 0 
L 684 794 
z
" transform="scale(0.015625)"/>
       </defs>
       <use xlink:href="#DejaVuSans-30"/>
       <use xlink:href="#DejaVuSans-2e" transform="translate(63.623047 0)"/>
       <use xlink:href="#DejaVuSans-31" transform="translate(95.410156 0)"/>
      </g>
     </g>
    </g>
    <g id="ytick_2">
     <g id="line2d_19">
      <path d="M 43.78125 235.919166 
L 458.66125 235.919166 
" clip-path="url(#pe650dd2d18)" style="fill: none; stroke: #b0b0b0; stroke-opacity: 0.3; stroke-width: 0.8; stroke-linecap: square"/>
     </g>
     <g id="line2d_20">
      <g>
       <use xlink:href="#m424aa0b496" x="43.78125" y="235.919166" style="stroke: #000000; stroke-width: 0.8"/>
      </g>
     </g>
     <g id="text_11">
      <!-- 0.2 -->
      <g transform="translate(20.878125 239.718385) scale(0.1 -0.1)">
       <use xlink:href="#DejaVuSans-30"/>
       <use xlink:href="#DejaVuSans-2e" transform="translate(63.623047 0)"/>
       <use xlink:href="#DejaVuSans-32" transform="translate(95.410156 0)"/>
      </g>
     </g>
    </g>
    <g id="ytick_3">
     <g id="line2d_21">
      <path d="M 43.78125 190.574844 
L 458.66125 190.574844 
" clip-path="url(#pe650dd2d18)" style="fill: none; stroke: #b0b0b0; stroke-opacity: 0.3; stroke-width: 0.8; stroke-linecap: square"/>
     </g>
     <g id="line2d_22">
      <g>
       <use xlink:href="#m424aa0b496" x="43.78125" y="190.574844" style="stroke: #000000; stroke-width: 0.8"/>
      </g>
     </g>
     <g id="text_12">
      <!-- 0.3 -->
      <g transform="translate(20.878125 194.374063) scale(0.1 -0.1)">
       <defs>
        <path id="DejaVuSans-33" d="M 2597 2516 
Q 3050 2419 3304 2112 
Q 3559 1806 3559 1356 
Q 3559 666 3084 287 
Q 2609 -91 1734 -91 
Q 1441 -91 1130 -33 
Q 819 25 488 141 
L 488 750 
Q 750 597 1062 519 
Q 1375 441 1716 441 
Q 2309 441 2620 675 
Q 2931 909 2931 1356 
Q 2931 1769 2642 2001 
Q 2353 2234 1838 2234 
L 1294 2234 
L 1294 2753 
L 1863 2753 
Q 2328 2753 2575 2939 
Q 2822 3125 2822 3475 
Q 2822 3834 2567 4026 
Q 2313 4219 1838 4219 
Q 1578 4219 1281 4162 
Q 984 4106 628 3988 
L 628 4550 
Q 988 4650 1302 4700 
Q 1616 4750 1894 4750 
Q 2613 4750 3031 4423 
Q 3450 4097 3450 3541 
Q 3450 3153 3228 2886 
Q 3006 2619 2597 2516 
z
" transform="scale(0.015625)"/>
       </defs>
       <use xlink:href="#DejaVuSans-30"/>
       <use xlink:href="#DejaVuSans-2e" transform="translate(63.623047 0)"/>
       <use xlink:href="#DejaVuSans-33" transform="translate(95.410156 0)"/>
      </g>
     </g>
    </g>
    <g id="ytick_4">
     <g id="line2d_23">
      <path d="M 43.78125 145.230522 
L 458.66125 145.230522 
" clip-path="url(#pe650dd2d18)" style="fill: none; stroke: #b0b0b0; stroke-opacity: 0.3; stroke-width: 0.8; stroke-linecap: square"/>
     </g>
     <g id="line2d_24">
      <g>
       <use xlink:href="#m424aa0b496" x="43.78125" y="145.230522" style="stroke: #000000; stroke-width: 0.8"/>
      </g>
     </g>
     <g id="text_13">
      <!-- 0.4 -->
      <g transform="translate(20.878125 149.029741) scale(0.1 -0.1)">
       <use xlink:href="#DejaVuSans-30"/>
       <use xlink:href="#DejaVuSans-2e" transform="translate(63.623047 0)"/>
       <use xlink:href="#DejaVuSans-34" transform="translate(95.410156 0)"/>
      </g>
     </g>
    </g>
    <g id="ytick_5">
     <g id="line2d_25">
      <path d="M 43.78125 99.886201 
L 458.66125 99.886201 
" clip-path="url(#pe650dd2d18)" style="fill: none; stroke: #b0b0b0; stroke-opacity: 0.3; stroke-width: 0.8; stroke-linecap: square"/>
     </g>
     <g id="line2d_26">
      <g>
       <use xlink:href="#m424aa0b496" x="43.78125" y="99.886201" style="stroke: #000000; stroke-width: 0.8"/>
      </g>
     </g>
     <g id="text_14">
      <!-- 0.5 -->
      <g transform="translate(20.878125 103.685419) scale(0.1 -0.1)">
       <defs>
        <path id="DejaVuSans-35" d="M 691 4666 
L 3169 4666 
L 3169 4134 
L 1269 4134 
L 1269 2991 
Q 1406 3038 1543 3061 
Q 1681 3084 1819 3084 
Q 2600 3084 3056 2656 
Q 3513 2228 3513 1497 
Q 3513 744 3044 326 
Q 2575 -91 1722 -91 
Q 1428 -91 1123 -41 
Q 819 9 494 109 
L 494 744 
Q 775 591 1075 516 
Q 1375 441 1709 441 
Q 2250 441 2565 725 
Q 2881 1009 2881 1497 
Q 2881 1984 2565 2268 
Q 2250 2553 1709 2553 
Q 1456 2553 1204 2497 
Q 953 2441 691 2322 
L 691 4666 
z
" transform="scale(0.015625)"/>
       </defs>
       <use xlink:href="#DejaVuSans-30"/>
       <use xlink:href="#DejaVuSans-2e" transform="translate(63.623047 0)"/>
       <use xlink:href="#DejaVuSans-35" transform="translate(95.410156 0)"/>
      </g>
     </g>
    </g>
    <g id="ytick_6">
     <g id="line2d_27">
      <path d="M 43.78125 54.541879 
L 458.66125 54.541879 
" clip-path="url(#pe650dd2d18)" style="fill: none; stroke: #b0b0b0; stroke-opacity: 0.3; stroke-width: 0.8; stroke-linecap: square"/>
     </g>
     <g id="line2d_28">
      <g>
       <use xlink:href="#m424aa0b496" x="43.78125" y="54.541879" style="stroke: #000000; stroke-width: 0.8"/>
      </g>
     </g>
     <g id="text_15">
      <!-- 0.6 -->
      <g transform="translate(20.878125 58.341098) scale(0.1 -0.1)">
       <use xlink:href="#DejaVuSans-30"/>
       <use xlink:href="#DejaVuSans-2e" transform="translate(63.623047 0)"/>
       <use xlink:href="#DejaVuSans-36" transform="translate(95.410156 0)"/>
      </g>
     </g>
    </g>
    <g id="text_16">
     <!-- Loss -->
     <g transform="translate(14.798438 195.307187) rotate(-90) scale(0.1 -0.1)">
      <defs>
       <path id="DejaVuSans-4c" d="M 628 4666 
L 1259 4666 
L 1259 531 
L 3531 531 
L 3531 0 
L 628 0 
L 628 4666 
z
" transform="scale(0.015625)"/>
       <path id="DejaVuSans-73" d="M 2834 3397 
L 2834 2853 
Q 2591 2978 2328 3040 
Q 2066 3103 1784 3103 
Q 1356 3103 1142 2972 
Q 928 2841 928 2578 
Q 928 2378 1081 2264 
Q 1234 2150 1697 2047 
L 1894 2003 
Q 2506 1872 2764 1633 
Q 3022 1394 3022 966 
Q 3022 478 2636 193 
Q 2250 -91 1575 -91 
Q 1294 -91 989 -36 
Q 684 19 347 128 
L 347 722 
Q 666 556 975 473 
Q 1284 391 1588 391 
Q 1994 391 2212 530 
Q 2431 669 2431 922 
Q 2431 1156 2273 1281 
Q 2116 1406 1581 1522 
L 1381 1569 
Q 847 1681 609 1914 
Q 372 2147 372 2553 
Q 372 3047 722 3315 
Q 1072 3584 1716 3584 
Q 2034 3584 2315 3537 
Q 2597 3491 2834 3397 
z
" transform="scale(0.015625)"/>
      </defs>
      <use xlink:href="#DejaVuSans-4c"/>
      <use xlink:href="#DejaVuSans-6f" transform="translate(53.962891 0)"/>
      <use xlink:href="#DejaVuSans-73" transform="translate(115.144531 0)"/>
      <use xlink:href="#DejaVuSans-73" transform="translate(167.244141 0)"/>
     </g>
    </g>
   </g>
   <g id="line2d_29">
    <path d="M 62.639432 62.794545 
L 65.170731 117.751863 
L 67.702031 112.265201 
L 70.233331 149.492889 
L 72.76463 161.010346 
L 75.29593 159.513984 
L 77.827229 154.616797 
L 80.358529 206.082602 
L 82.889828 186.040412 
L 85.421128 189.803991 
L 87.952428 212.340119 
L 90.483727 211.977364 
L 93.015027 209.800837 
L 95.546326 205.991914 
L 98.077626 224.220331 
L 100.608925 201.684203 
L 103.140225 228.346664 
L 105.671525 187.899529 
L 108.202824 218.552291 
L 110.734124 235.193657 
L 113.265423 241.995305 
L 115.796723 245.441474 
L 118.328022 183.047687 
L 120.859322 217.191961 
L 123.390622 280.537979 
L 125.921921 258.183228 
L 128.453221 174.931053 
L 130.98452 197.784591 
L 133.51582 233.153162 
L 136.047119 245.622851 
L 138.578419 238.821203 
L 141.109719 227.98391 
L 143.641018 216.23973 
L 146.172318 254.147583 
L 148.703617 265.665041 
L 151.234917 261.493364 
L 153.766216 236.463298 
L 156.297516 252.832598 
L 158.828816 221.635705 
L 161.360115 236.372609 
L 163.891415 294.912129 
L 166.422714 241.768584 
L 168.954014 280.401946 
L 171.485313 256.641521 
L 174.016613 274.144429 
L 176.547913 262.763005 
L 179.079212 259.997001 
L 181.610512 245.305441 
L 184.141811 266.163829 
L 186.673111 260.133034 
L 189.20441 225.716694 
L 191.73571 251.109514 
L 194.26701 278.497484 
L 196.798309 267.796224 
L 199.329609 255.417224 
L 201.860908 248.0261 
L 204.392208 222.905346 
L 206.923507 286.296708 
L 211.986107 191.391042 
L 214.517406 213.791137 
L 217.048706 233.742639 
L 219.580005 246.937836 
L 222.111305 260.858543 
L 224.642604 277.681286 
L 227.173904 254.464994 
L 229.705204 240.99773 
L 232.236503 303.799616 
L 234.767803 272.7841 
L 237.299102 261.402675 
L 239.830402 280.855389 
L 242.361701 266.526583 
L 244.893001 285.344477 
L 247.424301 254.963781 
L 249.9556 211.841331 
L 252.4869 231.792833 
L 255.018199 217.055928 
L 257.549499 257.956506 
L 260.080799 210.662379 
L 262.612098 240.272221 
L 265.143398 256.686865 
L 267.674697 277.182499 
L 270.205997 261.992151 
L 272.737296 241.677895 
L 275.268596 241.632551 
L 277.799896 273.010821 
L 280.331195 251.880367 
L 282.862495 272.7841 
L 285.393794 247.028525 
L 287.925094 269.519308 
L 290.456393 242.856847 
L 292.987693 248.434199 
L 295.518993 240.226877 
L 298.050292 265.937107 
L 300.581592 262.354906 
L 303.112891 286.750151 
L 305.644191 218.008159 
L 308.17549 277.227843 
L 310.70679 281.218143 
L 313.23809 279.177649 
L 315.769389 247.890067 
L 318.300689 249.295741 
L 320.831988 234.014705 
L 323.363288 242.947536 
L 325.894587 252.877942 
L 328.425887 251.835023 
L 330.957187 276.502334 
L 333.488486 282.850539 
L 336.019786 219.776587 
L 338.551085 279.359026 
L 341.082385 276.184924 
L 343.613684 271.151704 
L 346.144984 267.070715 
L 348.676284 243.355635 
L 351.207583 305.885455 
L 353.738883 273.872363 
L 356.270182 300.942923 
L 358.801482 247.572657 
L 361.332781 262.626972 
L 363.864081 260.72251 
L 366.395381 246.257671 
L 368.92668 280.719356 
L 371.45798 279.585748 
L 373.989279 271.605147 
L 376.520579 260.72251 
L 379.051878 264.984876 
L 381.583178 275.005971 
L 384.114478 248.842298 
L 386.645777 292.282158 
L 389.177077 274.053741 
L 391.708376 265.483664 
L 394.239676 204.223485 
L 396.770975 250.837448 
L 399.302275 272.376001 
L 401.833575 295.501605 
L 404.364874 238.458448 
L 406.896174 265.75573 
L 409.427473 241.360485 
L 411.958773 256.73221 
L 414.490072 236.871397 
L 417.021372 262.354906 
L 419.552672 249.885217 
L 422.083971 295.728326 
L 424.615271 256.142734 
L 427.14657 271.877213 
L 429.67787 269.473964 
L 432.209169 261.901462 
L 434.740469 263.624547 
L 437.271769 257.956506 
L 439.803068 237.959661 
L 439.803068 237.959661 
" clip-path="url(#pe650dd2d18)" style="fill: none; stroke: #4682b4; stroke-opacity: 0.7; stroke-linecap: square"/>
   </g>
   <g id="line2d_30">
    <path d="M 72.76463 120.662969 
L 75.29593 140.006857 
L 77.827229 147.379843 
L 80.358529 166.143324 
L 82.889828 173.452828 
L 85.421128 179.211557 
L 87.952428 189.776784 
L 90.483727 201.248898 
L 93.015027 201.992544 
L 95.546326 205.982845 
L 98.077626 212.866113 
L 100.608925 210.73493 
L 103.140225 214.00879 
L 105.671525 209.628528 
L 108.202824 212.140604 
L 110.734124 214.335269 
L 113.265423 222.397489 
L 115.796723 225.816451 
L 118.328022 224.846083 
L 120.859322 224.574017 
L 123.390622 233.642881 
L 125.921921 236.880466 
L 128.453221 222.778382 
L 130.98452 225.725762 
L 133.51582 228.918003 
L 136.047119 221.934977 
L 138.578419 218.062572 
L 141.109719 228.673143 
L 143.641018 232.364171 
L 151.234917 245.105926 
L 153.766216 246.801803 
L 156.297516 254.120377 
L 158.828816 247.618001 
L 161.360115 241.759515 
L 163.891415 248.443268 
L 166.422714 249.504325 
L 168.954014 255.018194 
L 171.485313 262.019358 
L 174.016613 269.573722 
L 176.547913 263.143897 
L 179.079212 266.78958 
L 181.610512 259.770279 
L 184.141811 261.674741 
L 186.673111 258.872462 
L 189.20441 251.4632 
L 191.73571 249.685702 
L 194.26701 256.324111 
L 196.798309 256.65059 
L 199.329609 255.707428 
L 201.860908 260.169309 
L 204.392208 254.528476 
L 206.923507 256.08832 
L 209.454807 250.293316 
L 211.986107 237.48808 
L 214.517406 230.641087 
L 217.048706 232.808546 
L 219.580005 224.936771 
L 222.111305 229.344239 
L 224.642604 246.602288 
L 227.173904 254.73706 
L 229.705204 256.188078 
L 232.236503 267.560434 
L 234.767803 269.945545 
L 237.299102 266.689823 
L 242.361701 277.073672 
L 247.424301 269.818581 
L 255.018199 240.19967 
L 257.549499 234.722076 
L 260.080799 225.861795 
L 262.612098 231.547973 
L 265.143398 236.52678 
L 267.674697 248.552094 
L 270.205997 249.359223 
L 272.737296 255.562326 
L 275.268596 255.834392 
L 277.799896 259.099183 
L 280.331195 254.038757 
L 282.862495 256.197147 
L 285.393794 257.267273 
L 287.925094 262.844624 
L 290.456393 256.81383 
L 292.987693 256.124596 
L 295.518993 249.613151 
L 298.050292 253.394868 
L 300.581592 251.961987 
L 303.112891 260.740648 
L 305.644191 254.65544 
L 308.17549 262.055633 
L 310.70679 265.11184 
L 313.23809 268.476389 
L 315.769389 260.704372 
L 318.300689 266.961889 
L 320.831988 258.319261 
L 323.363288 250.665139 
L 325.894587 245.405198 
L 328.425887 246.194189 
L 330.957187 251.635508 
L 333.488486 261.402675 
L 336.019786 256.768485 
L 338.551085 262.064702 
L 341.082385 266.934682 
L 343.613684 265.864556 
L 346.144984 262.708591 
L 348.676284 267.424401 
L 351.207583 272.729686 
L 353.738883 272.267174 
L 356.270182 278.225418 
L 358.801482 274.325807 
L 361.332781 278.180074 
L 363.864081 269.147485 
L 366.395381 263.624547 
L 368.92668 259.579833 
L 371.45798 265.982451 
L 373.989279 267.778087 
L 376.520579 267.778087 
L 379.051878 271.523527 
L 381.583178 270.380851 
L 384.114478 264.232161 
L 386.645777 268.367563 
L 389.177077 271.033809 
L 391.708376 271.133566 
L 394.239676 256.977069 
L 396.770975 257.376099 
L 399.302275 253.394868 
L 401.833575 257.68444 
L 404.364874 252.279397 
L 406.896174 264.585846 
L 409.427473 262.690454 
L 411.958773 259.561695 
L 414.490072 247.835654 
L 417.021372 252.614945 
L 419.552672 249.440843 
L 422.083971 260.314411 
L 424.615271 260.196516 
L 427.14657 267.197679 
L 429.67787 268.621491 
L 432.209169 271.02474 
L 434.740469 264.603984 
L 437.271769 264.966739 
L 439.803068 258.183228 
L 439.803068 258.183228 
" clip-path="url(#pe650dd2d18)" style="fill: none; stroke: #000080; stroke-width: 2; stroke-linecap: square"/>
   </g>
   <g id="patch_3">
    <path d="M 43.78125 318.04 
L 43.78125 50.64 
" style="fill: none; stroke: #000000; stroke-width: 0.8; stroke-linejoin: miter; stroke-linecap: square"/>
   </g>
   <g id="patch_4">
    <path d="M 458.66125 318.04 
L 458.66125 50.64 
" style="fill: none; stroke: #000000; stroke-width: 0.8; stroke-linejoin: miter; stroke-linecap: square"/>
   </g>
   <g id="patch_5">
    <path d="M 43.78125 318.04 
L 458.66125 318.04 
" style="fill: none; stroke: #000000; stroke-width: 0.8; stroke-linejoin: miter; stroke-linecap: square"/>
   </g>
   <g id="patch_6">
    <path d="M 43.78125 50.64 
L 458.66125 50.64 
" style="fill: none; stroke: #000000; stroke-width: 0.8; stroke-linejoin: miter; stroke-linecap: square"/>
   </g>
   <g id="text_17">
    <!-- Training Loss -->
    <g transform="translate(212.482813 44.64) scale(0.12 -0.12)">
     <defs>
      <path id="DejaVuSans-54" d="M -19 4666 
L 3928 4666 
L 3928 4134 
L 2272 4134 
L 2272 0 
L 1638 0 
L 1638 4134 
L -19 4134 
L -19 4666 
z
" transform="scale(0.015625)"/>
      <path id="DejaVuSans-72" d="M 2631 2963 
Q 2534 3019 2420 3045 
Q 2306 3072 2169 3072 
Q 1681 3072 1420 2755 
Q 1159 2438 1159 1844 
L 1159 0 
L 581 0 
L 581 3500 
L 1159 3500 
L 1159 2956 
Q 1341 3275 1631 3429 
Q 1922 3584 2338 3584 
Q 2397 3584 2469 3576 
Q 2541 3569 2628 3553 
L 2631 2963 
z
" transform="scale(0.015625)"/>
      <path id="DejaVuSans-61" d="M 2194 1759 
Q 1497 1759 1228 1600 
Q 959 1441 959 1056 
Q 959 750 1161 570 
Q 1363 391 1709 391 
Q 2188 391 2477 730 
Q 2766 1069 2766 1631 
L 2766 1759 
L 2194 1759 
z
M 3341 1997 
L 3341 0 
L 2766 0 
L 2766 531 
Q 2569 213 2275 61 
Q 1981 -91 1556 -91 
Q 1019 -91 701 211 
Q 384 513 384 1019 
Q 384 1609 779 1909 
Q 1175 2209 1959 2209 
L 2766 2209 
L 2766 2266 
Q 2766 2663 2505 2880 
Q 2244 3097 1772 3097 
Q 1472 3097 1187 3025 
Q 903 2953 641 2809 
L 641 3341 
Q 956 3463 1253 3523 
Q 1550 3584 1831 3584 
Q 2591 3584 2966 3190 
Q 3341 2797 3341 1997 
z
" transform="scale(0.015625)"/>
      <path id="DejaVuSans-69" d="M 603 3500 
L 1178 3500 
L 1178 0 
L 603 0 
L 603 3500 
z
M 603 4863 
L 1178 4863 
L 1178 4134 
L 603 4134 
L 603 4863 
z
" transform="scale(0.015625)"/>
      <path id="DejaVuSans-6e" d="M 3513 2113 
L 3513 0 
L 2938 0 
L 2938 2094 
Q 2938 2591 2744 2837 
Q 2550 3084 2163 3084 
Q 1697 3084 1428 2787 
Q 1159 2491 1159 1978 
L 1159 0 
L 581 0 
L 581 3500 
L 1159 3500 
L 1159 2956 
Q 1366 3272 1645 3428 
Q 1925 3584 2291 3584 
Q 2894 3584 3203 3211 
Q 3513 2838 3513 2113 
z
" transform="scale(0.015625)"/>
      <path id="DejaVuSans-67" d="M 2906 1791 
Q 2906 2416 2648 2759 
Q 2391 3103 1925 3103 
Q 1463 3103 1205 2759 
Q 947 2416 947 1791 
Q 947 1169 1205 825 
Q 1463 481 1925 481 
Q 2391 481 2648 825 
Q 2906 1169 2906 1791 
z
M 3481 434 
Q 3481 -459 3084 -895 
Q 2688 -1331 1869 -1331 
Q 1566 -1331 1297 -1286 
Q 1028 -1241 775 -1147 
L 775 -588 
Q 1028 -725 1275 -790 
Q 1522 -856 1778 -856 
Q 2344 -856 2625 -561 
Q 2906 -266 2906 331 
L 2906 616 
Q 2728 306 2450 153 
Q 2172 0 1784 0 
Q 1141 0 747 490 
Q 353 981 353 1791 
Q 353 2603 747 3093 
Q 1141 3584 1784 3584 
Q 2172 3584 2450 3431 
Q 2728 3278 2906 2969 
L 2906 3500 
L 3481 3500 
L 3481 434 
z
" transform="scale(0.015625)"/>
      <path id="DejaVuSans-20" transform="scale(0.015625)"/>
     </defs>
     <use xlink:href="#DejaVuSans-54"/>
     <use xlink:href="#DejaVuSans-72" transform="translate(46.333984 0)"/>
     <use xlink:href="#DejaVuSans-61" transform="translate(87.447266 0)"/>
     <use xlink:href="#DejaVuSans-69" transform="translate(148.726562 0)"/>
     <use xlink:href="#DejaVuSans-6e" transform="translate(176.509766 0)"/>
     <use xlink:href="#DejaVuSans-69" transform="translate(239.888672 0)"/>
     <use xlink:href="#DejaVuSans-6e" transform="translate(267.671875 0)"/>
     <use xlink:href="#DejaVuSans-67" transform="translate(331.050781 0)"/>
     <use xlink:href="#DejaVuSans-20" transform="translate(394.527344 0)"/>
     <use xlink:href="#DejaVuSans-4c" transform="translate(426.314453 0)"/>
     <use xlink:href="#DejaVuSans-6f" transform="translate(480.277344 0)"/>
     <use xlink:href="#DejaVuSans-73" transform="translate(541.458984 0)"/>
     <use xlink:href="#DejaVuSans-73" transform="translate(593.558594 0)"/>
    </g>
   </g>
   <g id="legend_1">
    <g id="patch_7">
     <path d="M 365.651875 87.99625 
L 451.66125 87.99625 
Q 453.66125 87.99625 453.66125 85.99625 
L 453.66125 57.64 
Q 453.66125 55.64 451.66125 55.64 
L 365.651875 55.64 
Q 363.651875 55.64 363.651875 57.64 
L 363.651875 85.99625 
Q 363.651875 87.99625 365.651875 87.99625 
z
" style="fill: #ffffff; opacity: 0.8; stroke: #cccccc; stroke-linejoin: miter"/>
    </g>
    <g id="line2d_31">
     <path d="M 367.651875 63.738437 
L 377.651875 63.738437 
L 387.651875 63.738437 
" style="fill: none; stroke: #4682b4; stroke-opacity: 0.7; stroke-linecap: square"/>
    </g>
    <g id="text_18">
     <!-- Train loss -->
     <g transform="translate(395.651875 67.238437) scale(0.1 -0.1)">
      <defs>
       <path id="DejaVuSans-6c" d="M 603 4863 
L 1178 4863 
L 1178 0 
L 603 0 
L 603 4863 
z
" transform="scale(0.015625)"/>
      </defs>
      <use xlink:href="#DejaVuSans-54"/>
      <use xlink:href="#DejaVuSans-72" transform="translate(46.333984 0)"/>
      <use xlink:href="#DejaVuSans-61" transform="translate(87.447266 0)"/>
      <use xlink:href="#DejaVuSans-69" transform="translate(148.726562 0)"/>
      <use xlink:href="#DejaVuSans-6e" transform="translate(176.509766 0)"/>
      <use xlink:href="#DejaVuSans-20" transform="translate(239.888672 0)"/>
      <use xlink:href="#DejaVuSans-6c" transform="translate(271.675781 0)"/>
      <use xlink:href="#DejaVuSans-6f" transform="translate(299.458984 0)"/>
      <use xlink:href="#DejaVuSans-73" transform="translate(360.640625 0)"/>
      <use xlink:href="#DejaVuSans-73" transform="translate(412.740234 0)"/>
     </g>
    </g>
    <g id="line2d_32">
     <path d="M 367.651875 78.416562 
L 377.651875 78.416562 
L 387.651875 78.416562 
" style="fill: none; stroke: #000080; stroke-width: 2; stroke-linecap: square"/>
    </g>
    <g id="text_19">
     <!-- 5-ep mean -->
     <g transform="translate(395.651875 81.916562) scale(0.1 -0.1)">
      <defs>
       <path id="DejaVuSans-2d" d="M 313 2009 
L 1997 2009 
L 1997 1497 
L 313 1497 
L 313 2009 
z
" transform="scale(0.015625)"/>
       <path id="DejaVuSans-65" d="M 3597 1894 
L 3597 1613 
L 953 1613 
Q 991 1019 1311 708 
Q 1631 397 2203 397 
Q 2534 397 2845 478 
Q 3156 559 3463 722 
L 3463 178 
Q 3153 47 2828 -22 
Q 2503 -91 2169 -91 
Q 1331 -91 842 396 
Q 353 884 353 1716 
Q 353 2575 817 3079 
Q 1281 3584 2069 3584 
Q 2775 3584 3186 3129 
Q 3597 2675 3597 1894 
z
M 3022 2063 
Q 3016 2534 2758 2815 
Q 2500 3097 2075 3097 
Q 1594 3097 1305 2825 
Q 1016 2553 972 2059 
L 3022 2063 
z
" transform="scale(0.015625)"/>
       <path id="DejaVuSans-6d" d="M 3328 2828 
Q 3544 3216 3844 3400 
Q 4144 3584 4550 3584 
Q 5097 3584 5394 3201 
Q 5691 2819 5691 2113 
L 5691 0 
L 5113 0 
L 5113 2094 
Q 5113 2597 4934 2840 
Q 4756 3084 4391 3084 
Q 3944 3084 3684 2787 
Q 3425 2491 3425 1978 
L 3425 0 
L 2847 0 
L 2847 2094 
Q 2847 2600 2669 2842 
Q 2491 3084 2119 3084 
Q 1678 3084 1418 2786 
Q 1159 2488 1159 1978 
L 1159 0 
L 581 0 
L 581 3500 
L 1159 3500 
L 1159 2956 
Q 1356 3278 1631 3431 
Q 1906 3584 2284 3584 
Q 2666 3584 2933 3390 
Q 3200 3197 3328 2828 
z
" transform="scale(0.015625)"/>
      </defs>
      <use xlink:href="#DejaVuSans-35"/>
      <use xlink:href="#DejaVuSans-2d" transform="translate(63.623047 0)"/>
      <use xlink:href="#DejaVuSans-65" transform="translate(99.707031 0)"/>
      <use xlink:href="#DejaVuSans-70" transform="translate(161.230469 0)"/>
      <use xlink:href="#DejaVuSans-20" transform="translate(224.707031 0)"/>
      <use xlink:href="#DejaVuSans-6d" transform="translate(256.494141 0)"/>
      <use xlink:href="#DejaVuSans-65" transform="translate(353.90625 0)"/>
      <use xlink:href="#DejaVuSans-61" transform="translate(415.429688 0)"/>
      <use xlink:href="#DejaVuSans-6e" transform="translate(476.708984 0)"/>
     </g>
    </g>
   </g>
  </g>
  <g id="axes_2">
   <g id="patch_8">
    <path d="M 506.38125 318.04 
L 921.26125 318.04 
L 921.26125 50.64 
L 506.38125 50.64 
z
" style="fill: #ffffff"/>
   </g>
   <g id="matplotlib.axis_3">
    <g id="xtick_9">
     <g id="line2d_33">
      <path d="M 522.708132 318.04 
L 522.708132 50.64 
" clip-path="url(#pa3b4dbd2e2)" style="fill: none; stroke: #b0b0b0; stroke-opacity: 0.3; stroke-width: 0.8; stroke-linecap: square"/>
     </g>
     <g id="line2d_34">
      <g>
       <use xlink:href="#m9d79873a51" x="522.708132" y="318.04" style="stroke: #000000; stroke-width: 0.8"/>
      </g>
     </g>
     <g id="text_20">
      <!-- 0 -->
      <g transform="translate(519.526882 332.638437) scale(0.1 -0.1)">
       <use xlink:href="#DejaVuSans-30"/>
      </g>
     </g>
    </g>
    <g id="xtick_10">
     <g id="line2d_35">
      <path d="M 573.334124 318.04 
L 573.334124 50.64 
" clip-path="url(#pa3b4dbd2e2)" style="fill: none; stroke: #b0b0b0; stroke-opacity: 0.3; stroke-width: 0.8; stroke-linecap: square"/>
     </g>
     <g id="line2d_36">
      <g>
       <use xlink:href="#m9d79873a51" x="573.334124" y="318.04" style="stroke: #000000; stroke-width: 0.8"/>
      </g>
     </g>
     <g id="text_21">
      <!-- 20 -->
      <g transform="translate(566.971624 332.638437) scale(0.1 -0.1)">
       <use xlink:href="#DejaVuSans-32"/>
       <use xlink:href="#DejaVuSans-30" transform="translate(63.623047 0)"/>
      </g>
     </g>
    </g>
    <g id="xtick_11">
     <g id="line2d_37">
      <path d="M 623.960115 318.04 
L 623.960115 50.64 
" clip-path="url(#pa3b4dbd2e2)" style="fill: none; stroke: #b0b0b0; stroke-opacity: 0.3; stroke-width: 0.8; stroke-linecap: square"/>
     </g>
     <g id="line2d_38">
      <g>
       <use xlink:href="#m9d79873a51" x="623.960115" y="318.04" style="stroke: #000000; stroke-width: 0.8"/>
      </g>
     </g>
     <g id="text_22">
      <!-- 40 -->
      <g transform="translate(617.597615 332.638437) scale(0.1 -0.1)">
       <use xlink:href="#DejaVuSans-34"/>
       <use xlink:href="#DejaVuSans-30" transform="translate(63.623047 0)"/>
      </g>
     </g>
    </g>
    <g id="xtick_12">
     <g id="line2d_39">
      <path d="M 674.586107 318.04 
L 674.586107 50.64 
" clip-path="url(#pa3b4dbd2e2)" style="fill: none; stroke: #b0b0b0; stroke-opacity: 0.3; stroke-width: 0.8; stroke-linecap: square"/>
     </g>
     <g id="line2d_40">
      <g>
       <use xlink:href="#m9d79873a51" x="674.586107" y="318.04" style="stroke: #000000; stroke-width: 0.8"/>
      </g>
     </g>
     <g id="text_23">
      <!-- 60 -->
      <g transform="translate(668.223607 332.638437) scale(0.1 -0.1)">
       <use xlink:href="#DejaVuSans-36"/>
       <use xlink:href="#DejaVuSans-30" transform="translate(63.623047 0)"/>
      </g>
     </g>
    </g>
    <g id="xtick_13">
     <g id="line2d_41">
      <path d="M 725.212098 318.04 
L 725.212098 50.64 
" clip-path="url(#pa3b4dbd2e2)" style="fill: none; stroke: #b0b0b0; stroke-opacity: 0.3; stroke-width: 0.8; stroke-linecap: square"/>
     </g>
     <g id="line2d_42">
      <g>
       <use xlink:href="#m9d79873a51" x="725.212098" y="318.04" style="stroke: #000000; stroke-width: 0.8"/>
      </g>
     </g>
     <g id="text_24">
      <!-- 80 -->
      <g transform="translate(718.849598 332.638437) scale(0.1 -0.1)">
       <use xlink:href="#DejaVuSans-38"/>
       <use xlink:href="#DejaVuSans-30" transform="translate(63.623047 0)"/>
      </g>
     </g>
    </g>
    <g id="xtick_14">
     <g id="line2d_43">
      <path d="M 775.83809 318.04 
L 775.83809 50.64 
" clip-path="url(#pa3b4dbd2e2)" style="fill: none; stroke: #b0b0b0; stroke-opacity: 0.3; stroke-width: 0.8; stroke-linecap: square"/>
     </g>
     <g id="line2d_44">
      <g>
       <use xlink:href="#m9d79873a51" x="775.83809" y="318.04" style="stroke: #000000; stroke-width: 0.8"/>
      </g>
     </g>
     <g id="text_25">
      <!-- 100 -->
      <g transform="translate(766.29434 332.638437) scale(0.1 -0.1)">
       <use xlink:href="#DejaVuSans-31"/>
       <use xlink:href="#DejaVuSans-30" transform="translate(63.623047 0)"/>
       <use xlink:href="#DejaVuSans-30" transform="translate(127.246094 0)"/>
      </g>
     </g>
    </g>
    <g id="xtick_15">
     <g id="line2d_45">
      <path d="M 826.464081 318.04 
L 826.464081 50.64 
" clip-path="url(#pa3b4dbd2e2)" style="fill: none; stroke: #b0b0b0; stroke-opacity: 0.3; stroke-width: 0.8; stroke-linecap: square"/>
     </g>
     <g id="line2d_46">
      <g>
       <use xlink:href="#m9d79873a51" x="826.464081" y="318.04" style="stroke: #000000; stroke-width: 0.8"/>
      </g>
     </g>
     <g id="text_26">
      <!-- 120 -->
      <g transform="translate(816.920331 332.638437) scale(0.1 -0.1)">
       <use xlink:href="#DejaVuSans-31"/>
       <use xlink:href="#DejaVuSans-32" transform="translate(63.623047 0)"/>
       <use xlink:href="#DejaVuSans-30" transform="translate(127.246094 0)"/>
      </g>
     </g>
    </g>
    <g id="xtick_16">
     <g id="line2d_47">
      <path d="M 877.090072 318.04 
L 877.090072 50.64 
" clip-path="url(#pa3b4dbd2e2)" style="fill: none; stroke: #b0b0b0; stroke-opacity: 0.3; stroke-width: 0.8; stroke-linecap: square"/>
     </g>
     <g id="line2d_48">
      <g>
       <use xlink:href="#m9d79873a51" x="877.090072" y="318.04" style="stroke: #000000; stroke-width: 0.8"/>
      </g>
     </g>
     <g id="text_27">
      <!-- 140 -->
      <g transform="translate(867.546322 332.638437) scale(0.1 -0.1)">
       <use xlink:href="#DejaVuSans-31"/>
       <use xlink:href="#DejaVuSans-34" transform="translate(63.623047 0)"/>
       <use xlink:href="#DejaVuSans-30" transform="translate(127.246094 0)"/>
      </g>
     </g>
    </g>
    <g id="text_28">
     <!-- Epoch -->
     <g transform="translate(698.510313 346.316562) scale(0.1 -0.1)">
      <use xlink:href="#DejaVuSans-45"/>
      <use xlink:href="#DejaVuSans-70" transform="translate(63.183594 0)"/>
      <use xlink:href="#DejaVuSans-6f" transform="translate(126.660156 0)"/>
      <use xlink:href="#DejaVuSans-63" transform="translate(187.841797 0)"/>
      <use xlink:href="#DejaVuSans-68" transform="translate(242.822266 0)"/>
     </g>
    </g>
   </g>
   <g id="matplotlib.axis_4">
    <g id="ytick_7">
     <g id="line2d_49">
      <path d="M 506.38125 318.04 
L 921.26125 318.04 
" clip-path="url(#pa3b4dbd2e2)" style="fill: none; stroke: #b0b0b0; stroke-opacity: 0.3; stroke-width: 0.8; stroke-linecap: square"/>
     </g>
     <g id="line2d_50">
      <g>
       <use xlink:href="#m424aa0b496" x="506.38125" y="318.04" style="stroke: #000000; stroke-width: 0.8"/>
      </g>
     </g>
     <g id="text_29">
      <!-- 0.5 -->
      <g transform="translate(483.478125 321.839219) scale(0.1 -0.1)">
       <use xlink:href="#DejaVuSans-30"/>
       <use xlink:href="#DejaVuSans-2e" transform="translate(63.623047 0)"/>
       <use xlink:href="#DejaVuSans-35" transform="translate(95.410156 0)"/>
      </g>
     </g>
    </g>
    <g id="ytick_8">
     <g id="line2d_51">
      <path d="M 506.38125 264.56 
L 921.26125 264.56 
" clip-path="url(#pa3b4dbd2e2)" style="fill: none; stroke: #b0b0b0; stroke-opacity: 0.3; stroke-width: 0.8; stroke-linecap: square"/>
     </g>
     <g id="line2d_52">
      <g>
       <use xlink:href="#m424aa0b496" x="506.38125" y="264.56" style="stroke: #000000; stroke-width: 0.8"/>
      </g>
     </g>
     <g id="text_30">
      <!-- 0.6 -->
      <g transform="translate(483.478125 268.359219) scale(0.1 -0.1)">
       <use xlink:href="#DejaVuSans-30"/>
       <use xlink:href="#DejaVuSans-2e" transform="translate(63.623047 0)"/>
       <use xlink:href="#DejaVuSans-36" transform="translate(95.410156 0)"/>
      </g>
     </g>
    </g>
    <g id="ytick_9">
     <g id="line2d_53">
      <path d="M 506.38125 211.08 
L 921.26125 211.08 
" clip-path="url(#pa3b4dbd2e2)" style="fill: none; stroke: #b0b0b0; stroke-opacity: 0.3; stroke-width: 0.8; stroke-linecap: square"/>
     </g>
     <g id="line2d_54">
      <g>
       <use xlink:href="#m424aa0b496" x="506.38125" y="211.08" style="stroke: #000000; stroke-width: 0.8"/>
      </g>
     </g>
     <g id="text_31">
      <!-- 0.7 -->
      <g transform="translate(483.478125 214.879219) scale(0.1 -0.1)">
       <defs>
        <path id="DejaVuSans-37" d="M 525 4666 
L 3525 4666 
L 3525 4397 
L 1831 0 
L 1172 0 
L 2766 4134 
L 525 4134 
L 525 4666 
z
" transform="scale(0.015625)"/>
       </defs>
       <use xlink:href="#DejaVuSans-30"/>
       <use xlink:href="#DejaVuSans-2e" transform="translate(63.623047 0)"/>
       <use xlink:href="#DejaVuSans-37" transform="translate(95.410156 0)"/>
      </g>
     </g>
    </g>
    <g id="ytick_10">
     <g id="line2d_55">
      <path d="M 506.38125 157.6 
L 921.26125 157.6 
" clip-path="url(#pa3b4dbd2e2)" style="fill: none; stroke: #b0b0b0; stroke-opacity: 0.3; stroke-width: 0.8; stroke-linecap: square"/>
     </g>
     <g id="line2d_56">
      <g>
       <use xlink:href="#m424aa0b496" x="506.38125" y="157.6" style="stroke: #000000; stroke-width: 0.8"/>
      </g>
     </g>
     <g id="text_32">
      <!-- 0.8 -->
      <g transform="translate(483.478125 161.399219) scale(0.1 -0.1)">
       <use xlink:href="#DejaVuSans-30"/>
       <use xlink:href="#DejaVuSans-2e" transform="translate(63.623047 0)"/>
       <use xlink:href="#DejaVuSans-38" transform="translate(95.410156 0)"/>
      </g>
     </g>
    </g>
    <g id="ytick_11">
     <g id="line2d_57">
      <path d="M 506.38125 104.12 
L 921.26125 104.12 
" clip-path="url(#pa3b4dbd2e2)" style="fill: none; stroke: #b0b0b0; stroke-opacity: 0.3; stroke-width: 0.8; stroke-linecap: square"/>
     </g>
     <g id="line2d_58">
      <g>
       <use xlink:href="#m424aa0b496" x="506.38125" y="104.12" style="stroke: #000000; stroke-width: 0.8"/>
      </g>
     </g>
     <g id="text_33">
      <!-- 0.9 -->
      <g transform="translate(483.478125 107.919219) scale(0.1 -0.1)">
       <defs>
        <path id="DejaVuSans-39" d="M 703 97 
L 703 672 
Q 941 559 1184 500 
Q 1428 441 1663 441 
Q 2288 441 2617 861 
Q 2947 1281 2994 2138 
Q 2813 1869 2534 1725 
Q 2256 1581 1919 1581 
Q 1219 1581 811 2004 
Q 403 2428 403 3163 
Q 403 3881 828 4315 
Q 1253 4750 1959 4750 
Q 2769 4750 3195 4129 
Q 3622 3509 3622 2328 
Q 3622 1225 3098 567 
Q 2575 -91 1691 -91 
Q 1453 -91 1209 -44 
Q 966 3 703 97 
z
M 1959 2075 
Q 2384 2075 2632 2365 
Q 2881 2656 2881 3163 
Q 2881 3666 2632 3958 
Q 2384 4250 1959 4250 
Q 1534 4250 1286 3958 
Q 1038 3666 1038 3163 
Q 1038 2656 1286 2365 
Q 1534 2075 1959 2075 
z
" transform="scale(0.015625)"/>
       </defs>
       <use xlink:href="#DejaVuSans-30"/>
       <use xlink:href="#DejaVuSans-2e" transform="translate(63.623047 0)"/>
       <use xlink:href="#DejaVuSans-39" transform="translate(95.410156 0)"/>
      </g>
     </g>
    </g>
    <g id="ytick_12">
     <g id="line2d_59">
      <path d="M 506.38125 50.64 
L 921.26125 50.64 
" clip-path="url(#pa3b4dbd2e2)" style="fill: none; stroke: #b0b0b0; stroke-opacity: 0.3; stroke-width: 0.8; stroke-linecap: square"/>
     </g>
     <g id="line2d_60">
      <g>
       <use xlink:href="#m424aa0b496" x="506.38125" y="50.64" style="stroke: #000000; stroke-width: 0.8"/>
      </g>
     </g>
     <g id="text_34">
      <!-- 1.0 -->
      <g transform="translate(483.478125 54.439219) scale(0.1 -0.1)">
       <use xlink:href="#DejaVuSans-31"/>
       <use xlink:href="#DejaVuSans-2e" transform="translate(63.623047 0)"/>
       <use xlink:href="#DejaVuSans-30" transform="translate(95.410156 0)"/>
      </g>
     </g>
    </g>
    <g id="text_35">
     <!-- AUC-ROC -->
     <g transform="translate(477.398438 207.616562) rotate(-90) scale(0.1 -0.1)">
      <defs>
       <path id="DejaVuSans-41" d="M 2188 4044 
L 1331 1722 
L 3047 1722 
L 2188 4044 
z
M 1831 4666 
L 2547 4666 
L 4325 0 
L 3669 0 
L 3244 1197 
L 1141 1197 
L 716 0 
L 50 0 
L 1831 4666 
z
" transform="scale(0.015625)"/>
       <path id="DejaVuSans-55" d="M 556 4666 
L 1191 4666 
L 1191 1831 
Q 1191 1081 1462 751 
Q 1734 422 2344 422 
Q 2950 422 3222 751 
Q 3494 1081 3494 1831 
L 3494 4666 
L 4128 4666 
L 4128 1753 
Q 4128 841 3676 375 
Q 3225 -91 2344 -91 
Q 1459 -91 1007 375 
Q 556 841 556 1753 
L 556 4666 
z
" transform="scale(0.015625)"/>
       <path id="DejaVuSans-43" d="M 4122 4306 
L 4122 3641 
Q 3803 3938 3442 4084 
Q 3081 4231 2675 4231 
Q 1875 4231 1450 3742 
Q 1025 3253 1025 2328 
Q 1025 1406 1450 917 
Q 1875 428 2675 428 
Q 3081 428 3442 575 
Q 3803 722 4122 1019 
L 4122 359 
Q 3791 134 3420 21 
Q 3050 -91 2638 -91 
Q 1578 -91 968 557 
Q 359 1206 359 2328 
Q 359 3453 968 4101 
Q 1578 4750 2638 4750 
Q 3056 4750 3426 4639 
Q 3797 4528 4122 4306 
z
" transform="scale(0.015625)"/>
       <path id="DejaVuSans-52" d="M 2841 2188 
Q 3044 2119 3236 1894 
Q 3428 1669 3622 1275 
L 4263 0 
L 3584 0 
L 2988 1197 
Q 2756 1666 2539 1819 
Q 2322 1972 1947 1972 
L 1259 1972 
L 1259 0 
L 628 0 
L 628 4666 
L 2053 4666 
Q 2853 4666 3247 4331 
Q 3641 3997 3641 3322 
Q 3641 2881 3436 2590 
Q 3231 2300 2841 2188 
z
M 1259 4147 
L 1259 2491 
L 2053 2491 
Q 2509 2491 2742 2702 
Q 2975 2913 2975 3322 
Q 2975 3731 2742 3939 
Q 2509 4147 2053 4147 
L 1259 4147 
z
" transform="scale(0.015625)"/>
       <path id="DejaVuSans-4f" d="M 2522 4238 
Q 1834 4238 1429 3725 
Q 1025 3213 1025 2328 
Q 1025 1447 1429 934 
Q 1834 422 2522 422 
Q 3209 422 3611 934 
Q 4013 1447 4013 2328 
Q 4013 3213 3611 3725 
Q 3209 4238 2522 4238 
z
M 2522 4750 
Q 3503 4750 4090 4092 
Q 4678 3434 4678 2328 
Q 4678 1225 4090 567 
Q 3503 -91 2522 -91 
Q 1538 -91 948 565 
Q 359 1222 359 2328 
Q 359 3434 948 4092 
Q 1538 4750 2522 4750 
z
" transform="scale(0.015625)"/>
      </defs>
      <use xlink:href="#DejaVuSans-41"/>
      <use xlink:href="#DejaVuSans-55" transform="translate(68.408203 0)"/>
      <use xlink:href="#DejaVuSans-43" transform="translate(141.601562 0)"/>
      <use xlink:href="#DejaVuSans-2d" transform="translate(211.425781 0)"/>
      <use xlink:href="#DejaVuSans-52" transform="translate(247.509766 0)"/>
      <use xlink:href="#DejaVuSans-4f" transform="translate(316.992188 0)"/>
      <use xlink:href="#DejaVuSans-43" transform="translate(395.703125 0)"/>
     </g>
    </g>
   </g>
   <g id="line2d_61">
    <path d="M 525.239432 181.55904 
L 527.770731 202.7906 
L 530.302031 193.53856 
L 532.833331 191.72024 
L 535.36463 203.69976 
L 537.89593 194.5012 
L 540.427229 164.07108 
L 542.958529 197.22868 
L 545.489828 222.15036 
L 548.021128 225.84048 
L 550.552428 202.7906 
L 553.083727 231.34892 
L 555.615027 201.88144 
L 558.146326 222.15036 
L 560.677626 198.19132 
L 563.208925 217.55108 
L 565.740225 224.93132 
L 568.271525 221.2412 
L 570.802824 202.7906 
L 573.334124 208.29904 
L 575.865423 238.72916 
L 578.396723 229.5306 
L 580.928022 214.77012 
L 583.459322 234.12988 
L 585.990622 200.00964 
L 588.521921 235.03904 
L 591.053221 229.5306 
L 593.58452 210.17084 
L 596.11582 237.82 
L 598.647119 230.43976 
L 601.178419 241.51012 
L 603.709719 230.43976 
L 606.241018 254.3988 
L 608.772318 249.79952 
L 611.303617 255.36144 
L 613.834917 226.74964 
L 616.366216 221.2412 
L 618.897516 225.84048 
L 621.428816 243.32844 
L 623.960115 228.62144 
L 626.491415 223.96868 
L 629.022714 231.34892 
L 631.554014 243.32844 
L 634.085313 232.31156 
L 636.616613 235.03904 
L 639.147913 231.34892 
L 641.679212 231.34892 
L 644.210512 247.9812 
L 646.741811 278.41132 
L 651.80441 254.3988 
L 654.33571 248.89036 
L 656.86701 257.17976 
L 659.398309 268.25012 
L 661.929609 256.2706 
L 664.460908 261.77904 
L 666.992208 262.74168 
L 669.523507 248.89036 
L 672.054807 254.3988 
L 674.586107 256.2706 
L 677.117406 242.41928 
L 679.648706 240.60096 
L 682.180005 262.74168 
L 684.711305 250.70868 
L 687.242604 248.89036 
L 689.773904 250.70868 
L 692.305204 250.70868 
L 694.836503 244.29108 
L 697.367803 278.41132 
L 699.899102 262.74168 
L 702.430402 260.86988 
L 704.961701 260.86988 
L 707.493001 264.56 
L 710.024301 269.15928 
L 712.5556 255.36144 
L 717.618199 264.56 
L 720.149499 266.37832 
L 722.680799 272.8494 
L 725.212098 253.48964 
L 727.743398 259.05156 
L 730.274697 251.67132 
L 732.805997 266.37832 
L 735.337296 256.2706 
L 737.868596 250.70868 
L 740.399896 258.08892 
L 742.931195 264.56 
L 745.462495 258.08892 
L 747.993794 254.3988 
L 750.525094 266.37832 
L 753.056393 258.08892 
L 755.587693 263.65084 
L 758.118993 268.25012 
L 760.650292 263.65084 
L 763.181592 246.1094 
L 765.712891 251.67132 
L 768.244191 258.08892 
L 770.77549 270.06844 
L 773.30679 259.96072 
L 775.83809 240.60096 
L 778.369389 242.41928 
L 780.900689 246.1094 
L 783.431988 259.96072 
L 785.963288 271.94024 
L 788.494587 246.1094 
L 791.025887 259.05156 
L 793.557187 248.89036 
L 796.088486 271.03108 
L 798.619786 259.05156 
L 801.151085 265.46916 
L 803.682385 271.03108 
L 806.213684 279.32048 
L 808.744984 260.86988 
L 811.276284 235.03904 
L 813.807583 251.67132 
L 816.338883 271.03108 
L 818.870182 247.01856 
L 821.401482 266.37832 
L 823.932781 269.15928 
L 826.464081 247.9812 
L 828.995381 265.46916 
L 831.52668 251.67132 
L 834.05798 251.67132 
L 836.589279 263.65084 
L 839.120579 252.58048 
L 841.651878 245.20024 
L 844.183178 242.41928 
L 846.714478 253.48964 
L 849.245777 248.89036 
L 851.777077 262.74168 
L 854.308376 253.48964 
L 856.839676 259.05156 
L 859.370975 238.72916 
L 861.902275 266.37832 
L 864.433575 252.58048 
L 866.964874 250.70868 
L 869.496174 267.34096 
L 872.027473 253.48964 
L 874.558773 255.36144 
L 877.090072 261.77904 
L 879.621372 248.89036 
L 882.152672 256.2706 
L 884.683971 262.74168 
L 887.215271 266.37832 
L 889.74657 255.36144 
L 892.27787 252.58048 
L 894.809169 257.17976 
L 897.340469 262.74168 
L 899.871769 247.01856 
L 902.403068 254.3988 
L 902.403068 254.3988 
" clip-path="url(#pa3b4dbd2e2)" style="fill: none; stroke: #ff6347; stroke-opacity: 0.7; stroke-linecap: square"/>
   </g>
   <g id="line2d_62">
    <path d="M 506.38125 164.07108 
L 921.26125 164.07108 
" clip-path="url(#pa3b4dbd2e2)" style="fill: none; stroke-dasharray: 5.55,2.4; stroke-dashoffset: 0; stroke: #808080; stroke-opacity: 0.5; stroke-width: 1.5"/>
   </g>
   <g id="patch_9">
    <path d="M 506.38125 318.04 
L 506.38125 50.64 
" style="fill: none; stroke: #000000; stroke-width: 0.8; stroke-linejoin: miter; stroke-linecap: square"/>
   </g>
   <g id="patch_10">
    <path d="M 921.26125 318.04 
L 921.26125 50.64 
" style="fill: none; stroke: #000000; stroke-width: 0.8; stroke-linejoin: miter; stroke-linecap: square"/>
   </g>
   <g id="patch_11">
    <path d="M 506.38125 318.04 
L 921.26125 318.04 
" style="fill: none; stroke: #000000; stroke-width: 0.8; stroke-linejoin: miter; stroke-linecap: square"/>
   </g>
   <g id="patch_12">
    <path d="M 506.38125 50.64 
L 921.26125 50.64 
" style="fill: none; stroke: #000000; stroke-width: 0.8; stroke-linejoin: miter; stroke-linecap: square"/>
   </g>
   <g id="text_36">
    <!-- Validation AUC-ROC -->
    <g transform="translate(654.35375 44.64) scale(0.12 -0.12)">
     <defs>
      <path id="DejaVuSans-56" d="M 1831 0 
L 50 4666 
L 709 4666 
L 2188 738 
L 3669 4666 
L 4325 4666 
L 2547 0 
L 1831 0 
z
" transform="scale(0.015625)"/>
      <path id="DejaVuSans-64" d="M 2906 2969 
L 2906 4863 
L 3481 4863 
L 3481 0 
L 2906 0 
L 2906 525 
Q 2725 213 2448 61 
Q 2172 -91 1784 -91 
Q 1150 -91 751 415 
Q 353 922 353 1747 
Q 353 2572 751 3078 
Q 1150 3584 1784 3584 
Q 2172 3584 2448 3432 
Q 2725 3281 2906 2969 
z
M 947 1747 
Q 947 1113 1208 752 
Q 1469 391 1925 391 
Q 2381 391 2643 752 
Q 2906 1113 2906 1747 
Q 2906 2381 2643 2742 
Q 2381 3103 1925 3103 
Q 1469 3103 1208 2742 
Q 947 2381 947 1747 
z
" transform="scale(0.015625)"/>
      <path id="DejaVuSans-74" d="M 1172 4494 
L 1172 3500 
L 2356 3500 
L 2356 3053 
L 1172 3053 
L 1172 1153 
Q 1172 725 1289 603 
Q 1406 481 1766 481 
L 2356 481 
L 2356 0 
L 1766 0 
Q 1100 0 847 248 
Q 594 497 594 1153 
L 594 3053 
L 172 3053 
L 172 3500 
L 594 3500 
L 594 4494 
L 1172 4494 
z
" transform="scale(0.015625)"/>
     </defs>
     <use xlink:href="#DejaVuSans-56"/>
     <use xlink:href="#DejaVuSans-61" transform="translate(60.658203 0)"/>
     <use xlink:href="#DejaVuSans-6c" transform="translate(121.9375 0)"/>
     <use xlink:href="#DejaVuSans-69" transform="translate(149.720703 0)"/>
     <use xlink:href="#DejaVuSans-64" transform="translate(177.503906 0)"/>
     <use xlink:href="#DejaVuSans-61" transform="translate(240.980469 0)"/>
     <use xlink:href="#DejaVuSans-74" transform="translate(302.259766 0)"/>
     <use xlink:href="#DejaVuSans-69" transform="translate(341.46875 0)"/>
     <use xlink:href="#DejaVuSans-6f" transform="translate(369.251953 0)"/>
     <use xlink:href="#DejaVuSans-6e" transform="translate(430.433594 0)"/>
     <use xlink:href="#DejaVuSans-20" transform="translate(493.8125 0)"/>
     <use xlink:href="#DejaVuSans-41" transform="translate(525.599609 0)"/>
     <use xlink:href="#DejaVuSans-55" transform="translate(594.007812 0)"/>
     <use xlink:href="#DejaVuSans-43" transform="translate(667.201172 0)"/>
     <use xlink:href="#DejaVuSans-2d" transform="translate(737.025391 0)"/>
     <use xlink:href="#DejaVuSans-52" transform="translate(773.109375 0)"/>
     <use xlink:href="#DejaVuSans-4f" transform="translate(842.591797 0)"/>
     <use xlink:href="#DejaVuSans-43" transform="translate(921.302734 0)"/>
    </g>
   </g>
   <g id="PathCollection_1">
    <defs>
     <path id="m4ea652ce4d" d="M 0 5 
C 1.326016 5 2.597899 4.473168 3.535534 3.535534 
C 4.473168 2.597899 5 1.326016 5 0 
C 5 -1.326016 4.473168 -2.597899 3.535534 -3.535534 
C 2.597899 -4.473168 1.326016 -5 0 -5 
C -1.326016 -5 -2.597899 -4.473168 -3.535534 -3.535534 
C -4.473168 -2.597899 -5 -1.326016 -5 0 
C -5 1.326016 -4.473168 2.597899 -3.535534 3.535534 
C -2.597899 4.473168 -1.326016 5 0 5 
z
" style="stroke: #ff0000"/>
    </defs>
    <g clip-path="url(#pa3b4dbd2e2)">
     <use xlink:href="#m4ea652ce4d" x="540.427229" y="164.07108" style="fill: #ff0000; stroke: #ff0000"/>
    </g>
   </g>
   <g id="legend_2">
    <g id="patch_13">
     <path d="M 783.359688 87.99625 
L 914.26125 87.99625 
Q 916.26125 87.99625 916.26125 85.99625 
L 916.26125 57.64 
Q 916.26125 55.64 914.26125 55.64 
L 783.359688 55.64 
Q 781.359688 55.64 781.359688 57.64 
L 781.359688 85.99625 
Q 781.359688 87.99625 783.359688 87.99625 
z
" style="fill: #ffffff; opacity: 0.8; stroke: #cccccc; stroke-linejoin: miter"/>
    </g>
    <g id="line2d_63">
     <path d="M 785.359688 63.738437 
L 795.359688 63.738437 
L 805.359688 63.738437 
" style="fill: none; stroke: #ff6347; stroke-opacity: 0.7; stroke-linecap: square"/>
    </g>
    <g id="text_37">
     <!-- Val AUC-ROC -->
     <g transform="translate(813.359688 67.238437) scale(0.1 -0.1)">
      <use xlink:href="#DejaVuSans-56"/>
      <use xlink:href="#DejaVuSans-61" transform="translate(60.658203 0)"/>
      <use xlink:href="#DejaVuSans-6c" transform="translate(121.9375 0)"/>
      <use xlink:href="#DejaVuSans-20" transform="translate(149.720703 0)"/>
      <use xlink:href="#DejaVuSans-41" transform="translate(181.507812 0)"/>
      <use xlink:href="#DejaVuSans-55" transform="translate(249.916016 0)"/>
      <use xlink:href="#DejaVuSans-43" transform="translate(323.109375 0)"/>
      <use xlink:href="#DejaVuSans-2d" transform="translate(392.933594 0)"/>
      <use xlink:href="#DejaVuSans-52" transform="translate(429.017578 0)"/>
      <use xlink:href="#DejaVuSans-4f" transform="translate(498.5 0)"/>
      <use xlink:href="#DejaVuSans-43" transform="translate(577.210938 0)"/>
     </g>
    </g>
    <g id="PathCollection_2">
     <g>
      <use xlink:href="#m4ea652ce4d" x="795.359688" y="79.291562" style="fill: #ff0000; stroke: #ff0000"/>
     </g>
    </g>
    <g id="text_38">
     <!-- Best: 0.7879 @ ep7 -->
     <g transform="translate(813.359688 81.916562) scale(0.1 -0.1)">
      <defs>
       <path id="DejaVuSans-42" d="M 1259 2228 
L 1259 519 
L 2272 519 
Q 2781 519 3026 730 
Q 3272 941 3272 1375 
Q 3272 1813 3026 2020 
Q 2781 2228 2272 2228 
L 1259 2228 
z
M 1259 4147 
L 1259 2741 
L 2194 2741 
Q 2656 2741 2882 2914 
Q 3109 3088 3109 3444 
Q 3109 3797 2882 3972 
Q 2656 4147 2194 4147 
L 1259 4147 
z
M 628 4666 
L 2241 4666 
Q 2963 4666 3353 4366 
Q 3744 4066 3744 3513 
Q 3744 3084 3544 2831 
Q 3344 2578 2956 2516 
Q 3422 2416 3680 2098 
Q 3938 1781 3938 1306 
Q 3938 681 3513 340 
Q 3088 0 2303 0 
L 628 0 
L 628 4666 
z
" transform="scale(0.015625)"/>
       <path id="DejaVuSans-3a" d="M 750 794 
L 1409 794 
L 1409 0 
L 750 0 
L 750 794 
z
M 750 3309 
L 1409 3309 
L 1409 2516 
L 750 2516 
L 750 3309 
z
" transform="scale(0.015625)"/>
       <path id="DejaVuSans-40" d="M 2381 1678 
Q 2381 1231 2603 976 
Q 2825 722 3213 722 
Q 3597 722 3817 978 
Q 4038 1234 4038 1678 
Q 4038 2116 3813 2373 
Q 3588 2631 3206 2631 
Q 2828 2631 2604 2375 
Q 2381 2119 2381 1678 
z
M 4084 744 
Q 3897 503 3655 389 
Q 3413 275 3091 275 
Q 2553 275 2217 664 
Q 1881 1053 1881 1678 
Q 1881 2303 2218 2693 
Q 2556 3084 3091 3084 
Q 3413 3084 3656 2967 
Q 3900 2850 4084 2613 
L 4084 3022 
L 4531 3022 
L 4531 722 
Q 4988 791 5245 1139 
Q 5503 1488 5503 2041 
Q 5503 2375 5404 2669 
Q 5306 2963 5106 3213 
Q 4781 3622 4314 3839 
Q 3847 4056 3297 4056 
Q 2913 4056 2559 3954 
Q 2206 3853 1906 3653 
Q 1416 3334 1139 2817 
Q 863 2300 863 1697 
Q 863 1200 1042 765 
Q 1222 331 1563 0 
Q 1891 -325 2322 -495 
Q 2753 -666 3244 -666 
Q 3647 -666 4036 -530 
Q 4425 -394 4750 -141 
L 5031 -488 
Q 4641 -791 4180 -952 
Q 3719 -1113 3244 -1113 
Q 2666 -1113 2153 -908 
Q 1641 -703 1241 -313 
Q 841 78 631 592 
Q 422 1106 422 1697 
Q 422 2266 634 2781 
Q 847 3297 1241 3688 
Q 1644 4084 2172 4295 
Q 2700 4506 3291 4506 
Q 3953 4506 4520 4234 
Q 5088 3963 5472 3463 
Q 5706 3156 5829 2797 
Q 5953 2438 5953 2053 
Q 5953 1231 5456 756 
Q 4959 281 4084 263 
L 4084 744 
z
" transform="scale(0.015625)"/>
      </defs>
      <use xlink:href="#DejaVuSans-42"/>
      <use xlink:href="#DejaVuSans-65" transform="translate(68.603516 0)"/>
      <use xlink:href="#DejaVuSans-73" transform="translate(130.126953 0)"/>
      <use xlink:href="#DejaVuSans-74" transform="translate(182.226562 0)"/>
      <use xlink:href="#DejaVuSans-3a" transform="translate(221.435547 0)"/>
      <use xlink:href="#DejaVuSans-20" transform="translate(255.126953 0)"/>
      <use xlink:href="#DejaVuSans-30" transform="translate(286.914062 0)"/>
      <use xlink:href="#DejaVuSans-2e" transform="translate(350.537109 0)"/>
      <use xlink:href="#DejaVuSans-37" transform="translate(382.324219 0)"/>
      <use xlink:href="#DejaVuSans-38" transform="translate(445.947266 0)"/>
      <use xlink:href="#DejaVuSans-37" transform="translate(509.570312 0)"/>
      <use xlink:href="#DejaVuSans-39" transform="translate(573.193359 0)"/>
      <use xlink:href="#DejaVuSans-20" transform="translate(636.816406 0)"/>
      <use xlink:href="#DejaVuSans-40" transform="translate(668.603516 0)"/>
      <use xlink:href="#DejaVuSans-20" transform="translate(768.603516 0)"/>
      <use xlink:href="#DejaVuSans-65" transform="translate(800.390625 0)"/>
      <use xlink:href="#DejaVuSans-70" transform="translate(861.914062 0)"/>
      <use xlink:href="#DejaVuSans-37" transform="translate(925.390625 0)"/>
     </g>
    </g>
   </g>
  </g>
  <g id="text_39">
   <!-- Job 9550842 — Channel Adapter (backbone 1e-5 / adapter+head 3e-4) -->
   <g transform="translate(232.245859 17.077969) scale(0.13 -0.13)">
    <defs>
     <path id="DejaVuSans-4a" d="M 628 4666 
L 1259 4666 
L 1259 325 
Q 1259 -519 939 -900 
Q 619 -1281 -91 -1281 
L -331 -1281 
L -331 -750 
L -134 -750 
Q 284 -750 456 -515 
Q 628 -281 628 325 
L 628 4666 
z
" transform="scale(0.015625)"/>
     <path id="DejaVuSans-62" d="M 3116 1747 
Q 3116 2381 2855 2742 
Q 2594 3103 2138 3103 
Q 1681 3103 1420 2742 
Q 1159 2381 1159 1747 
Q 1159 1113 1420 752 
Q 1681 391 2138 391 
Q 2594 391 2855 752 
Q 3116 1113 3116 1747 
z
M 1159 2969 
Q 1341 3281 1617 3432 
Q 1894 3584 2278 3584 
Q 2916 3584 3314 3078 
Q 3713 2572 3713 1747 
Q 3713 922 3314 415 
Q 2916 -91 2278 -91 
Q 1894 -91 1617 61 
Q 1341 213 1159 525 
L 1159 0 
L 581 0 
L 581 4863 
L 1159 4863 
L 1159 2969 
z
" transform="scale(0.015625)"/>
     <path id="DejaVuSans-2014" d="M 313 1978 
L 6088 1978 
L 6088 1528 
L 313 1528 
L 313 1978 
z
" transform="scale(0.015625)"/>
     <path id="DejaVuSans-28" d="M 1984 4856 
Q 1566 4138 1362 3434 
Q 1159 2731 1159 2009 
Q 1159 1288 1364 580 
Q 1569 -128 1984 -844 
L 1484 -844 
Q 1016 -109 783 600 
Q 550 1309 550 2009 
Q 550 2706 781 3412 
Q 1013 4119 1484 4856 
L 1984 4856 
z
" transform="scale(0.015625)"/>
     <path id="DejaVuSans-6b" d="M 581 4863 
L 1159 4863 
L 1159 1991 
L 2875 3500 
L 3609 3500 
L 1753 1863 
L 3688 0 
L 2938 0 
L 1159 1709 
L 1159 0 
L 581 0 
L 581 4863 
z
" transform="scale(0.015625)"/>
     <path id="DejaVuSans-2f" d="M 1625 4666 
L 2156 4666 
L 531 -594 
L 0 -594 
L 1625 4666 
z
" transform="scale(0.015625)"/>
     <path id="DejaVuSans-2b" d="M 2944 4013 
L 2944 2272 
L 4684 2272 
L 4684 1741 
L 2944 1741 
L 2944 0 
L 2419 0 
L 2419 1741 
L 678 1741 
L 678 2272 
L 2419 2272 
L 2419 4013 
L 2944 4013 
z
" transform="scale(0.015625)"/>
     <path id="DejaVuSans-29" d="M 513 4856 
L 1013 4856 
Q 1481 4119 1714 3412 
Q 1947 2706 1947 2009 
Q 1947 1309 1714 600 
Q 1481 -109 1013 -844 
L 513 -844 
Q 928 -128 1133 580 
Q 1338 1288 1338 2009 
Q 1338 2731 1133 3434 
Q 928 4138 513 4856 
z
" transform="scale(0.015625)"/>
    </defs>
    <use xlink:href="#DejaVuSans-4a"/>
    <use xlink:href="#DejaVuSans-6f" transform="translate(29.492188 0)"/>
    <use xlink:href="#DejaVuSans-62" transform="translate(90.673828 0)"/>
    <use xlink:href="#DejaVuSans-20" transform="translate(154.150391 0)"/>
    <use xlink:href="#DejaVuSans-39" transform="translate(185.9375 0)"/>
    <use xlink:href="#DejaVuSans-35" transform="translate(249.560547 0)"/>
    <use xlink:href="#DejaVuSans-35" transform="translate(313.183594 0)"/>
    <use xlink:href="#DejaVuSans-30" transform="translate(376.806641 0)"/>
    <use xlink:href="#DejaVuSans-38" transform="translate(440.429688 0)"/>
    <use xlink:href="#DejaVuSans-34" transform="translate(504.052734 0)"/>
    <use xlink:href="#DejaVuSans-32" transform="translate(567.675781 0)"/>
    <use xlink:href="#DejaVuSans-20" transform="translate(631.298828 0)"/>
    <use xlink:href="#DejaVuSans-2014" transform="translate(663.085938 0)"/>
    <use xlink:href="#DejaVuSans-20" transform="translate(763.085938 0)"/>
    <use xlink:href="#DejaVuSans-43" transform="translate(794.873047 0)"/>
    <use xlink:href="#DejaVuSans-68" transform="translate(864.697266 0)"/>
    <use xlink:href="#DejaVuSans-61" transform="translate(928.076172 0)"/>
    <use xlink:href="#DejaVuSans-6e" transform="translate(989.355469 0)"/>
    <use xlink:href="#DejaVuSans-6e" transform="translate(1052.734375 0)"/>
    <use xlink:href="#DejaVuSans-65" transform="translate(1116.113281 0)"/>
    <use xlink:href="#DejaVuSans-6c" transform="translate(1177.636719 0)"/>
    <use xlink:href="#DejaVuSans-20" transform="translate(1205.419922 0)"/>
    <use xlink:href="#DejaVuSans-41" transform="translate(1237.207031 0)"/>
    <use xlink:href="#DejaVuSans-64" transform="translate(1303.865234 0)"/>
    <use xlink:href="#DejaVuSans-61" transform="translate(1367.341797 0)"/>
    <use xlink:href="#DejaVuSans-70" transform="translate(1428.621094 0)"/>
    <use xlink:href="#DejaVuSans-74" transform="translate(1492.097656 0)"/>
    <use xlink:href="#DejaVuSans-65" transform="translate(1531.306641 0)"/>
    <use xlink:href="#DejaVuSans-72" transform="translate(1592.830078 0)"/>
    <use xlink:href="#DejaVuSans-20" transform="translate(1633.943359 0)"/>
    <use xlink:href="#DejaVuSans-28" transform="translate(1665.730469 0)"/>
    <use xlink:href="#DejaVuSans-62" transform="translate(1704.744141 0)"/>
    <use xlink:href="#DejaVuSans-61" transform="translate(1768.220703 0)"/>
    <use xlink:href="#DejaVuSans-63" transform="translate(1829.5 0)"/>
    <use xlink:href="#DejaVuSans-6b" transform="translate(1884.480469 0)"/>
    <use xlink:href="#DejaVuSans-62" transform="translate(1942.390625 0)"/>
    <use xlink:href="#DejaVuSans-6f" transform="translate(2005.867188 0)"/>
    <use xlink:href="#DejaVuSans-6e" transform="translate(2067.048828 0)"/>
    <use xlink:href="#DejaVuSans-65" transform="translate(2130.427734 0)"/>
    <use xlink:href="#DejaVuSans-20" transform="translate(2191.951172 0)"/>
    <use xlink:href="#DejaVuSans-31" transform="translate(2223.738281 0)"/>
    <use xlink:href="#DejaVuSans-65" transform="translate(2287.361328 0)"/>
    <use xlink:href="#DejaVuSans-2d" transform="translate(2348.884766 0)"/>
    <use xlink:href="#DejaVuSans-35" transform="translate(2384.96875 0)"/>
    <use xlink:href="#DejaVuSans-20" transform="translate(2448.591797 0)"/>
    <use xlink:href="#DejaVuSans-2f" transform="translate(2480.378906 0)"/>
    <use xlink:href="#DejaVuSans-20" transform="translate(2514.070312 0)"/>
    <use xlink:href="#DejaVuSans-61" transform="translate(2545.857422 0)"/>
    <use xlink:href="#DejaVuSans-64" transform="translate(2607.136719 0)"/>
    <use xlink:href="#DejaVuSans-61" transform="translate(2670.613281 0)"/>
    <use xlink:href="#DejaVuSans-70" transform="translate(2731.892578 0)"/>
    <use xlink:href="#DejaVuSans-74" transform="translate(2795.369141 0)"/>
    <use xlink:href="#DejaVuSans-65" transform="translate(2834.578125 0)"/>
    <use xlink:href="#DejaVuSans-72" transform="translate(2896.101562 0)"/>
    <use xlink:href="#DejaVuSans-2b" transform="translate(2937.214844 0)"/>
    <use xlink:href="#DejaVuSans-68" transform="translate(3021.003906 0)"/>
    <use xlink:href="#DejaVuSans-65" transform="translate(3084.382812 0)"/>
    <use xlink:href="#DejaVuSans-61" transform="translate(3145.90625 0)"/>
    <use xlink:href="#DejaVuSans-64" transform="translate(3207.185547 0)"/>
    <use xlink:href="#DejaVuSans-20" transform="translate(3270.662109 0)"/>
    <use xlink:href="#DejaVuSans-33" transform="translate(3302.449219 0)"/>
    <use xlink:href="#DejaVuSans-65" transform="translate(3366.072266 0)"/>
    <use xlink:href="#DejaVuSans-2d" transform="translate(3427.595703 0)"/>
    <use xlink:href="#DejaVuSans-34" transform="translate(3463.679688 0)"/>
    <use xlink:href="#DejaVuSans-29" transform="translate(3527.302734 0)"/>
   </g>
  </g>
 </g>
 <defs>
  <clipPath id="pe650dd2d18">
   <rect x="43.78125" y="50.64" width="414.88" height="267.4"/>
  </clipPath>
  <clipPath id="pa3b4dbd2e2">
   <rect x="506.38125" y="50.64" width="414.88" height="267.4"/>
  </clipPath>
 </defs>
</svg>
