<?xml version="1.0" encoding="utf-8" standalone="no"?>
<!DOCTYPE svg PUBLIC "-//W3C//DTD SVG 1.1//EN"
  "http://www.w3.org/Graphics/SVG/1.1/DTD/svg11.dtd">
<svg xmlns:xlink="http://www.w3.org/1999/xlink" width="928.52375pt" height="355.59625pt" viewBox="0 0 928.52375 355.59625" xmlns="http://www.w3.org/2000/svg" version="1.1">
 <metadata>
  <rdf:RDF xmlns:dc="http://purl.org/dc/elements/1.1/" xmlns:cc="http://creativecommons.org/ns#" xmlns:rdf="http://www.w3.org/1999/02/22-rdf-syntax-ns#">
   <cc:Work>
    <dc:type rdf:resource="http://purl.org/dc/dcmitype/StillImage"/>
    <dc:date>2026-07-01T02:51:25.935406</dc:date>
    <dc:format>image/svg+xml</dc:format>
    <dc:creator>
     <cc:Agent>
      <dc:title>Matplotlib v3.10.9, https://matplotlib.org/</dc:title>
     </cc:Agent>
    </dc:creator>
   </cc:Work>
  </rdf:RDF>
 </metadata>
 <defs>
  <style type="text/css">*{stroke-linejoin: round; stroke-linecap: butt}</style>
 </defs>
 <g id="figure_1">
  <g id="patch_1">
   <path d="M 0 355.59625 
L 928.52375 355.59625 
L 928.52375 0 
L 0 0 
z
" style="fill: #ffffff"/>
  </g>
  <g id="axes_1">
   <g id="patch_2">
    <path d="M 50.14375 318.04 
L 461.87375 318.04 
L 461.87375 50.64 
L 50.14375 50.64 
z
" style="fill: #ffffff"/>
   </g>
   <g id="matplotlib.axis_1">
    <g id="xtick_1">
     <g id="line2d_1">
      <path d="M 66.346669 318.04 
L 66.346669 50.64 
" clip-path="url(#pc54d1b4e92)" style="fill: none; stroke: #b0b0b0; stroke-opacity: 0.3; stroke-width: 0.8; stroke-linecap: square"/>
     </g>
     <g id="line2d_2">
      <defs>
       <path id="mbc7b0fd971" d="M 0 0 
L 0 3.5 
" style="stroke: #000000; stroke-width: 0.8"/>
      </defs>
      <g>
       <use xlink:href="#mbc7b0fd971" x="66.346669" y="318.04" style="stroke: #000000; stroke-width: 0.8"/>
      </g>
     </g>
     <g id="text_1">
      <!-- 0 -->
      <g transform="translate(63.165419 332.638437) scale(0.1 -0.1)">
       <defs>
        <path id="DejaVuSans-30" d="M 2034 4250 
Q 1547 4250 1301 3770 
Q 1056 3291 1056 2328 
Q 1056 1369 1301 889 
Q 1547 409 2034 409 
Q 2525 409 2770 889 
Q 3016 1369 3016 2328 
Q 3016 3291 2770 3770 
Q 2525 4250 2034 4250 
z
M 2034 4750 
Q 2819 4750 3233 4129 
Q 3647 3509 3647 2328 
Q 3647 1150 3233 529 
Q 2819 -91 2034 -91 
Q 1250 -91 836 529 
Q 422 1150 422 2328 
Q 422 3509 836 4129 
Q 1250 4750 2034 4750 
z
" transform="scale(0.015625)"/>
       </defs>
       <use xlink:href="#DejaVuSans-30"/>
      </g>
     </g>
    </g>
    <g id="xtick_2">
     <g id="line2d_3">
      <path d="M 116.58828 318.04 
L 116.58828 50.64 
" clip-path="url(#pc54d1b4e92)" style="fill: none; stroke: #b0b0b0; stroke-opacity: 0.3; stroke-width: 0.8; stroke-linecap: square"/>
     </g>
     <g id="line2d_4">
      <g>
       <use xlink:href="#mbc7b0fd971" x="116.58828" y="318.04" style="stroke: #000000; stroke-width: 0.8"/>
      </g>
     </g>
     <g id="text_2">
      <!-- 20 -->
      <g transform="translate(110.22578 332.638437) scale(0.1 -0.1)">
       <defs>
        <path id="DejaVuSans-32" d="M 1228 531 
L 3431 531 
L 3431 0 
L 469 0 
L 469 531 
Q 828 903 1448 1529 
Q 2069 2156 2228 2338 
Q 2531 2678 2651 2914 
Q 2772 3150 2772 3378 
Q 2772 3750 2511 3984 
Q 2250 4219 1831 4219 
Q 1534 4219 1204 4116 
Q 875 4013 500 3803 
L 500 4441 
Q 881 4594 1212 4672 
Q 1544 4750 1819 4750 
Q 2544 4750 2975 4387 
Q 3406 4025 3406 3419 
Q 3406 3131 3298 2873 
Q 3191 2616 2906 2266 
Q 2828 2175 2409 1742 
Q 1991 1309 1228 531 
z
" transform="scale(0.015625)"/>
       </defs>
       <use xlink:href="#DejaVuSans-32"/>
       <use xlink:href="#DejaVuSans-30" transform="translate(63.623047 0)"/>
      </g>
     </g>
    </g>
    <g id="xtick_3">
     <g id="line2d_5">
      <path d="M 166.829891 318.04 
L 166.829891 50.64 
" clip-path="url(#pc54d1b4e92)" style="fill: none; stroke: #b0b0b0; stroke-opacity: 0.3; stroke-width: 0.8; stroke-linecap: square"/>
     </g>
     <g id="line2d_6">
      <g>
       <use xlink:href="#mbc7b0fd971" x="166.829891" y="318.04" style="stroke: #000000; stroke-width: 0.8"/>
      </g>
     </g>
     <g id="text_3">
      <!-- 40 -->
      <g transform="translate(160.467391 332.638437) scale(0.1 -0.1)">
       <defs>
        <path id="DejaVuSans-34" d="M 2419 4116 
L 825 1625 
L 2419 1625 
L 2419 4116 
z
M 2253 4666 
L 3047 4666 
L 3047 1625 
L 3713 1625 
L 3713 1100 
L 3047 1100 
L 3047 0 
L 2419 0 
L 2419 1100 
L 313 1100 
L 313 1709 
L 2253 4666 
z
" transform="scale(0.015625)"/>
       </defs>
       <use xlink:href="#DejaVuSans-34"/>
       <use xlink:href="#DejaVuSans-30" transform="translate(63.623047 0)"/>
      </g>
     </g>
    </g>
    <g id="xtick_4">
     <g id="line2d_7">
      <path d="M 217.071502 318.04 
L 217.071502 50.64 
" clip-path="url(#pc54d1b4e92)" style="fill: none; stroke: #b0b0b0; stroke-opacity: 0.3; stroke-width: 0.8; stroke-linecap: square"/>
     </g>
     <g id="line2d_8">
      <g>
       <use xlink:href="#mbc7b0fd971" x="217.071502" y="318.04" style="stroke: #000000; stroke-width: 0.8"/>
      </g>
     </g>
     <g id="text_4">
      <!-- 60 -->
      <g transform="translate(210.709002 332.638437) scale(0.1 -0.1)">
       <defs>
        <path id="DejaVuSans-36" d="M 2113 2584 
Q 1688 2584 1439 2293 
Q 1191 2003 1191 1497 
Q 1191 994 1439 701 
Q 1688 409 2113 409 
Q 2538 409 2786 701 
Q 3034 994 3034 1497 
Q 3034 2003 2786 2293 
Q 2538 2584 2113 2584 
z
M 3366 4563 
L 3366 3988 
Q 3128 4100 2886 4159 
Q 2644 4219 2406 4219 
Q 1781 4219 1451 3797 
Q 1122 3375 1075 2522 
Q 1259 2794 1537 2939 
Q 1816 3084 2150 3084 
Q 2853 3084 3261 2657 
Q 3669 2231 3669 1497 
Q 3669 778 3244 343 
Q 2819 -91 2113 -91 
Q 1303 -91 875 529 
Q 447 1150 447 2328 
Q 447 3434 972 4092 
Q 1497 4750 2381 4750 
Q 2619 4750 2861 4703 
Q 3103 4656 3366 4563 
z
" transform="scale(0.015625)"/>
       </defs>
       <use xlink:href="#DejaVuSans-36"/>
       <use xlink:href="#DejaVuSans-30" transform="translate(63.623047 0)"/>
      </g>
     </g>
    </g>
    <g id="xtick_5">
     <g id="line2d_9">
      <path d="M 267.313112 318.04 
L 267.313112 50.64 
" clip-path="url(#pc54d1b4e92)" style="fill: none; stroke: #b0b0b0; stroke-opacity: 0.3; stroke-width: 0.8; stroke-linecap: square"/>
     </g>
     <g id="line2d_10">
      <g>
       <use xlink:href="#mbc7b0fd971" x="267.313112" y="318.04" style="stroke: #000000; stroke-width: 0.8"/>
      </g>
     </g>
     <g id="text_5">
      <!-- 80 -->
      <g transform="translate(260.950612 332.638437) scale(0.1 -0.1)">
       <defs>
        <path id="DejaVuSans-38" d="M 2034 2216 
Q 1584 2216 1326 1975 
Q 1069 1734 1069 1313 
Q 1069 891 1326 650 
Q 1584 409 2034 409 
Q 2484 409 2743 651 
Q 3003 894 3003 1313 
Q 3003 1734 2745 1975 
Q 2488 2216 2034 2216 
z
M 1403 2484 
Q 997 2584 770 2862 
Q 544 3141 544 3541 
Q 544 4100 942 4425 
Q 1341 4750 2034 4750 
Q 2731 4750 3128 4425 
Q 3525 4100 3525 3541 
Q 3525 3141 3298 2862 
Q 3072 2584 2669 2484 
Q 3125 2378 3379 2068 
Q 3634 1759 3634 1313 
Q 3634 634 3220 271 
Q 2806 -91 2034 -91 
Q 1263 -91 848 271 
Q 434 634 434 1313 
Q 434 1759 690 2068 
Q 947 2378 1403 2484 
z
M 1172 3481 
Q 1172 3119 1398 2916 
Q 1625 2713 2034 2713 
Q 2441 2713 2670 2916 
Q 2900 3119 2900 3481 
Q 2900 3844 2670 4047 
Q 2441 4250 2034 4250 
Q 1625 4250 1398 4047 
Q 1172 3844 1172 3481 
z
" transform="scale(0.015625)"/>
       </defs>
       <use xlink:href="#DejaVuSans-38"/>
       <use xlink:href="#DejaVuSans-30" transform="translate(63.623047 0)"/>
      </g>
     </g>
    </g>
    <g id="xtick_6">
     <g id="line2d_11">
      <path d="M 317.554723 318.04 
L 317.554723 50.64 
" clip-path="url(#pc54d1b4e92)" style="fill: none; stroke: #b0b0b0; stroke-opacity: 0.3; stroke-width: 0.8; stroke-linecap: square"/>
     </g>
     <g id="line2d_12">
      <g>
       <use xlink:href="#mbc7b0fd971" x="317.554723" y="318.04" style="stroke: #000000; stroke-width: 0.8"/>
      </g>
     </g>
     <g id="text_6">
      <!-- 100 -->
      <g transform="translate(308.010973 332.638437) scale(0.1 -0.1)">
       <defs>
        <path id="DejaVuSans-31" d="M 794 531 
L 1825 531 
L 1825 4091 
L 703 3866 
L 703 4441 
L 1819 4666 
L 2450 4666 
L 2450 531 
L 3481 531 
L 3481 0 
L 794 0 
L 794 531 
z
" transform="scale(0.015625)"/>
       </defs>
       <use xlink:href="#DejaVuSans-31"/>
       <use xlink:href="#DejaVuSans-30" transform="translate(63.623047 0)"/>
       <use xlink:href="#DejaVuSans-30" transform="translate(127.246094 0)"/>
      </g>
     </g>
    </g>
    <g id="xtick_7">
     <g id="line2d_13">
      <path d="M 367.796334 318.04 
L 367.796334 50.64 
" clip-path="url(#pc54d1b4e92)" style="fill: none; stroke: #b0b0b0; stroke-opacity: 0.3; stroke-width: 0.8; stroke-linecap: square"/>
     </g>
     <g id="line2d_14">
      <g>
       <use xlink:href="#mbc7b0fd971" x="367.796334" y="318.04" style="stroke: #000000; stroke-width: 0.8"/>
      </g>
     </g>
     <g id="text_7">
      <!-- 120 -->
      <g transform="translate(358.252584 332.638437) scale(0.1 -0.1)">
       <use xlink:href="#DejaVuSans-31"/>
       <use xlink:href="#DejaVuSans-32" transform="translate(63.623047 0)"/>
       <use xlink:href="#DejaVuSans-30" transform="translate(127.246094 0)"/>
      </g>
     </g>
    </g>
    <g id="xtick_8">
     <g id="line2d_15">
      <path d="M 418.037945 318.04 
L 418.037945 50.64 
" clip-path="url(#pc54d1b4e92)" style="fill: none; stroke: #b0b0b0; stroke-opacity: 0.3; stroke-width: 0.8; stroke-linecap: square"/>
     </g>
     <g id="line2d_16">
      <g>
       <use xlink:href="#mbc7b0fd971" x="418.037945" y="318.04" style="stroke: #000000; stroke-width: 0.8"/>
      </g>
     </g>
     <g id="text_8">
      <!-- 140 -->
      <g transform="translate(408.494195 332.638437) scale(0.1 -0.1)">
       <use xlink:href="#DejaVuSans-31"/>
       <use xlink:href="#DejaVuSans-34" transform="translate(63.623047 0)"/>
       <use xlink:href="#DejaVuSans-30" transform="translate(127.246094 0)"/>
      </g>
     </g>
    </g>
    <g id="text_9">
     <!-- Epoch -->
     <g transform="translate(240.697812 346.316562) scale(0.1 -0.1)">
      <defs>
       <path id="DejaVuSans-45" d="M 628 4666 
L 3578 4666 
L 3578 4134 
L 1259 4134 
L 1259 2753 
L 3481 2753 
L 3481 2222 
L 1259 2222 
L 1259 531 
L 3634 531 
L 3634 0 
L 628 0 
L 628 4666 
z
" transform="scale(0.015625)"/>
       <path id="DejaVuSans-70" d="M 1159 525 
L 1159 -1331 
L 581 -1331 
L 581 3500 
L 1159 3500 
L 1159 2969 
Q 1341 3281 1617 3432 
Q 1894 3584 2278 3584 
Q 2916 3584 3314 3078 
Q 3713 2572 3713 1747 
Q 3713 922 3314 415 
Q 2916 -91 2278 -91 
Q 1894 -91 1617 61 
Q 1341 213 1159 525 
z
M 3116 1747 
Q 3116 2381 2855 2742 
Q 2594 3103 2138 3103 
Q 1681 3103 1420 2742 
Q 1159 2381 1159 1747 
Q 1159 1113 1420 752 
Q 1681 391 2138 391 
Q 2594 391 2855 752 
Q 3116 1113 3116 1747 
z
" transform="scale(0.015625)"/>
       <path id="DejaVuSans-6f" d="M 1959 3097 
Q 1497 3097 1228 2736 
Q 959 2375 959 1747 
Q 959 1119 1226 758 
Q 1494 397 1959 397 
Q 2419 397 2687 759 
Q 2956 1122 2956 1747 
Q 2956 2369 2687 2733 
Q 2419 3097 1959 3097 
z
M 1959 3584 
Q 2709 3584 3137 3096 
Q 3566 2609 3566 1747 
Q 3566 888 3137 398 
Q 2709 -91 1959 -91 
Q 1206 -91 779 398 
Q 353 888 353 1747 
Q 353 2609 779 3096 
Q 1206 3584 1959 3584 
z
" transform="scale(0.015625)"/>
       <path id="DejaVuSans-63" d="M 3122 3366 
L 3122 2828 
Q 2878 2963 2633 3030 
Q 2388 3097 2138 3097 
Q 1578 3097 1268 2742 
Q 959 2388 959 1747 
Q 959 1106 1268 751 
Q 1578 397 2138 397 
Q 2388 397 2633 464 
Q 2878 531 3122 666 
L 3122 134 
Q 2881 22 2623 -34 
Q 2366 -91 2075 -91 
Q 1284 -91 818 406 
Q 353 903 353 1747 
Q 353 2603 823 3093 
Q 1294 3584 2113 3584 
Q 2378 3584 2631 3529 
Q 2884 3475 3122 3366 
z
" transform="scale(0.015625)"/>
       <path id="DejaVuSans-68" d="M 3513 2113 
L 3513 0 
L 2938 0 
L 2938 2094 
Q 2938 2591 2744 2837 
Q 2550 3084 2163 3084 
Q 1697 3084 1428 2787 
Q 1159 2491 1159 1978 
L 1159 0 
L 581 0 
L 581 4863 
L 1159 4863 
L 1159 2956 
Q 1366 3272 1645 3428 
Q 1925 3584 2291 3584 
Q 2894 3584 3203 3211 
Q 3513 2838 3513 2113 
z
" transform="scale(0.015625)"/>
      </defs>
      <use xlink:href="#DejaVuSans-45"/>
      <use xlink:href="#DejaVuSans-70" transform="translate(63.183594 0)"/>
      <use xlink:href="#DejaVuSans-6f" transform="translate(126.660156 0)"/>
      <use xlink:href="#DejaVuSans-63" transform="translate(187.841797 0)"/>
      <use xlink:href="#DejaVuSans-68" transform="translate(242.822266 0)"/>
     </g>
    </g>
   </g>
   <g id="matplotlib.axis_2">
    <g id="ytick_1">
     <g id="line2d_17">
      <path d="M 50.14375 306.740587 
L 461.87375 306.740587 
" clip-path="url(#pc54d1b4e92)" style="fill: none; stroke: #b0b0b0; stroke-opacity: 0.3; stroke-width: 0.8; stroke-linecap: square"/>
     </g>
     <g id="line2d_18">
      <defs>
       <path id="m621cd8e5f0" d="M 0 0 
L -3.5 0 
" style="stroke: #000000; stroke-width: 0.8"/>
      </defs>
      <g>
       <use xlink:href="#m621cd8e5f0" x="50.14375" y="306.740587" style="stroke: #000000; stroke-width: 0.8"/>
      </g>
     </g>
     <g id="text_10">
      <!-- 0.00 -->
      <g transform="translate(20.878125 310.539806) scale(0.1 -0.1)">
       <defs>
        <path id="DejaVuSans-2e" d="M 684 794 
L 1344 794 
L 1344 0 
L 684 0 
L 684 794 
z
" transform="scale(0.015625)"/>
       </defs>
       <use xlink:href="#DejaVuSans-30"/>
       <use xlink:href="#DejaVuSans-2e" transform="translate(63.623047 0)"/>
       <use xlink:href="#DejaVuSans-30" transform="translate(95.410156 0)"/>
       <use xlink:href="#DejaVuSans-30" transform="translate(159.033203 0)"/>
      </g>
     </g>
    </g>
    <g id="ytick_2">
     <g id="line2d_19">
      <path d="M 50.14375 267.870918 
L 461.87375 267.870918 
" clip-path="url(#pc54d1b4e92)" style="fill: none; stroke: #b0b0b0; stroke-opacity: 0.3; stroke-width: 0.8; stroke-linecap: square"/>
     </g>
     <g id="line2d_20">
      <g>
       <use xlink:href="#m621cd8e5f0" x="50.14375" y="267.870918" style="stroke: #000000; stroke-width: 0.8"/>
      </g>
     </g>
     <g id="text_11">
      <!-- 0.05 -->
      <g transform="translate(20.878125 271.670137) scale(0.1 -0.1)">
       <defs>
        <path id="DejaVuSans-35" d="M 691 4666 
L 3169 4666 
L 3169 4134 
L 1269 4134 
L 1269 2991 
Q 1406 3038 1543 3061 
Q 1681 3084 1819 3084 
Q 2600 3084 3056 2656 
Q 3513 2228 3513 1497 
Q 3513 744 3044 326 
Q 2575 -91 1722 -91 
Q 1428 -91 1123 -41 
Q 819 9 494 109 
L 494 744 
Q 775 591 1075 516 
Q 1375 441 1709 441 
Q 2250 441 2565 725 
Q 2881 1009 2881 1497 
Q 2881 1984 2565 2268 
Q 2250 2553 1709 2553 
Q 1456 2553 1204 2497 
Q 953 2441 691 2322 
L 691 4666 
z
" transform="scale(0.015625)"/>
       </defs>
       <use xlink:href="#DejaVuSans-30"/>
       <use xlink:href="#DejaVuSans-2e" transform="translate(63.623047 0)"/>
       <use xlink:href="#DejaVuSans-30" transform="translate(95.410156 0)"/>
       <use xlink:href="#DejaVuSans-35" transform="translate(159.033203 0)"/>
      </g>
     </g>
    </g>
    <g id="ytick_3">
     <g id="line2d_21">
      <path d="M 50.14375 229.00125 
L 461.87375 229.00125 
" clip-path="url(#pc54d1b4e92)" style="fill: none; stroke: #b0b0b0; stroke-opacity: 0.3; stroke-width: 0.8; stroke-linecap: square"/>
     </g>
     <g id="line2d_22">
      <g>
       <use xlink:href="#m621cd8e5f0" x="50.14375" y="229.00125" style="stroke: #000000; stroke-width: 0.8"/>
      </g>
     </g>
     <g id="text_12">
      <!-- 0.10 -->
      <g transform="translate(20.878125 232.800468) scale(0.1 -0.1)">
       <use xlink:href="#DejaVuSans-30"/>
       <use xlink:href="#DejaVuSans-2e" transform="translate(63.623047 0)"/>
       <use xlink:href="#DejaVuSans-31" transform="translate(95.410156 0)"/>
       <use xlink:href="#DejaVuSans-30" transform="translate(159.033203 0)"/>
      </g>
     </g>
    </g>
    <g id="ytick_4">
     <g id="line2d_23">
      <path d="M 50.14375 190.131581 
L 461.87375 190.131581 
" clip-path="url(#pc54d1b4e92)" style="fill: none; stroke: #b0b0b0; stroke-opacity: 0.3; stroke-width: 0.8; stroke-linecap: square"/>
     </g>
     <g id="line2d_24">
      <g>
       <use xlink:href="#m621cd8e5f0" x="50.14375" y="190.131581" style="stroke: #000000; stroke-width: 0.8"/>
      </g>
     </g>
     <g id="text_13">
      <!-- 0.15 -->
      <g transform="translate(20.878125 193.930799) scale(0.1 -0.1)">
       <use xlink:href="#DejaVuSans-30"/>
       <use xlink:href="#DejaVuSans-2e" transform="translate(63.623047 0)"/>
       <use xlink:href="#DejaVuSans-31" transform="translate(95.410156 0)"/>
       <use xlink:href="#DejaVuSans-35" transform="translate(159.033203 0)"/>
      </g>
     </g>
    </g>
    <g id="ytick_5">
     <g id="line2d_25">
      <path d="M 50.14375 151.261912 
L 461.87375 151.261912 
" clip-path="url(#pc54d1b4e92)" style="fill: none; stroke: #b0b0b0; stroke-opacity: 0.3; stroke-width: 0.8; stroke-linecap: square"/>
     </g>
     <g id="line2d_26">
      <g>
       <use xlink:href="#m621cd8e5f0" x="50.14375" y="151.261912" style="stroke: #000000; stroke-width: 0.8"/>
      </g>
     </g>
     <g id="text_14">
      <!-- 0.20 -->
      <g transform="translate(20.878125 155.061131) scale(0.1 -0.1)">
       <use xlink:href="#DejaVuSans-30"/>
       <use xlink:href="#DejaVuSans-2e" transform="translate(63.623047 0)"/>
       <use xlink:href="#DejaVuSans-32" transform="translate(95.410156 0)"/>
       <use xlink:href="#DejaVuSans-30" transform="translate(159.033203 0)"/>
      </g>
     </g>
    </g>
    <g id="ytick_6">
     <g id="line2d_27">
      <path d="M 50.14375 112.392243 
L 461.87375 112.392243 
" clip-path="url(#pc54d1b4e92)" style="fill: none; stroke: #b0b0b0; stroke-opacity: 0.3; stroke-width: 0.8; stroke-linecap: square"/>
     </g>
     <g id="line2d_28">
      <g>
       <use xlink:href="#m621cd8e5f0" x="50.14375" y="112.392243" style="stroke: #000000; stroke-width: 0.8"/>
      </g>
     </g>
     <g id="text_15">
      <!-- 0.25 -->
      <g transform="translate(20.878125 116.191462) scale(0.1 -0.1)">
       <use xlink:href="#DejaVuSans-30"/>
       <use xlink:href="#DejaVuSans-2e" transform="translate(63.623047 0)"/>
       <use xlink:href="#DejaVuSans-32" transform="translate(95.410156 0)"/>
       <use xlink:href="#DejaVuSans-35" transform="translate(159.033203 0)"/>
      </g>
     </g>
    </g>
    <g id="ytick_7">
     <g id="line2d_29">
      <path d="M 50.14375 73.522574 
L 461.87375 73.522574 
" clip-path="url(#pc54d1b4e92)" style="fill: none; stroke: #b0b0b0; stroke-opacity: 0.3; stroke-width: 0.8; stroke-linecap: square"/>
     </g>
     <g id="line2d_30">
      <g>
       <use xlink:href="#m621cd8e5f0" x="50.14375" y="73.522574" style="stroke: #000000; stroke-width: 0.8"/>
      </g>
     </g>
     <g id="text_16">
      <!-- 0.30 -->
      <g transform="translate(20.878125 77.321793) scale(0.1 -0.1)">
       <defs>
        <path id="DejaVuSans-33" d="M 2597 2516 
Q 3050 2419 3304 2112 
Q 3559 1806 3559 1356 
Q 3559 666 3084 287 
Q 2609 -91 1734 -91 
Q 1441 -91 1130 -33 
Q 819 25 488 141 
L 488 750 
Q 750 597 1062 519 
Q 1375 441 1716 441 
Q 2309 441 2620 675 
Q 2931 909 2931 1356 
Q 2931 1769 2642 2001 
Q 2353 2234 1838 2234 
L 1294 2234 
L 1294 2753 
L 1863 2753 
Q 2328 2753 2575 2939 
Q 2822 3125 2822 3475 
Q 2822 3834 2567 4026 
Q 2313 4219 1838 4219 
Q 1578 4219 1281 4162 
Q 984 4106 628 3988 
L 628 4550 
Q 988 4650 1302 4700 
Q 1616 4750 1894 4750 
Q 2613 4750 3031 4423 
Q 3450 4097 3450 3541 
Q 3450 3153 3228 2886 
Q 3006 2619 2597 2516 
z
" transform="scale(0.015625)"/>
       </defs>
       <use xlink:href="#DejaVuSans-30"/>
       <use xlink:href="#DejaVuSans-2e" transform="translate(63.623047 0)"/>
       <use xlink:href="#DejaVuSans-33" transform="translate(95.410156 0)"/>
       <use xlink:href="#DejaVuSans-30" transform="translate(159.033203 0)"/>
      </g>
     </g>
    </g>
    <g id="text_17">
     <!-- Cross-Entropy Loss -->
     <g transform="translate(14.798438 231.8275) rotate(-90) scale(0.1 -0.1)">
      <defs>
       <path id="DejaVuSans-43" d="M 4122 4306 
L 4122 3641 
Q 3803 3938 3442 4084 
Q 3081 4231 2675 4231 
Q 1875 4231 1450 3742 
Q 1025 3253 1025 2328 
Q 1025 1406 1450 917 
Q 1875 428 2675 428 
Q 3081 428 3442 575 
Q 3803 722 4122 1019 
L 4122 359 
Q 3791 134 3420 21 
Q 3050 -91 2638 -91 
Q 1578 -91 968 557 
Q 359 1206 359 2328 
Q 359 3453 968 4101 
Q 1578 4750 2638 4750 
Q 3056 4750 3426 4639 
Q 3797 4528 4122 4306 
z
" transform="scale(0.015625)"/>
       <path id="DejaVuSans-72" d="M 2631 2963 
Q 2534 3019 2420 3045 
Q 2306 3072 2169 3072 
Q 1681 3072 1420 2755 
Q 1159 2438 1159 1844 
L 1159 0 
L 581 0 
L 581 3500 
L 1159 3500 
L 1159 2956 
Q 1341 3275 1631 3429 
Q 1922 3584 2338 3584 
Q 2397 3584 2469 3576 
Q 2541 3569 2628 3553 
L 2631 2963 
z
" transform="scale(0.015625)"/>
       <path id="DejaVuSans-73" d="M 2834 3397 
L 2834 2853 
Q 2591 2978 2328 3040 
Q 2066 3103 1784 3103 
Q 1356 3103 1142 2972 
Q 928 2841 928 2578 
Q 928 2378 1081 2264 
Q 1234 2150 1697 2047 
L 1894 2003 
Q 2506 1872 2764 1633 
Q 3022 1394 3022 966 
Q 3022 478 2636 193 
Q 2250 -91 1575 -91 
Q 1294 -91 989 -36 
Q 684 19 347 128 
L 347 722 
Q 666 556 975 473 
Q 1284 391 1588 391 
Q 1994 391 2212 530 
Q 2431 669 2431 922 
Q 2431 1156 2273 1281 
Q 2116 1406 1581 1522 
L 1381 1569 
Q 847 1681 609 1914 
Q 372 2147 372 2553 
Q 372 3047 722 3315 
Q 1072 3584 1716 3584 
Q 2034 3584 2315 3537 
Q 2597 3491 2834 3397 
z
" transform="scale(0.015625)"/>
       <path id="DejaVuSans-2d" d="M 313 2009 
L 1997 2009 
L 1997 1497 
L 313 1497 
L 313 2009 
z
" transform="scale(0.015625)"/>
       <path id="DejaVuSans-6e" d="M 3513 2113 
L 3513 0 
L 2938 0 
L 2938 2094 
Q 2938 2591 2744 2837 
Q 2550 3084 2163 3084 
Q 1697 3084 1428 2787 
Q 1159 2491 1159 1978 
L 1159 0 
L 581 0 
L 581 3500 
L 1159 3500 
L 1159 2956 
Q 1366 3272 1645 3428 
Q 1925 3584 2291 3584 
Q 2894 3584 3203 3211 
Q 3513 2838 3513 2113 
z
" transform="scale(0.015625)"/>
       <path id="DejaVuSans-74" d="M 1172 4494 
L 1172 3500 
L 2356 3500 
L 2356 3053 
L 1172 3053 
L 1172 1153 
Q 1172 725 1289 603 
Q 1406 481 1766 481 
L 2356 481 
L 2356 0 
L 1766 0 
Q 1100 0 847 248 
Q 594 497 594 1153 
L 594 3053 
L 172 3053 
L 172 3500 
L 594 3500 
L 594 4494 
L 1172 4494 
z
" transform="scale(0.015625)"/>
       <path id="DejaVuSans-79" d="M 2059 -325 
Q 1816 -950 1584 -1140 
Q 1353 -1331 966 -1331 
L 506 -1331 
L 506 -850 
L 844 -850 
Q 1081 -850 1212 -737 
Q 1344 -625 1503 -206 
L 1606 56 
L 191 3500 
L 800 3500 
L 1894 763 
L 2988 3500 
L 3597 3500 
L 2059 -325 
z
" transform="scale(0.015625)"/>
       <path id="DejaVuSans-20" transform="scale(0.015625)"/>
       <path id="DejaVuSans-4c" d="M 628 4666 
L 1259 4666 
L 1259 531 
L 3531 531 
L 3531 0 
L 628 0 
L 628 4666 
z
" transform="scale(0.015625)"/>
      </defs>
      <use xlink:href="#DejaVuSans-43"/>
      <use xlink:href="#DejaVuSans-72" transform="translate(69.824219 0)"/>
      <use xlink:href="#DejaVuSans-6f" transform="translate(108.6875 0)"/>
      <use xlink:href="#DejaVuSans-73" transform="translate(169.869141 0)"/>
      <use xlink:href="#DejaVuSans-73" transform="translate(221.96875 0)"/>
      <use xlink:href="#DejaVuSans-2d" transform="translate(274.068359 0)"/>
      <use xlink:href="#DejaVuSans-45" transform="translate(310.152344 0)"/>
      <use xlink:href="#DejaVuSans-6e" transform="translate(373.335938 0)"/>
      <use xlink:href="#DejaVuSans-74" transform="translate(436.714844 0)"/>
      <use xlink:href="#DejaVuSans-72" transform="translate(475.923828 0)"/>
      <use xlink:href="#DejaVuSans-6f" transform="translate(514.787109 0)"/>
      <use xlink:href="#DejaVuSans-70" transform="translate(575.96875 0)"/>
      <use xlink:href="#DejaVuSans-79" transform="translate(639.445312 0)"/>
      <use xlink:href="#DejaVuSans-20" transform="translate(698.625 0)"/>
      <use xlink:href="#DejaVuSans-4c" transform="translate(730.412109 0)"/>
      <use xlink:href="#DejaVuSans-6f" transform="translate(784.375 0)"/>
      <use xlink:href="#DejaVuSans-73" transform="translate(845.556641 0)"/>
      <use xlink:href="#DejaVuSans-73" transform="translate(897.65625 0)"/>
     </g>
    </g>
   </g>
   <g id="line2d_31">
    <path d="M 68.85875 62.794545 
L 71.370831 172.795708 
L 73.882911 174.583713 
L 76.394992 187.799401 
L 78.907072 156.548187 
L 81.419153 197.128121 
L 83.931233 198.605168 
L 86.443314 166.887519 
L 88.955394 204.435619 
L 91.467475 230.245079 
L 93.979555 231.644387 
L 96.491636 129.805855 
L 99.003716 248.358345 
L 101.515797 228.068377 
L 104.027878 178.159723 
L 106.539958 245.481989 
L 109.052039 213.064685 
L 111.564119 245.715207 
L 114.0762 234.054306 
L 116.58828 171.629618 
L 119.100361 205.368491 
L 121.612441 170.152571 
L 124.124522 205.912666 
L 126.636602 238.796406 
L 129.148683 248.358345 
L 131.660763 253.722359 
L 134.172844 159.424542 
L 136.684924 285.906445 
L 139.197005 213.531121 
L 141.709086 239.884757 
L 144.221166 269.969881 
L 146.733247 250.768264 
L 149.245327 226.047155 
L 151.757408 203.191789 
L 154.269488 243.460766 
L 156.781569 269.814402 
L 159.293649 292.669767 
L 161.80573 258.542198 
L 164.31781 284.429397 
L 166.829891 194.174026 
L 169.341971 284.584876 
L 171.854052 273.623629 
L 174.366133 258.386719 
L 176.878213 293.136203 
L 179.390294 293.5249 
L 181.902374 253.489141 
L 184.414455 255.277146 
L 186.926535 233.199174 
L 189.438616 259.008634 
L 191.950696 300.987876 
L 194.462777 277.432857 
L 196.974857 296.323516 
L 199.486938 286.372881 
L 201.999018 290.726284 
L 204.511099 262.662383 
L 207.02318 230.478297 
L 209.53526 292.669767 
L 212.047341 273.701369 
L 214.559421 171.862836 
L 217.071502 282.408175 
L 219.583582 249.602174 
L 222.095663 250.301828 
L 224.607743 303.553274 
L 227.119824 302.464924 
L 229.631904 299.666308 
L 232.143985 264.605866 
L 234.656065 270.669535 
L 237.168146 295.934819 
L 239.680227 264.839084 
L 242.192307 292.514288 
L 244.704388 294.380033 
L 247.216468 305.341279 
L 249.728549 290.570805 
L 252.240629 293.913597 
L 254.75271 234.676221 
L 257.26479 283.496525 
L 259.776871 289.560194 
L 262.288951 291.892374 
L 264.801032 298.811175 
L 267.313112 273.701369 
L 269.825193 303.009099 
L 272.337273 290.02663 
L 274.849354 230.0896 
L 277.361435 285.362269 
L 279.873515 298.500217 
L 282.385596 290.804023 
L 284.897676 292.592028 
L 287.409757 284.11844 
L 289.921837 289.793412 
L 292.433918 282.097217 
L 294.945998 288.083146 
L 297.458079 283.185568 
L 299.970159 153.283135 
L 302.48224 294.69099 
L 304.99432 303.708753 
L 307.506401 296.945431 
L 310.018482 248.047387 
L 312.530562 240.817629 
L 315.042643 236.075529 
L 317.554723 293.058464 
L 320.066804 259.708288 
L 322.578884 291.581416 
L 325.090965 223.481757 
L 327.603045 233.821088 
L 330.115126 267.015786 
L 332.627206 297.800563 
L 335.139287 168.986481 
L 337.651367 303.164578 
L 340.163448 290.337587 
L 342.675529 275.644852 
L 345.187609 278.443468 
L 347.69969 205.057534 
L 350.21177 218.506439 
L 352.723851 296.712213 
L 355.235931 291.814634 
L 357.748012 271.991103 
L 360.260092 286.683838 
L 362.772173 277.1219 
L 365.284253 297.722824 
L 367.796334 269.892141 
L 370.308414 280.153734 
L 372.820495 272.768497 
L 375.332576 280.231473 
L 377.844656 302.775881 
L 380.356737 299.199872 
L 382.868817 289.171497 
L 385.380898 232.42178 
L 387.892978 187.255225 
L 390.405059 271.602407 
L 392.917139 259.008634 
L 395.42922 220.294444 
L 397.9413 287.538971 
L 400.453381 267.171264 
L 402.965461 261.107596 
L 405.477542 249.291217 
L 407.989622 239.807017 
L 410.501703 278.754426 
L 413.013784 289.171497 
L 415.525864 288.627322 
L 418.037945 272.068843 
L 420.550025 301.998488 
L 423.062106 283.962961 
L 425.574186 280.54243 
L 428.086267 289.171497 
L 430.598347 274.867459 
L 433.110428 248.436084 
L 435.622508 208.322586 
L 438.134589 289.404715 
L 440.646669 305.885455 
L 443.15875 257.687065 
L 443.15875 257.687065 
" clip-path="url(#pc54d1b4e92)" style="fill: none; stroke: #4682b4; stroke-opacity: 0.7; stroke-linecap: square"/>
   </g>
   <g id="line2d_32">
    <path d="M 78.907072 150.904311 
L 81.419153 177.771026 
L 83.931233 182.932918 
L 86.443314 181.393679 
L 88.955394 184.720923 
L 91.467475 199.460301 
L 93.979555 206.363554 
L 96.491636 192.603692 
L 99.003716 208.897857 
L 101.515797 213.624409 
L 104.027878 203.207337 
L 106.539958 205.974858 
L 109.052039 222.626624 
L 111.564119 222.097996 
L 114.0762 223.295182 
L 116.58828 221.989161 
L 119.100361 213.966462 
L 121.612441 205.384039 
L 124.124522 197.423531 
L 126.636602 198.37195 
L 129.148683 213.717696 
L 131.660763 223.388469 
L 134.172844 221.242864 
L 136.684924 237.241619 
L 139.197005 232.188562 
L 141.709086 230.493845 
L 144.221166 233.743349 
L 146.733247 252.012093 
L 149.245327 240.040235 
L 151.757408 237.972369 
L 154.269488 238.687571 
L 156.781569 238.656475 
L 159.293649 247.036776 
L 161.80573 253.535785 
L 164.31781 269.783306 
L 166.829891 259.925958 
L 169.341971 262.880053 
L 171.854052 259.070825 
L 174.366133 259.03973 
L 176.878213 260.781091 
L 179.390294 280.651266 
L 181.902374 274.432118 
L 184.414455 270.762822 
L 186.926535 265.725313 
L 189.438616 258.899799 
L 191.950696 260.392394 
L 194.462777 265.181137 
L 196.974857 273.390411 
L 199.486938 284.025153 
L 201.999018 290.368683 
L 204.511099 282.703584 
L 207.02318 273.312672 
L 209.53526 272.581922 
L 212.047341 270.04762 
L 214.559421 246.27493 
L 219.583582 254.048864 
L 222.095663 245.575276 
L 224.607743 251.545657 
L 227.119824 277.666075 
L 229.631904 281.117702 
L 232.143985 284.11844 
L 234.656065 288.191981 
L 237.168146 286.66829 
L 239.680227 279.143122 
L 242.192307 277.712719 
L 244.704388 283.667552 
L 247.216468 290.601901 
L 249.728549 289.529098 
L 252.240629 295.344 
L 254.75271 283.776387 
L 257.26479 281.599685 
L 259.776871 278.443468 
L 262.288951 278.707782 
L 264.801032 279.687298 
L 267.313112 287.492327 
L 269.825193 291.394842 
L 272.337273 291.488129 
L 274.849354 279.127574 
L 277.361435 276.437793 
L 279.873515 281.397563 
L 282.385596 278.956548 
L 284.897676 279.469628 
L 287.409757 290.275396 
L 289.921837 291.161624 
L 292.433918 287.881024 
L 294.945998 287.336849 
L 297.458079 285.455557 
L 299.970159 259.288496 
L 302.48224 260.268011 
L 304.99432 264.590318 
L 307.506401 266.362775 
L 310.018482 259.335139 
L 312.530562 276.842038 
L 315.042643 265.118946 
L 317.554723 262.988888 
L 320.066804 255.541459 
L 322.578884 264.248265 
L 325.090965 260.781091 
L 327.603045 260.330203 
L 330.115126 255.121667 
L 332.627206 262.740122 
L 335.139287 238.221135 
L 337.651367 254.157699 
L 340.163448 265.460999 
L 342.675529 267.186812 
L 345.187609 263.315393 
L 347.69969 270.529604 
L 350.21177 253.597976 
L 352.723851 254.872901 
L 355.235931 258.106858 
L 357.748012 256.816385 
L 360.260092 273.141645 
L 362.772173 284.864738 
L 365.284253 285.06686 
L 367.796334 280.682361 
L 370.308414 282.314887 
L 372.820495 279.531819 
L 375.332576 280.153734 
L 377.844656 281.164345 
L 380.356737 287.025891 
L 382.868817 288.829444 
L 385.380898 280.760101 
L 387.892978 262.164851 
L 390.405059 255.930156 
L 392.917139 247.891909 
L 395.42922 234.116498 
L 397.9413 245.139936 
L 400.453381 261.123144 
L 402.965461 259.024182 
L 405.477542 257.080698 
L 407.989622 260.983213 
L 410.501703 259.226304 
L 413.013784 263.626351 
L 415.525864 269.130296 
L 418.037945 273.685821 
L 420.550025 286.124115 
L 423.062106 287.165822 
L 425.574186 285.440009 
L 428.086267 285.548844 
L 430.598347 286.108567 
L 433.110428 275.396086 
L 435.622508 260.268011 
L 438.134589 262.040468 
L 440.646669 265.38326 
L 443.15875 261.947181 
L 443.15875 261.947181 
" clip-path="url(#pc54d1b4e92)" style="fill: none; stroke: #000080; stroke-width: 2; stroke-linecap: square"/>
   </g>
   <g id="patch_3">
    <path d="M 50.14375 318.04 
L 50.14375 50.64 
" style="fill: none; stroke: #000000; stroke-width: 0.8; stroke-linejoin: miter; stroke-linecap: square"/>
   </g>
   <g id="patch_4">
    <path d="M 461.87375 318.04 
L 461.87375 50.64 
" style="fill: none; stroke: #000000; stroke-width: 0.8; stroke-linejoin: miter; stroke-linecap: square"/>
   </g>
   <g id="patch_5">
    <path d="M 50.14375 318.04 
L 461.87375 318.04 
" style="fill: none; stroke: #000000; stroke-width: 0.8; stroke-linejoin: miter; stroke-linecap: square"/>
   </g>
   <g id="patch_6">
    <path d="M 50.14375 50.64 
L 461.87375 50.64 
" style="fill: none; stroke: #000000; stroke-width: 0.8; stroke-linejoin: miter; stroke-linecap: square"/>
   </g>
   <g id="text_18">
    <!-- Training Loss -->
    <g transform="translate(217.270312 44.64) scale(0.12 -0.12)">
     <defs>
      <path id="DejaVuSans-54" d="M -19 4666 
L 3928 4666 
L 3928 4134 
L 2272 4134 
L 2272 0 
L 1638 0 
L 1638 4134 
L -19 4134 
L -19 4666 
z
" transform="scale(0.015625)"/>
      <path id="DejaVuSans-61" d="M 2194 1759 
Q 1497 1759 1228 1600 
Q 959 1441 959 1056 
Q 959 750 1161 570 
Q 1363 391 1709 391 
Q 2188 391 2477 730 
Q 2766 1069 2766 1631 
L 2766 1759 
L 2194 1759 
z
M 3341 1997 
L 3341 0 
L 2766 0 
L 2766 531 
Q 2569 213 2275 61 
Q 1981 -91 1556 -91 
Q 1019 -91 701 211 
Q 384 513 384 1019 
Q 384 1609 779 1909 
Q 1175 2209 1959 2209 
L 2766 2209 
L 2766 2266 
Q 2766 2663 2505 2880 
Q 2244 3097 1772 3097 
Q 1472 3097 1187 3025 
Q 903 2953 641 2809 
L 641 3341 
Q 956 3463 1253 3523 
Q 1550 3584 1831 3584 
Q 2591 3584 2966 3190 
Q 3341 2797 3341 1997 
z
" transform="scale(0.015625)"/>
      <path id="DejaVuSans-69" d="M 603 3500 
L 1178 3500 
L 1178 0 
L 603 0 
L 603 3500 
z
M 603 4863 
L 1178 4863 
L 1178 4134 
L 603 4134 
L 603 4863 
z
" transform="scale(0.015625)"/>
      <path id="DejaVuSans-67" d="M 2906 1791 
Q 2906 2416 2648 2759 
Q 2391 3103 1925 3103 
Q 1463 3103 1205 2759 
Q 947 2416 947 1791 
Q 947 1169 1205 825 
Q 1463 481 1925 481 
Q 2391 481 2648 825 
Q 2906 1169 2906 1791 
z
M 3481 434 
Q 3481 -459 3084 -895 
Q 2688 -1331 1869 -1331 
Q 1566 -1331 1297 -1286 
Q 1028 -1241 775 -1147 
L 775 -588 
Q 1028 -725 1275 -790 
Q 1522 -856 1778 -856 
Q 2344 -856 2625 -561 
Q 2906 -266 2906 331 
L 2906 616 
Q 2728 306 2450 153 
Q 2172 0 1784 0 
Q 1141 0 747 490 
Q 353 981 353 1791 
Q 353 2603 747 3093 
Q 1141 3584 1784 3584 
Q 2172 3584 2450 3431 
Q 2728 3278 2906 2969 
L 2906 3500 
L 3481 3500 
L 3481 434 
z
" transform="scale(0.015625)"/>
     </defs>
     <use xlink:href="#DejaVuSans-54"/>
     <use xlink:href="#DejaVuSans-72" transform="translate(46.333984 0)"/>
     <use xlink:href="#DejaVuSans-61" transform="translate(87.447266 0)"/>
     <use xlink:href="#DejaVuSans-69" transform="translate(148.726562 0)"/>
     <use xlink:href="#DejaVuSans-6e" transform="translate(176.509766 0)"/>
     <use xlink:href="#DejaVuSans-69" transform="translate(239.888672 0)"/>
     <use xlink:href="#DejaVuSans-6e" transform="translate(267.671875 0)"/>
     <use xlink:href="#DejaVuSans-67" transform="translate(331.050781 0)"/>
     <use xlink:href="#DejaVuSans-20" transform="translate(394.527344 0)"/>
     <use xlink:href="#DejaVuSans-4c" transform="translate(426.314453 0)"/>
     <use xlink:href="#DejaVuSans-6f" transform="translate(480.277344 0)"/>
     <use xlink:href="#DejaVuSans-73" transform="translate(541.458984 0)"/>
     <use xlink:href="#DejaVuSans-73" transform="translate(593.558594 0)"/>
    </g>
   </g>
   <g id="legend_1">
    <g id="patch_7">
     <path d="M 368.864375 87.99625 
L 454.87375 87.99625 
Q 456.87375 87.99625 456.87375 85.99625 
L 456.87375 57.64 
Q 456.87375 55.64 454.87375 55.64 
L 368.864375 55.64 
Q 366.864375 55.64 366.864375 57.64 
L 366.864375 85.99625 
Q 366.864375 87.99625 368.864375 87.99625 
z
" style="fill: #ffffff; opacity: 0.8; stroke: #cccccc; stroke-linejoin: miter"/>
    </g>
    <g id="line2d_33">
     <path d="M 370.864375 63.738437 
L 380.864375 63.738437 
L 390.864375 63.738437 
" style="fill: none; stroke: #4682b4; stroke-opacity: 0.7; stroke-linecap: square"/>
    </g>
    <g id="text_19">
     <!-- Train loss -->
     <g transform="translate(398.864375 67.238437) scale(0.1 -0.1)">
      <defs>
       <path id="DejaVuSans-6c" d="M 603 4863 
L 1178 4863 
L 1178 0 
L 603 0 
L 603 4863 
z
" transform="scale(0.015625)"/>
      </defs>
      <use xlink:href="#DejaVuSans-54"/>
      <use xlink:href="#DejaVuSans-72" transform="translate(46.333984 0)"/>
      <use xlink:href="#DejaVuSans-61" transform="translate(87.447266 0)"/>
      <use xlink:href="#DejaVuSans-69" transform="translate(148.726562 0)"/>
      <use xlink:href="#DejaVuSans-6e" transform="translate(176.509766 0)"/>
      <use xlink:href="#DejaVuSans-20" transform="translate(239.888672 0)"/>
      <use xlink:href="#DejaVuSans-6c" transform="translate(271.675781 0)"/>
      <use xlink:href="#DejaVuSans-6f" transform="translate(299.458984 0)"/>
      <use xlink:href="#DejaVuSans-73" transform="translate(360.640625 0)"/>
      <use xlink:href="#DejaVuSans-73" transform="translate(412.740234 0)"/>
     </g>
    </g>
    <g id="line2d_34">
     <path d="M 370.864375 78.416562 
L 380.864375 78.416562 
L 390.864375 78.416562 
" style="fill: none; stroke: #000080; stroke-width: 2; stroke-linecap: square"/>
    </g>
    <g id="text_20">
     <!-- 5-ep mean -->
     <g transform="translate(398.864375 81.916562) scale(0.1 -0.1)">
      <defs>
       <path id="DejaVuSans-65" d="M 3597 1894 
L 3597 1613 
L 953 1613 
Q 991 1019 1311 708 
Q 1631 397 2203 397 
Q 2534 397 2845 478 
Q 3156 559 3463 722 
L 3463 178 
Q 3153 47 2828 -22 
Q 2503 -91 2169 -91 
Q 1331 -91 842 396 
Q 353 884 353 1716 
Q 353 2575 817 3079 
Q 1281 3584 2069 3584 
Q 2775 3584 3186 3129 
Q 3597 2675 3597 1894 
z
M 3022 2063 
Q 3016 2534 2758 2815 
Q 2500 3097 2075 3097 
Q 1594 3097 1305 2825 
Q 1016 2553 972 2059 
L 3022 2063 
z
" transform="scale(0.015625)"/>
       <path id="DejaVuSans-6d" d="M 3328 2828 
Q 3544 3216 3844 3400 
Q 4144 3584 4550 3584 
Q 5097 3584 5394 3201 
Q 5691 2819 5691 2113 
L 5691 0 
L 5113 0 
L 5113 2094 
Q 5113 2597 4934 2840 
Q 4756 3084 4391 3084 
Q 3944 3084 3684 2787 
Q 3425 2491 3425 1978 
L 3425 0 
L 2847 0 
L 2847 2094 
Q 2847 2600 2669 2842 
Q 2491 3084 2119 3084 
Q 1678 3084 1418 2786 
Q 1159 2488 1159 1978 
L 1159 0 
L 581 0 
L 581 3500 
L 1159 3500 
L 1159 2956 
Q 1356 3278 1631 3431 
Q 1906 3584 2284 3584 
Q 2666 3584 2933 3390 
Q 3200 3197 3328 2828 
z
" transform="scale(0.015625)"/>
      </defs>
      <use xlink:href="#DejaVuSans-35"/>
      <use xlink:href="#DejaVuSans-2d" transform="translate(63.623047 0)"/>
      <use xlink:href="#DejaVuSans-65" transform="translate(99.707031 0)"/>
      <use xlink:href="#DejaVuSans-70" transform="translate(161.230469 0)"/>
      <use xlink:href="#DejaVuSans-20" transform="translate(224.707031 0)"/>
      <use xlink:href="#DejaVuSans-6d" transform="translate(256.494141 0)"/>
      <use xlink:href="#DejaVuSans-65" transform="translate(353.90625 0)"/>
      <use xlink:href="#DejaVuSans-61" transform="translate(415.429688 0)"/>
      <use xlink:href="#DejaVuSans-6e" transform="translate(476.708984 0)"/>
     </g>
    </g>
   </g>
  </g>
  <g id="axes_2">
   <g id="patch_8">
    <path d="M 509.59375 318.04 
L 921.32375 318.04 
L 921.32375 50.64 
L 509.59375 50.64 
z
" style="fill: #ffffff"/>
   </g>
   <g id="matplotlib.axis_3">
    <g id="xtick_9">
     <g id="line2d_35">
      <path d="M 525.796669 318.04 
L 525.796669 50.64 
" clip-path="url(#pa99adae65c)" style="fill: none; stroke: #b0b0b0; stroke-opacity: 0.3; stroke-width: 0.8; stroke-linecap: square"/>
     </g>
     <g id="line2d_36">
      <g>
       <use xlink:href="#mbc7b0fd971" x="525.796669" y="318.04" style="stroke: #000000; stroke-width: 0.8"/>
      </g>
     </g>
     <g id="text_21">
      <!-- 0 -->
      <g transform="translate(522.615419 332.638437) scale(0.1 -0.1)">
       <use xlink:href="#DejaVuSans-30"/>
      </g>
     </g>
    </g>
    <g id="xtick_10">
     <g id="line2d_37">
      <path d="M 576.03828 318.04 
L 576.03828 50.64 
" clip-path="url(#pa99adae65c)" style="fill: none; stroke: #b0b0b0; stroke-opacity: 0.3; stroke-width: 0.8; stroke-linecap: square"/>
     </g>
     <g id="line2d_38">
      <g>
       <use xlink:href="#mbc7b0fd971" x="576.03828" y="318.04" style="stroke: #000000; stroke-width: 0.8"/>
      </g>
     </g>
     <g id="text_22">
      <!-- 20 -->
      <g transform="translate(569.67578 332.638437) scale(0.1 -0.1)">
       <use xlink:href="#DejaVuSans-32"/>
       <use xlink:href="#DejaVuSans-30" transform="translate(63.623047 0)"/>
      </g>
     </g>
    </g>
    <g id="xtick_11">
     <g id="line2d_39">
      <path d="M 626.279891 318.04 
L 626.279891 50.64 
" clip-path="url(#pa99adae65c)" style="fill: none; stroke: #b0b0b0; stroke-opacity: 0.3; stroke-width: 0.8; stroke-linecap: square"/>
     </g>
     <g id="line2d_40">
      <g>
       <use xlink:href="#mbc7b0fd971" x="626.279891" y="318.04" style="stroke: #000000; stroke-width: 0.8"/>
      </g>
     </g>
     <g id="text_23">
      <!-- 40 -->
      <g transform="translate(619.917391 332.638437) scale(0.1 -0.1)">
       <use xlink:href="#DejaVuSans-34"/>
       <use xlink:href="#DejaVuSans-30" transform="translate(63.623047 0)"/>
      </g>
     </g>
    </g>
    <g id="xtick_12">
     <g id="line2d_41">
      <path d="M 676.521502 318.04 
L 676.521502 50.64 
" clip-path="url(#pa99adae65c)" style="fill: none; stroke: #b0b0b0; stroke-opacity: 0.3; stroke-width: 0.8; stroke-linecap: square"/>
     </g>
     <g id="line2d_42">
      <g>
       <use xlink:href="#mbc7b0fd971" x="676.521502" y="318.04" style="stroke: #000000; stroke-width: 0.8"/>
      </g>
     </g>
     <g id="text_24">
      <!-- 60 -->
      <g transform="translate(670.159002 332.638437) scale(0.1 -0.1)">
       <use xlink:href="#DejaVuSans-36"/>
       <use xlink:href="#DejaVuSans-30" transform="translate(63.623047 0)"/>
      </g>
     </g>
    </g>
    <g id="xtick_13">
     <g id="line2d_43">
      <path d="M 726.763112 318.04 
L 726.763112 50.64 
" clip-path="url(#pa99adae65c)" style="fill: none; stroke: #b0b0b0; stroke-opacity: 0.3; stroke-width: 0.8; stroke-linecap: square"/>
     </g>
     <g id="line2d_44">
      <g>
       <use xlink:href="#mbc7b0fd971" x="726.763112" y="318.04" style="stroke: #000000; stroke-width: 0.8"/>
      </g>
     </g>
     <g id="text_25">
      <!-- 80 -->
      <g transform="translate(720.400612 332.638437) scale(0.1 -0.1)">
       <use xlink:href="#DejaVuSans-38"/>
       <use xlink:href="#DejaVuSans-30" transform="translate(63.623047 0)"/>
      </g>
     </g>
    </g>
    <g id="xtick_14">
     <g id="line2d_45">
      <path d="M 777.004723 318.04 
L 777.004723 50.64 
" clip-path="url(#pa99adae65c)" style="fill: none; stroke: #b0b0b0; stroke-opacity: 0.3; stroke-width: 0.8; stroke-linecap: square"/>
     </g>
     <g id="line2d_46">
      <g>
       <use xlink:href="#mbc7b0fd971" x="777.004723" y="318.04" style="stroke: #000000; stroke-width: 0.8"/>
      </g>
     </g>
     <g id="text_26">
      <!-- 100 -->
      <g transform="translate(767.460973 332.638437) scale(0.1 -0.1)">
       <use xlink:href="#DejaVuSans-31"/>
       <use xlink:href="#DejaVuSans-30" transform="translate(63.623047 0)"/>
       <use xlink:href="#DejaVuSans-30" transform="translate(127.246094 0)"/>
      </g>
     </g>
    </g>
    <g id="xtick_15">
     <g id="line2d_47">
      <path d="M 827.246334 318.04 
L 827.246334 50.64 
" clip-path="url(#pa99adae65c)" style="fill: none; stroke: #b0b0b0; stroke-opacity: 0.3; stroke-width: 0.8; stroke-linecap: square"/>
     </g>
     <g id="line2d_48">
      <g>
       <use xlink:href="#mbc7b0fd971" x="827.246334" y="318.04" style="stroke: #000000; stroke-width: 0.8"/>
      </g>
     </g>
     <g id="text_27">
      <!-- 120 -->
      <g transform="translate(817.702584 332.638437) scale(0.1 -0.1)">
       <use xlink:href="#DejaVuSans-31"/>
       <use xlink:href="#DejaVuSans-32" transform="translate(63.623047 0)"/>
       <use xlink:href="#DejaVuSans-30" transform="translate(127.246094 0)"/>
      </g>
     </g>
    </g>
    <g id="xtick_16">
     <g id="line2d_49">
      <path d="M 877.487945 318.04 
L 877.487945 50.64 
" clip-path="url(#pa99adae65c)" style="fill: none; stroke: #b0b0b0; stroke-opacity: 0.3; stroke-width: 0.8; stroke-linecap: square"/>
     </g>
     <g id="line2d_50">
      <g>
       <use xlink:href="#mbc7b0fd971" x="877.487945" y="318.04" style="stroke: #000000; stroke-width: 0.8"/>
      </g>
     </g>
     <g id="text_28">
      <!-- 140 -->
      <g transform="translate(867.944195 332.638437) scale(0.1 -0.1)">
       <use xlink:href="#DejaVuSans-31"/>
       <use xlink:href="#DejaVuSans-34" transform="translate(63.623047 0)"/>
       <use xlink:href="#DejaVuSans-30" transform="translate(127.246094 0)"/>
      </g>
     </g>
    </g>
    <g id="text_29">
     <!-- Epoch -->
     <g transform="translate(700.147812 346.316562) scale(0.1 -0.1)">
      <use xlink:href="#DejaVuSans-45"/>
      <use xlink:href="#DejaVuSans-70" transform="translate(63.183594 0)"/>
      <use xlink:href="#DejaVuSans-6f" transform="translate(126.660156 0)"/>
      <use xlink:href="#DejaVuSans-63" transform="translate(187.841797 0)"/>
      <use xlink:href="#DejaVuSans-68" transform="translate(242.822266 0)"/>
     </g>
    </g>
   </g>
   <g id="matplotlib.axis_4">
    <g id="ytick_8">
     <g id="line2d_51">
      <path d="M 509.59375 318.04 
L 921.32375 318.04 
" clip-path="url(#pa99adae65c)" style="fill: none; stroke: #b0b0b0; stroke-opacity: 0.3; stroke-width: 0.8; stroke-linecap: square"/>
     </g>
     <g id="line2d_52">
      <g>
       <use xlink:href="#m621cd8e5f0" x="509.59375" y="318.04" style="stroke: #000000; stroke-width: 0.8"/>
      </g>
     </g>
     <g id="text_30">
      <!-- 0.5 -->
      <g transform="translate(486.690625 321.839219) scale(0.1 -0.1)">
       <use xlink:href="#DejaVuSans-30"/>
       <use xlink:href="#DejaVuSans-2e" transform="translate(63.623047 0)"/>
       <use xlink:href="#DejaVuSans-35" transform="translate(95.410156 0)"/>
      </g>
     </g>
    </g>
    <g id="ytick_9">
     <g id="line2d_53">
      <path d="M 509.59375 264.56 
L 921.32375 264.56 
" clip-path="url(#pa99adae65c)" style="fill: none; stroke: #b0b0b0; stroke-opacity: 0.3; stroke-width: 0.8; stroke-linecap: square"/>
     </g>
     <g id="line2d_54">
      <g>
       <use xlink:href="#m621cd8e5f0" x="509.59375" y="264.56" style="stroke: #000000; stroke-width: 0.8"/>
      </g>
     </g>
     <g id="text_31">
      <!-- 0.6 -->
      <g transform="translate(486.690625 268.359219) scale(0.1 -0.1)">
       <use xlink:href="#DejaVuSans-30"/>
       <use xlink:href="#DejaVuSans-2e" transform="translate(63.623047 0)"/>
       <use xlink:href="#DejaVuSans-36" transform="translate(95.410156 0)"/>
      </g>
     </g>
    </g>
    <g id="ytick_10">
     <g id="line2d_55">
      <path d="M 509.59375 211.08 
L 921.32375 211.08 
" clip-path="url(#pa99adae65c)" style="fill: none; stroke: #b0b0b0; stroke-opacity: 0.3; stroke-width: 0.8; stroke-linecap: square"/>
     </g>
     <g id="line2d_56">
      <g>
       <use xlink:href="#m621cd8e5f0" x="509.59375" y="211.08" style="stroke: #000000; stroke-width: 0.8"/>
      </g>
     </g>
     <g id="text_32">
      <!-- 0.7 -->
      <g transform="translate(486.690625 214.879219) scale(0.1 -0.1)">
       <defs>
        <path id="DejaVuSans-37" d="M 525 4666 
L 3525 4666 
L 3525 4397 
L 1831 0 
L 1172 0 
L 2766 4134 
L 525 4134 
L 525 4666 
z
" transform="scale(0.015625)"/>
       </defs>
       <use xlink:href="#DejaVuSans-30"/>
       <use xlink:href="#DejaVuSans-2e" transform="translate(63.623047 0)"/>
       <use xlink:href="#DejaVuSans-37" transform="translate(95.410156 0)"/>
      </g>
     </g>
    </g>
    <g id="ytick_11">
     <g id="line2d_57">
      <path d="M 509.59375 157.6 
L 921.32375 157.6 
" clip-path="url(#pa99adae65c)" style="fill: none; stroke: #b0b0b0; stroke-opacity: 0.3; stroke-width: 0.8; stroke-linecap: square"/>
     </g>
     <g id="line2d_58">
      <g>
       <use xlink:href="#m621cd8e5f0" x="509.59375" y="157.6" style="stroke: #000000; stroke-width: 0.8"/>
      </g>
     </g>
     <g id="text_33">
      <!-- 0.8 -->
      <g transform="translate(486.690625 161.399219) scale(0.1 -0.1)">
       <use xlink:href="#DejaVuSans-30"/>
       <use xlink:href="#DejaVuSans-2e" transform="translate(63.623047 0)"/>
       <use xlink:href="#DejaVuSans-38" transform="translate(95.410156 0)"/>
      </g>
     </g>
    </g>
    <g id="ytick_12">
     <g id="line2d_59">
      <path d="M 509.59375 104.12 
L 921.32375 104.12 
" clip-path="url(#pa99adae65c)" style="fill: none; stroke: #b0b0b0; stroke-opacity: 0.3; stroke-width: 0.8; stroke-linecap: square"/>
     </g>
     <g id="line2d_60">
      <g>
       <use xlink:href="#m621cd8e5f0" x="509.59375" y="104.12" style="stroke: #000000; stroke-width: 0.8"/>
      </g>
     </g>
     <g id="text_34">
      <!-- 0.9 -->
      <g transform="translate(486.690625 107.919219) scale(0.1 -0.1)">
       <defs>
        <path id="DejaVuSans-39" d="M 703 97 
L 703 672 
Q 941 559 1184 500 
Q 1428 441 1663 441 
Q 2288 441 2617 861 
Q 2947 1281 2994 2138 
Q 2813 1869 2534 1725 
Q 2256 1581 1919 1581 
Q 1219 1581 811 2004 
Q 403 2428 403 3163 
Q 403 3881 828 4315 
Q 1253 4750 1959 4750 
Q 2769 4750 3195 4129 
Q 3622 3509 3622 2328 
Q 3622 1225 3098 567 
Q 2575 -91 1691 -91 
Q 1453 -91 1209 -44 
Q 966 3 703 97 
z
M 1959 2075 
Q 2384 2075 2632 2365 
Q 2881 2656 2881 3163 
Q 2881 3666 2632 3958 
Q 2384 4250 1959 4250 
Q 1534 4250 1286 3958 
Q 1038 3666 1038 3163 
Q 1038 2656 1286 2365 
Q 1534 2075 1959 2075 
z
" transform="scale(0.015625)"/>
       </defs>
       <use xlink:href="#DejaVuSans-30"/>
       <use xlink:href="#DejaVuSans-2e" transform="translate(63.623047 0)"/>
       <use xlink:href="#DejaVuSans-39" transform="translate(95.410156 0)"/>
      </g>
     </g>
    </g>
    <g id="ytick_13">
     <g id="line2d_61">
      <path d="M 509.59375 50.64 
L 921.32375 50.64 
" clip-path="url(#pa99adae65c)" style="fill: none; stroke: #b0b0b0; stroke-opacity: 0.3; stroke-width: 0.8; stroke-linecap: square"/>
     </g>
     <g id="line2d_62">
      <g>
       <use xlink:href="#m621cd8e5f0" x="509.59375" y="50.64" style="stroke: #000000; stroke-width: 0.8"/>
      </g>
     </g>
     <g id="text_35">
      <!-- 1.0 -->
      <g transform="translate(486.690625 54.439219) scale(0.1 -0.1)">
       <use xlink:href="#DejaVuSans-31"/>
       <use xlink:href="#DejaVuSans-2e" transform="translate(63.623047 0)"/>
       <use xlink:href="#DejaVuSans-30" transform="translate(95.410156 0)"/>
      </g>
     </g>
    </g>
    <g id="text_36">
     <!-- AUC-ROC -->
     <g transform="translate(480.610938 207.616562) rotate(-90) scale(0.1 -0.1)">
      <defs>
       <path id="DejaVuSans-41" d="M 2188 4044 
L 1331 1722 
L 3047 1722 
L 2188 4044 
z
M 1831 4666 
L 2547 4666 
L 4325 0 
L 3669 0 
L 3244 1197 
L 1141 1197 
L 716 0 
L 50 0 
L 1831 4666 
z
" transform="scale(0.015625)"/>
       <path id="DejaVuSans-55" d="M 556 4666 
L 1191 4666 
L 1191 1831 
Q 1191 1081 1462 751 
Q 1734 422 2344 422 
Q 2950 422 3222 751 
Q 3494 1081 3494 1831 
L 3494 4666 
L 4128 4666 
L 4128 1753 
Q 4128 841 3676 375 
Q 3225 -91 2344 -91 
Q 1459 -91 1007 375 
Q 556 841 556 1753 
L 556 4666 
z
" transform="scale(0.015625)"/>
       <path id="DejaVuSans-52" d="M 2841 2188 
Q 3044 2119 3236 1894 
Q 3428 1669 3622 1275 
L 4263 0 
L 3584 0 
L 2988 1197 
Q 2756 1666 2539 1819 
Q 2322 1972 1947 1972 
L 1259 1972 
L 1259 0 
L 628 0 
L 628 4666 
L 2053 4666 
Q 2853 4666 3247 4331 
Q 3641 3997 3641 3322 
Q 3641 2881 3436 2590 
Q 3231 2300 2841 2188 
z
M 1259 4147 
L 1259 2491 
L 2053 2491 
Q 2509 2491 2742 2702 
Q 2975 2913 2975 3322 
Q 2975 3731 2742 3939 
Q 2509 4147 2053 4147 
L 1259 4147 
z
" transform="scale(0.015625)"/>
       <path id="DejaVuSans-4f" d="M 2522 4238 
Q 1834 4238 1429 3725 
Q 1025 3213 1025 2328 
Q 1025 1447 1429 934 
Q 1834 422 2522 422 
Q 3209 422 3611 934 
Q 4013 1447 4013 2328 
Q 4013 3213 3611 3725 
Q 3209 4238 2522 4238 
z
M 2522 4750 
Q 3503 4750 4090 4092 
Q 4678 3434 4678 2328 
Q 4678 1225 4090 567 
Q 3503 -91 2522 -91 
Q 1538 -91 948 565 
Q 359 1222 359 2328 
Q 359 3434 948 4092 
Q 1538 4750 2522 4750 
z
" transform="scale(0.015625)"/>
      </defs>
      <use xlink:href="#DejaVuSans-41"/>
      <use xlink:href="#DejaVuSans-55" transform="translate(68.408203 0)"/>
      <use xlink:href="#DejaVuSans-43" transform="translate(141.601562 0)"/>
      <use xlink:href="#DejaVuSans-2d" transform="translate(211.425781 0)"/>
      <use xlink:href="#DejaVuSans-52" transform="translate(247.509766 0)"/>
      <use xlink:href="#DejaVuSans-4f" transform="translate(316.992188 0)"/>
      <use xlink:href="#DejaVuSans-43" transform="translate(395.703125 0)"/>
     </g>
    </g>
   </g>
   <g id="line2d_63">
    <path d="M 528.30875 179.74072 
L 530.820831 177.86892 
L 533.332911 185.24916 
L 535.844992 178.83156 
L 538.357072 188.03012 
L 540.869153 176.95976 
L 543.381233 196.31952 
L 545.893314 166.79856 
L 548.405394 214.77012 
L 550.917475 163.10844 
L 553.429555 205.57156 
L 555.941636 182.52168 
L 558.453716 176.95976 
L 560.965797 229.5306 
L 563.477878 232.31156 
L 565.989958 200.00964 
L 568.502039 203.69976 
L 571.014119 218.46024 
L 573.5262 189.84844 
L 576.03828 176.95976 
L 578.550361 233.22072 
L 581.062441 182.52168 
L 583.574522 187.12096 
L 586.086602 202.7906 
L 588.598683 193.53856 
L 591.110763 196.31952 
L 593.622844 213.86096 
L 596.134924 185.24916 
L 598.647005 190.81108 
L 601.159086 201.88144 
L 603.671166 226.74964 
L 606.183247 227.6588 
L 608.695327 223.05952 
L 611.207408 239.63832 
L 613.719488 211.08 
L 616.231569 222.15036 
L 618.743649 225.84048 
L 621.25573 249.79952 
L 623.76781 212.89832 
L 626.279891 205.57156 
L 628.791971 211.98916 
L 631.304052 225.84048 
L 633.816133 214.77012 
L 636.328213 207.38988 
L 638.840294 216.58844 
L 641.352374 219.3694 
L 643.864455 223.96868 
L 646.376535 221.2412 
L 648.888616 215.67928 
L 651.400696 233.22072 
L 653.912777 215.67928 
L 656.424857 212.89832 
L 658.936938 238.72916 
L 661.449018 236.91084 
L 663.961099 238.72916 
L 666.47318 223.96868 
L 668.98526 239.63832 
L 671.497341 235.03904 
L 674.009421 225.84048 
L 679.033582 244.29108 
L 681.545663 256.2706 
L 684.057743 239.63832 
L 686.569824 243.32844 
L 689.081904 229.5306 
L 691.593985 246.1094 
L 694.106065 225.84048 
L 696.618146 233.22072 
L 699.130227 239.63832 
L 701.642307 230.43976 
L 704.154388 227.6588 
L 706.666468 237.82 
L 709.178549 226.74964 
L 711.690629 226.74964 
L 714.20271 232.31156 
L 716.71479 200.9188 
L 719.226871 217.55108 
L 721.738951 222.15036 
L 724.251032 228.62144 
L 726.763112 221.2412 
L 729.275193 237.82 
L 731.787273 240.60096 
L 734.299354 215.67928 
L 736.811435 233.22072 
L 739.323515 229.5306 
L 741.835596 239.63832 
L 744.347676 238.72916 
L 746.859757 246.1094 
L 749.371837 221.2412 
L 751.883918 231.34892 
L 754.395998 217.55108 
L 756.908079 226.74964 
L 759.420159 225.84048 
L 761.93224 226.74964 
L 764.44432 241.51012 
L 766.956401 226.74964 
L 769.468482 236.91084 
L 771.980562 236.00168 
L 774.492643 236.91084 
L 777.004723 247.01856 
L 779.516804 250.70868 
L 782.028884 240.60096 
L 784.540965 227.6588 
L 787.053045 236.00168 
L 789.565126 238.72916 
L 792.077206 242.41928 
L 794.589287 229.5306 
L 797.101367 233.22072 
L 799.613448 230.43976 
L 802.125529 237.82 
L 804.637609 223.05952 
L 807.14969 212.89832 
L 809.66177 229.5306 
L 812.173851 240.60096 
L 814.685931 233.22072 
L 817.198012 226.74964 
L 819.710092 227.6588 
L 822.222173 227.6588 
L 824.734253 234.12988 
L 827.246334 225.84048 
L 829.758414 241.51012 
L 832.270495 248.89036 
L 834.782576 229.5306 
L 837.294656 246.1094 
L 839.806737 245.20024 
L 842.318817 243.32844 
L 844.830898 234.12988 
L 847.342978 228.62144 
L 849.855059 228.62144 
L 852.367139 247.9812 
L 854.87922 240.60096 
L 857.3913 227.6588 
L 859.903381 236.91084 
L 862.415461 224.93132 
L 864.927542 233.22072 
L 867.439622 235.03904 
L 869.951703 229.5306 
L 872.463784 237.82 
L 874.975864 237.82 
L 877.487945 238.72916 
L 880.000025 231.34892 
L 882.512106 245.20024 
L 885.024186 223.05952 
L 887.536267 236.91084 
L 890.048347 235.03904 
L 892.560428 247.9812 
L 895.072508 221.2412 
L 897.584589 235.03904 
L 900.096669 243.32844 
L 902.60875 234.12988 
L 902.60875 234.12988 
" clip-path="url(#pa99adae65c)" style="fill: none; stroke: #ff6347; stroke-opacity: 0.7; stroke-linecap: square"/>
   </g>
   <g id="line2d_64">
    <path d="M 509.59375 163.10844 
L 921.32375 163.10844 
" clip-path="url(#pa99adae65c)" style="fill: none; stroke-dasharray: 5.55,2.4; stroke-dashoffset: 0; stroke: #808080; stroke-opacity: 0.5; stroke-width: 1.5"/>
   </g>
   <g id="patch_9">
    <path d="M 509.59375 318.04 
L 509.59375 50.64 
" style="fill: none; stroke: #000000; stroke-width: 0.8; stroke-linejoin: miter; stroke-linecap: square"/>
   </g>
   <g id="patch_10">
    <path d="M 921.32375 318.04 
L 921.32375 50.64 
" style="fill: none; stroke: #000000; stroke-width: 0.8; stroke-linejoin: miter; stroke-linecap: square"/>
   </g>
   <g id="patch_11">
    <path d="M 509.59375 318.04 
L 921.32375 318.04 
" style="fill: none; stroke: #000000; stroke-width: 0.8; stroke-linejoin: miter; stroke-linecap: square"/>
   </g>
   <g id="patch_12">
    <path d="M 509.59375 50.64 
L 921.32375 50.64 
" style="fill: none; stroke: #000000; stroke-width: 0.8; stroke-linejoin: miter; stroke-linecap: square"/>
   </g>
   <g id="text_37">
    <!-- Validation AUC-ROC -->
    <g transform="translate(655.99125 44.64) scale(0.12 -0.12)">
     <defs>
      <path id="DejaVuSans-56" d="M 1831 0 
L 50 4666 
L 709 4666 
L 2188 738 
L 3669 4666 
L 4325 4666 
L 2547 0 
L 1831 0 
z
" transform="scale(0.015625)"/>
      <path id="DejaVuSans-64" d="M 2906 2969 
L 2906 4863 
L 3481 4863 
L 3481 0 
L 2906 0 
L 2906 525 
Q 2725 213 2448 61 
Q 2172 -91 1784 -91 
Q 1150 -91 751 415 
Q 353 922 353 1747 
Q 353 2572 751 3078 
Q 1150 3584 1784 3584 
Q 2172 3584 2448 3432 
Q 2725 3281 2906 2969 
z
M 947 1747 
Q 947 1113 1208 752 
Q 1469 391 1925 391 
Q 2381 391 2643 752 
Q 2906 1113 2906 1747 
Q 2906 2381 2643 2742 
Q 2381 3103 1925 3103 
Q 1469 3103 1208 2742 
Q 947 2381 947 1747 
z
" transform="scale(0.015625)"/>
     </defs>
     <use xlink:href="#DejaVuSans-56"/>
     <use xlink:href="#DejaVuSans-61" transform="translate(60.658203 0)"/>
     <use xlink:href="#DejaVuSans-6c" transform="translate(121.9375 0)"/>
     <use xlink:href="#DejaVuSans-69" transform="translate(149.720703 0)"/>
     <use xlink:href="#DejaVuSans-64" transform="translate(177.503906 0)"/>
     <use xlink:href="#DejaVuSans-61" transform="translate(240.980469 0)"/>
     <use xlink:href="#DejaVuSans-74" transform="translate(302.259766 0)"/>
     <use xlink:href="#DejaVuSans-69" transform="translate(341.46875 0)"/>
     <use xlink:href="#DejaVuSans-6f" transform="translate(369.251953 0)"/>
     <use xlink:href="#DejaVuSans-6e" transform="translate(430.433594 0)"/>
     <use xlink:href="#DejaVuSans-20" transform="translate(493.8125 0)"/>
     <use xlink:href="#DejaVuSans-41" transform="translate(525.599609 0)"/>
     <use xlink:href="#DejaVuSans-55" transform="translate(594.007812 0)"/>
     <use xlink:href="#DejaVuSans-43" transform="translate(667.201172 0)"/>
     <use xlink:href="#DejaVuSans-2d" transform="translate(737.025391 0)"/>
     <use xlink:href="#DejaVuSans-52" transform="translate(773.109375 0)"/>
     <use xlink:href="#DejaVuSans-4f" transform="translate(842.591797 0)"/>
     <use xlink:href="#DejaVuSans-43" transform="translate(921.302734 0)"/>
    </g>
   </g>
   <g id="PathCollection_1">
    <defs>
     <path id="m3c0deafb08" d="M 0 5 
C 1.326016 5 2.597899 4.473168 3.535534 3.535534 
C 4.473168 2.597899 5 1.326016 5 0 
C 5 -1.326016 4.473168 -2.597899 3.535534 -3.535534 
C 2.597899 -4.473168 1.326016 -5 0 -5 
C -1.326016 -5 -2.597899 -4.473168 -3.535534 -3.535534 
C -4.473168 -2.597899 -5 -1.326016 -5 0 
C -5 1.326016 -4.473168 2.597899 -3.535534 3.535534 
C -2.597899 4.473168 -1.326016 5 0 5 
z
" style="stroke: #ff0000"/>
    </defs>
    <g clip-path="url(#pa99adae65c)">
     <use xlink:href="#m3c0deafb08" x="550.917475" y="163.10844" style="fill: #ff0000; stroke: #ff0000"/>
    </g>
   </g>
   <g id="legend_2">
    <g id="patch_13">
     <path d="M 777.059687 87.99625 
L 914.32375 87.99625 
Q 916.32375 87.99625 916.32375 85.99625 
L 916.32375 57.64 
Q 916.32375 55.64 914.32375 55.64 
L 777.059687 55.64 
Q 775.059687 55.64 775.059687 57.64 
L 775.059687 85.99625 
Q 775.059687 87.99625 777.059687 87.99625 
z
" style="fill: #ffffff; opacity: 0.8; stroke: #cccccc; stroke-linejoin: miter"/>
    </g>
    <g id="line2d_65">
     <path d="M 779.059687 63.738437 
L 789.059687 63.738437 
L 799.059687 63.738437 
" style="fill: none; stroke: #ff6347; stroke-opacity: 0.7; stroke-linecap: square"/>
    </g>
    <g id="text_38">
     <!-- Val AUC-ROC -->
     <g transform="translate(807.059687 67.238437) scale(0.1 -0.1)">
      <use xlink:href="#DejaVuSans-56"/>
      <use xlink:href="#DejaVuSans-61" transform="translate(60.658203 0)"/>
      <use xlink:href="#DejaVuSans-6c" transform="translate(121.9375 0)"/>
      <use xlink:href="#DejaVuSans-20" transform="translate(149.720703 0)"/>
      <use xlink:href="#DejaVuSans-41" transform="translate(181.507812 0)"/>
      <use xlink:href="#DejaVuSans-55" transform="translate(249.916016 0)"/>
      <use xlink:href="#DejaVuSans-43" transform="translate(323.109375 0)"/>
      <use xlink:href="#DejaVuSans-2d" transform="translate(392.933594 0)"/>
      <use xlink:href="#DejaVuSans-52" transform="translate(429.017578 0)"/>
      <use xlink:href="#DejaVuSans-4f" transform="translate(498.5 0)"/>
      <use xlink:href="#DejaVuSans-43" transform="translate(577.210938 0)"/>
     </g>
    </g>
    <g id="PathCollection_2">
     <g>
      <use xlink:href="#m3c0deafb08" x="789.059687" y="79.291562" style="fill: #ff0000; stroke: #ff0000"/>
     </g>
    </g>
    <g id="text_39">
     <!-- Best: 0.7897 @ ep10 -->
     <g transform="translate(807.059687 81.916562) scale(0.1 -0.1)">
      <defs>
       <path id="DejaVuSans-42" d="M 1259 2228 
L 1259 519 
L 2272 519 
Q 2781 519 3026 730 
Q 3272 941 3272 1375 
Q 3272 1813 3026 2020 
Q 2781 2228 2272 2228 
L 1259 2228 
z
M 1259 4147 
L 1259 2741 
L 2194 2741 
Q 2656 2741 2882 2914 
Q 3109 3088 3109 3444 
Q 3109 3797 2882 3972 
Q 2656 4147 2194 4147 
L 1259 4147 
z
M 628 4666 
L 2241 4666 
Q 2963 4666 3353 4366 
Q 3744 4066 3744 3513 
Q 3744 3084 3544 2831 
Q 3344 2578 2956 2516 
Q 3422 2416 3680 2098 
Q 3938 1781 3938 1306 
Q 3938 681 3513 340 
Q 3088 0 2303 0 
L 628 0 
L 628 4666 
z
" transform="scale(0.015625)"/>
       <path id="DejaVuSans-3a" d="M 750 794 
L 1409 794 
L 1409 0 
L 750 0 
L 750 794 
z
M 750 3309 
L 1409 3309 
L 1409 2516 
L 750 2516 
L 750 3309 
z
" transform="scale(0.015625)"/>
       <path id="DejaVuSans-40" d="M 2381 1678 
Q 2381 1231 2603 976 
Q 2825 722 3213 722 
Q 3597 722 3817 978 
Q 4038 1234 4038 1678 
Q 4038 2116 3813 2373 
Q 3588 2631 3206 2631 
Q 2828 2631 2604 2375 
Q 2381 2119 2381 1678 
z
M 4084 744 
Q 3897 503 3655 389 
Q 3413 275 3091 275 
Q 2553 275 2217 664 
Q 1881 1053 1881 1678 
Q 1881 2303 2218 2693 
Q 2556 3084 3091 3084 
Q 3413 3084 3656 2967 
Q 3900 2850 4084 2613 
L 4084 3022 
L 4531 3022 
L 4531 722 
Q 4988 791 5245 1139 
Q 5503 1488 5503 2041 
Q 5503 2375 5404 2669 
Q 5306 2963 5106 3213 
Q 4781 3622 4314 3839 
Q 3847 4056 3297 4056 
Q 2913 4056 2559 3954 
Q 2206 3853 1906 3653 
Q 1416 3334 1139 2817 
Q 863 2300 863 1697 
Q 863 1200 1042 765 
Q 1222 331 1563 0 
Q 1891 -325 2322 -495 
Q 2753 -666 3244 -666 
Q 3647 -666 4036 -530 
Q 4425 -394 4750 -141 
L 5031 -488 
Q 4641 -791 4180 -952 
Q 3719 -1113 3244 -1113 
Q 2666 -1113 2153 -908 
Q 1641 -703 1241 -313 
Q 841 78 631 592 
Q 422 1106 422 1697 
Q 422 2266 634 2781 
Q 847 3297 1241 3688 
Q 1644 4084 2172 4295 
Q 2700 4506 3291 4506 
Q 3953 4506 4520 4234 
Q 5088 3963 5472 3463 
Q 5706 3156 5829 2797 
Q 5953 2438 5953 2053 
Q 5953 1231 5456 756 
Q 4959 281 4084 263 
L 4084 744 
z
" transform="scale(0.015625)"/>
      </defs>
      <use xlink:href="#DejaVuSans-42"/>
      <use xlink:href="#DejaVuSans-65" transform="translate(68.603516 0)"/>
      <use xlink:href="#DejaVuSans-73" transform="translate(130.126953 0)"/>
      <use xlink:href="#DejaVuSans-74" transform="translate(182.226562 0)"/>
      <use xlink:href="#DejaVuSans-3a" transform="translate(221.435547 0)"/>
      <use xlink:href="#DejaVuSans-20" transform="translate(255.126953 0)"/>
      <use xlink:href="#DejaVuSans-30" transform="translate(286.914062 0)"/>
      <use xlink:href="#DejaVuSans-2e" transform="translate(350.537109 0)"/>
      <use xlink:href="#DejaVuSans-37" transform="translate(382.324219 0)"/>
      <use xlink:href="#DejaVuSans-38" transform="translate(445.947266 0)"/>
      <use xlink:href="#DejaVuSans-39" transform="translate(509.570312 0)"/>
      <use xlink:href="#DejaVuSans-37" transform="translate(573.193359 0)"/>
      <use xlink:href="#DejaVuSans-20" transform="translate(636.816406 0)"/>
      <use xlink:href="#DejaVuSans-40" transform="translate(668.603516 0)"/>
      <use xlink:href="#DejaVuSans-20" transform="translate(768.603516 0)"/>
      <use xlink:href="#DejaVuSans-65" transform="translate(800.390625 0)"/>
      <use xlink:href="#DejaVuSans-70" transform="translate(861.914062 0)"/>
      <use xlink:href="#DejaVuSans-31" transform="translate(925.390625 0)"/>
      <use xlink:href="#DejaVuSans-30" transform="translate(989.013672 0)"/>
     </g>
    </g>
   </g>
  </g>
  <g id="text_40">
   <!-- Job 9560066 — Differential LR (backbone 1e-5 / head 3e-4) -->
   <g transform="translate(271.356094 17.077969) scale(0.13 -0.13)">
    <defs>
     <path id="DejaVuSans-4a" d="M 628 4666 
L 1259 4666 
L 1259 325 
Q 1259 -519 939 -900 
Q 619 -1281 -91 -1281 
L -331 -1281 
L -331 -750 
L -134 -750 
Q 284 -750 456 -515 
Q 628 -281 628 325 
L 628 4666 
z
" transform="scale(0.015625)"/>
     <path id="DejaVuSans-62" d="M 3116 1747 
Q 3116 2381 2855 2742 
Q 2594 3103 2138 3103 
Q 1681 3103 1420 2742 
Q 1159 2381 1159 1747 
Q 1159 1113 1420 752 
Q 1681 391 2138 391 
Q 2594 391 2855 752 
Q 3116 1113 3116 1747 
z
M 1159 2969 
Q 1341 3281 1617 3432 
Q 1894 3584 2278 3584 
Q 2916 3584 3314 3078 
Q 3713 2572 3713 1747 
Q 3713 922 3314 415 
Q 2916 -91 2278 -91 
Q 1894 -91 1617 61 
Q 1341 213 1159 525 
L 1159 0 
L 581 0 
L 581 4863 
L 1159 4863 
L 1159 2969 
z
" transform="scale(0.015625)"/>
     <path id="DejaVuSans-2014" d="M 313 1978 
L 6088 1978 
L 6088 1528 
L 313 1528 
L 313 1978 
z
" transform="scale(0.015625)"/>
     <path id="DejaVuSans-44" d="M 1259 4147 
L 1259 519 
L 2022 519 
Q 2988 519 3436 956 
Q 3884 1394 3884 2338 
Q 3884 3275 3436 3711 
Q 2988 4147 2022 4147 
L 1259 4147 
z
M 628 4666 
L 1925 4666 
Q 3281 4666 3915 4102 
Q 4550 3538 4550 2338 
Q 4550 1131 3912 565 
Q 3275 0 1925 0 
L 628 0 
L 628 4666 
z
" transform="scale(0.015625)"/>
     <path id="DejaVuSans-66" d="M 2375 4863 
L 2375 4384 
L 1825 4384 
Q 1516 4384 1395 4259 
Q 1275 4134 1275 3809 
L 1275 3500 
L 2222 3500 
L 2222 3053 
L 1275 3053 
L 1275 0 
L 697 0 
L 697 3053 
L 147 3053 
L 147 3500 
L 697 3500 
L 697 3744 
Q 697 4328 969 4595 
Q 1241 4863 1831 4863 
L 2375 4863 
z
" transform="scale(0.015625)"/>
     <path id="DejaVuSans-28" d="M 1984 4856 
Q 1566 4138 1362 3434 
Q 1159 2731 1159 2009 
Q 1159 1288 1364 580 
Q 1569 -128 1984 -844 
L 1484 -844 
Q 1016 -109 783 600 
Q 550 1309 550 2009 
Q 550 2706 781 3412 
Q 1013 4119 1484 4856 
L 1984 4856 
z
" transform="scale(0.015625)"/>
     <path id="DejaVuSans-6b" d="M 581 4863 
L 1159 4863 
L 1159 1991 
L 2875 3500 
L 3609 3500 
L 1753 1863 
L 3688 0 
L 2938 0 
L 1159 1709 
L 1159 0 
L 581 0 
L 581 4863 
z
" transform="scale(0.015625)"/>
     <path id="DejaVuSans-2f" d="M 1625 4666 
L 2156 4666 
L 531 -594 
L 0 -594 
L 1625 4666 
z
" transform="scale(0.015625)"/>
     <path id="DejaVuSans-29" d="M 513 4856 
L 1013 4856 
Q 1481 4119 1714 3412 
Q 1947 2706 1947 2009 
Q 1947 1309 1714 600 
Q 1481 -109 1013 -844 
L 513 -844 
Q 928 -128 1133 580 
Q 1338 1288 1338 2009 
Q 1338 2731 1133 3434 
Q 928 4138 513 4856 
z
" transform="scale(0.015625)"/>
    </defs>
    <use xlink:href="#DejaVuSans-4a"/>
    <use xlink:href="#DejaVuSans-6f" transform="translate(29.492188 0)"/>
    <use xlink:href="#DejaVuSans-62" transform="translate(90.673828 0)"/>
    <use xlink:href="#DejaVuSans-20" transform="translate(154.150391 0)"/>
    <use xlink:href="#DejaVuSans-39" transform="translate(185.9375 0)"/>
    <use xlink:href="#DejaVuSans-35" transform="translate(249.560547 0)"/>
    <use xlink:href="#DejaVuSans-36" transform="translate(313.183594 0)"/>
    <use xlink:href="#DejaVuSans-30" transform="translate(376.806641 0)"/>
    <use xlink:href="#DejaVuSans-30" transform="translate(440.429688 0)"/>
    <use xlink:href="#DejaVuSans-36" transform="translate(504.052734 0)"/>
    <use xlink:href="#DejaVuSans-36" transform="translate(567.675781 0)"/>
    <use xlink:href="#DejaVuSans-20" transform="translate(631.298828 0)"/>
    <use xlink:href="#DejaVuSans-2014" transform="translate(663.085938 0)"/>
    <use xlink:href="#DejaVuSans-20" transform="translate(763.085938 0)"/>
    <use xlink:href="#DejaVuSans-44" transform="translate(794.873047 0)"/>
    <use xlink:href="#DejaVuSans-69" transform="translate(871.875 0)"/>
    <use xlink:href="#DejaVuSans-66" transform="translate(899.658203 0)"/>
    <use xlink:href="#DejaVuSans-66" transform="translate(934.863281 0)"/>
    <use xlink:href="#DejaVuSans-65" transform="translate(970.068359 0)"/>
    <use xlink:href="#DejaVuSans-72" transform="translate(1031.591797 0)"/>
    <use xlink:href="#DejaVuSans-65" transform="translate(1070.455078 0)"/>
    <use xlink:href="#DejaVuSans-6e" transform="translate(1131.978516 0)"/>
    <use xlink:href="#DejaVuSans-74" transform="translate(1195.357422 0)"/>
    <use xlink:href="#DejaVuSans-69" transform="translate(1234.566406 0)"/>
    <use xlink:href="#DejaVuSans-61" transform="translate(1262.349609 0)"/>
    <use xlink:href="#DejaVuSans-6c" transform="translate(1323.628906 0)"/>
    <use xlink:href="#DejaVuSans-20" transform="translate(1351.412109 0)"/>
    <use xlink:href="#DejaVuSans-4c" transform="translate(1383.199219 0)"/>
    <use xlink:href="#DejaVuSans-52" transform="translate(1438.912109 0)"/>
    <use xlink:href="#DejaVuSans-20" transform="translate(1508.394531 0)"/>
    <use xlink:href="#DejaVuSans-28" transform="translate(1540.181641 0)"/>
    <use xlink:href="#DejaVuSans-62" transform="translate(1579.195312 0)"/>
    <use xlink:href="#DejaVuSans-61" transform="translate(1642.671875 0)"/>
    <use xlink:href="#DejaVuSans-63" transform="translate(1703.951172 0)"/>
    <use xlink:href="#DejaVuSans-6b" transform="translate(1758.931641 0)"/>
    <use xlink:href="#DejaVuSans-62" transform="translate(1816.841797 0)"/>
    <use xlink:href="#DejaVuSans-6f" transform="translate(1880.318359 0)"/>
    <use xlink:href="#DejaVuSans-6e" transform="translate(1941.5 0)"/>
    <use xlink:href="#DejaVuSans-65" transform="translate(2004.878906 0)"/>
    <use xlink:href="#DejaVuSans-20" transform="translate(2066.402344 0)"/>
    <use xlink:href="#DejaVuSans-31" transform="translate(2098.189453 0)"/>
    <use xlink:href="#DejaVuSans-65" transform="translate(2161.8125 0)"/>
    <use xlink:href="#DejaVuSans-2d" transform="translate(2223.335938 0)"/>
    <use xlink:href="#DejaVuSans-35" transform="translate(2259.419922 0)"/>
    <use xlink:href="#DejaVuSans-20" transform="translate(2323.042969 0)"/>
    <use xlink:href="#DejaVuSans-2f" transform="translate(2354.830078 0)"/>
    <use xlink:href="#DejaVuSans-20" transform="translate(2388.521484 0)"/>
    <use xlink:href="#DejaVuSans-68" transform="translate(2420.308594 0)"/>
    <use xlink:href="#DejaVuSans-65" transform="translate(2483.6875 0)"/>
    <use xlink:href="#DejaVuSans-61" transform="translate(2545.210938 0)"/>
    <use xlink:href="#DejaVuSans-64" transform="translate(2606.490234 0)"/>
    <use xlink:href="#DejaVuSans-20" transform="translate(2669.966797 0)"/>
    <use xlink:href="#DejaVuSans-33" transform="translate(2701.753906 0)"/>
    <use xlink:href="#DejaVuSans-65" transform="translate(2765.376953 0)"/>
    <use xlink:href="#DejaVuSans-2d" transform="translate(2826.900391 0)"/>
    <use xlink:href="#DejaVuSans-34" transform="translate(2862.984375 0)"/>
    <use xlink:href="#DejaVuSans-29" transform="translate(2926.607422 0)"/>
   </g>
  </g>
 </g>
 <defs>
  <clipPath id="pc54d1b4e92">
   <rect x="50.14375" y="50.64" width="411.73" height="267.4"/>
  </clipPath>
  <clipPath id="pa99adae65c">
   <rect x="509.59375" y="50.64" width="411.73" height="267.4"/>
  </clipPath>
 </defs>
</svg>
